<?xml version="1.0" encoding="UTF-8" standalone="no"?>
<!-- Created with Inkscape (http://www.inkscape.org/) -->

<svg
   xmlns:dc="http://purl.org/dc/elements/1.1/"
   xmlns:cc="http://creativecommons.org/ns#"
   xmlns:rdf="http://www.w3.org/1999/02/22-rdf-syntax-ns#"
   xmlns:svg="http://www.w3.org/2000/svg"
   xmlns="http://www.w3.org/2000/svg"
   xmlns:sodipodi="http://sodipodi.sourceforge.net/DTD/sodipodi-0.dtd"
   xmlns:inkscape="http://www.inkscape.org/namespaces/inkscape"
   width="156.31532mm"
   height="41.570972mm"
   viewBox="0 0 156.31532 41.570972"
   version="1.1"
   id="svg8"
   inkscape:version="0.92.5 (2060ec1f9f, 2020-04-08)"
   sodipodi:docname="CollBeh.svg">
  <defs
     id="defs2">
    <clipPath
       id="clipPath833"
       clipPathUnits="userSpaceOnUse">
      <path
         inkscape:connector-curvature="0"
         id="path831"
         d="M 0,520 H 520 V 0 H 0 Z" />
    </clipPath>
    <clipPath
       id="clipPath885"
       clipPathUnits="userSpaceOnUse">
      <path
         inkscape:connector-curvature="0"
         id="path883"
         d="M 0,799.92 H 999.686 V 0 H 0 Z" />
    </clipPath>
    <radialGradient
       gradientUnits="userSpaceOnUse"
       gradientTransform="matrix(0.88475,-1.4121,1.359,0.85145,-656.54,958.15)"
       r="123.35"
       cy="461.42999"
       cx="456.10999"
       id="a">
      <stop
         id="stop928"
         offset="0"
         stop-opacity=".7603"
         stop-color="#475222" />
      <stop
         id="stop930"
         offset="1"
         stop-opacity="0"
         stop-color="#fff" />
    </radialGradient>
  </defs>
  <sodipodi:namedview
     id="base"
     pagecolor="#ffffff"
     bordercolor="#666666"
     borderopacity="1.0"
     inkscape:pageopacity="0.0"
     inkscape:pageshadow="2"
     inkscape:zoom="1.4"
     inkscape:cx="42.30113"
     inkscape:cy="-36.106397"
     inkscape:document-units="mm"
     inkscape:current-layer="layer1"
     showgrid="false"
     inkscape:window-width="2560"
     inkscape:window-height="1343"
     inkscape:window-x="0"
     inkscape:window-y="0"
     inkscape:window-maximized="1" />
  <metadata
     id="metadata5">
    <rdf:RDF>
      <cc:Work
         rdf:about="">
        <dc:format>image/svg+xml</dc:format>
        <dc:type
           rdf:resource="http://purl.org/dc/dcmitype/StillImage" />
        <dc:title />
      </cc:Work>
    </rdf:RDF>
  </metadata>
  <g
     inkscape:label="Layer 1"
     inkscape:groupmode="layer"
     id="layer1"
     transform="translate(-14.093356,-68.162477)">
    <g
       id="g835"
       transform="matrix(0.15918718,0,0,-0.15918718,33.55378,96.273037)">
      <path
         d="m 0,0 v 0 c 0,4.835 -3.956,8.791 -8.791,8.791 h -58.375 c -4.835,0 -8.792,-3.956 -8.792,-8.791 v 0 c 0,-4.835 3.957,-8.791 8.792,-8.791 -4.835,0 -8.792,-3.956 -8.792,-8.792 0,-4.835 3.957,-8.791 8.792,-8.791 h 4.879 c -4.835,0 -8.791,-3.956 -8.791,-8.791 0,-4.836 3.956,-8.792 8.791,-8.792 h 48.616 c 4.836,0 8.792,3.956 8.792,8.792 0,4.835 -3.956,8.791 -8.792,8.791 h 4.88 c 4.835,0 8.791,3.956 8.791,8.791 0,4.836 -3.956,8.792 -8.791,8.792 C -3.956,-8.791 0,-4.835 0,0"
         style="fill:#48c0d8;fill-opacity:1;fill-rule:nonzero;stroke:none"
         id="path837"
         inkscape:connector-curvature="0" />
    </g>
    <g
       id="g839"
       transform="matrix(0.15918718,0,0,-0.15918718,29.12174,83.942737)">
      <path
         d="M 0,0 V 5.958 C 0,6.96 0.733,7.789 1.705,7.886 2.396,7.955 3.048,7.989 3.655,7.989 5.674,7.989 7.19,7.614 7.935,6.905 8.239,6.617 8.635,6.081 8.572,4.759 8.468,2.579 4.818,0.994 0,0 m 28.917,-40.388 c -1.05,-0.798 -1.667,-2.041 -1.667,-3.36 v -12.259 c 0,-8.144 -6.625,-14.769 -14.769,-14.769 H 0 v 65.565 c 6.806,1.288 13.372,4.015 13.645,9.728 0.149,3.139 -1.121,5.034 -2.213,6.071 -2.131,2.024 -5.571,2.812 -10.23,2.351 -3.58,-0.357 -6.28,-3.358 -6.28,-6.981 v -6.751 c -3.109,-0.353 -6.344,-0.504 -9.24,-0.455 -0.018,0 -0.037,10e-4 -0.054,0 -0.008,10e-4 -0.016,0 -0.024,0 -2.896,-0.047 -6.131,0.103 -9.24,0.455 v 6.751 c 0,3.623 -2.7,6.624 -6.28,6.981 -4.658,0.464 -8.099,-0.327 -10.23,-2.351 -1.092,-1.037 -2.362,-2.932 -2.213,-6.071 0.272,-5.714 6.837,-8.44 13.645,-9.728 v -65.565 h -12.481 c -8.144,0 -14.77,6.625 -14.77,14.769 v 12.259 c 0,1.319 -0.616,2.562 -1.667,3.36 -18.007,13.683 -28.335,34.476 -28.335,57.047 0,39.486 32.124,71.61 71.61,71.61 39.486,0 71.611,-32.124 71.611,-71.61 0,-22.571 -10.328,-43.364 -28.337,-57.047 M -5.078,-70.776 h -18.558 v 64.842 c 4.076,-0.413 7.65,-0.419 9.276,-0.393 1.623,-0.027 5.201,-0.021 9.282,0.393 z M -28.714,0 c -4.817,0.995 -8.469,2.58 -8.572,4.759 -0.063,1.322 0.333,1.858 0.637,2.146 0.746,0.709 2.261,1.084 4.281,1.084 0.606,0 1.258,-0.034 1.948,-0.103 0.973,-0.097 1.706,-0.926 1.706,-1.928 z m 43.545,-79.216 c 2.521,0 4.571,-2.051 4.571,-4.572 0,-2.521 -2.05,-4.571 -4.571,-4.571 h -58.375 c -2.521,0 -4.572,2.05 -4.572,4.571 0,2.521 2.051,4.572 4.572,4.572 h 2.349 53.676 z M 9.952,-123.524 H -2.181 -26.533 -38.665 c -2.521,0 -4.572,2.05 -4.572,4.571 0,2.521 2.051,4.571 4.572,4.571 H 9.952 c 2.521,0 4.571,-2.05 4.571,-4.571 0,-2.521 -2.05,-4.571 -4.571,-4.571 m -24.309,-26.023 c -16.748,0 -16.748,8.788 -16.748,13.011 0,2.521 2.051,4.572 4.572,4.572 h 24.352 c 2.521,0 4.572,-2.051 4.572,-4.572 0,-4.866 0,-13.011 -16.748,-13.011 m 33.759,48.177 c 0,-2.521 -2.05,-4.572 -4.571,-4.572 h -4.879 -48.617 -4.879 c -2.521,0 -4.572,2.051 -4.572,4.572 0,2.521 2.051,4.571 4.572,4.571 h 58.375 c 2.521,0 4.571,-2.05 4.571,-4.571 M -14.357,96.709 c -44.14,0 -80.05,-35.911 -80.05,-80.05 0,-24.527 10.908,-47.174 30.003,-62.466 v -10.2 c 0,-8.223 4.302,-15.456 10.771,-19.579 -1.825,-2.24 -2.923,-5.095 -2.923,-8.202 0,-3.391 1.315,-6.473 3.448,-8.791 -2.133,-2.318 -3.448,-5.4 -3.448,-8.791 0,-4.812 2.633,-9.013 6.527,-11.264 -1.046,-1.873 -1.647,-4.026 -1.647,-6.319 0,-7.164 5.819,-12.991 12.978,-13.009 -0.538,-1.426 -0.846,-2.963 -0.846,-4.574 0,-17.73 13.697,-21.451 25.187,-21.451 16.714,0 25.187,7.217 25.187,21.451 0,1.611 -0.308,3.148 -0.845,4.574 7.159,0.018 12.977,5.845 12.977,13.009 0,2.293 -0.601,4.446 -1.647,6.319 3.894,2.251 6.527,6.452 6.527,11.264 0,3.391 -1.315,6.473 -3.447,8.791 2.132,2.318 3.447,5.4 3.447,8.791 0,3.108 -1.098,5.962 -2.923,8.202 6.469,4.124 10.771,11.356 10.771,19.579 v 10.2 c 19.096,15.292 30.004,37.939 30.004,62.466 0,44.139 -35.911,80.05 -80.051,80.05"
         style="fill:#333333;fill-opacity:1;fill-rule:nonzero;stroke:none"
         id="path841"
         inkscape:connector-curvature="0" />
    </g>
    <g
       transform="matrix(0.05196892,0,0,-0.05196892,57.233218,109.73345)"
       inkscape:label="protesting-5441816"
       id="g877">
      <g
         id="g879">
        <g
           clip-path="url(#clipPath885)"
           id="g881">
          <g
             transform="translate(270.6106,488.3639)"
             id="g887">
            <path
               inkscape:connector-curvature="0"
               id="path889"
               style="fill:#000000;fill-opacity:1;fill-rule:nonzero;stroke:none"
               d="m 0,0 h -5.583 c 0.568,-2.493 1.093,-4.804 1.731,-7.61 1.15,2.128 2.031,3.714 2.866,5.323 C -0.63,-1.602 -0.37,-0.867 0,0 m 153.116,-174.653 c 3.39,0 6.626,0.385 9.722,-0.108 3.061,-0.489 5.981,-1.863 8.961,-2.847 0.543,0.848 0.436,1.576 -0.32,2.311 -0.739,0.717 -1.417,1.513 -2.026,2.344 -0.835,1.14 -1.911,1.788 -3.239,2.287 -4.189,1.573 -8.09,0.953 -11.908,-1.138 -1.147,-0.628 -1.582,-1.44 -1.19,-2.849 m 201.69,476.624 c 1.091,-2.644 1.987,-4.747 2.825,-6.872 0.491,-1.246 1.384,-1.581 2.643,-1.541 2.145,0.067 4.294,-0.008 6.44,0.03 0.497,0.009 0.991,0.229 1.737,0.415 -1.071,2.485 -1.991,4.763 -3.054,6.972 -0.223,0.462 -0.961,0.935 -1.477,0.952 -2.857,0.091 -5.719,0.044 -9.114,0.044 m -195.048,0.859 c -0.115,0.213 -0.23,0.427 -0.344,0.641 -2.766,0 -5.531,0.005 -8.297,-0.003 -0.913,-0.002 -1.388,-0.568 -1.806,-1.322 -0.963,-1.733 -2.023,-3.412 -2.999,-5.139 -0.327,-0.577 -0.879,-1.218 0.05,-2.027 2.393,0 4.93,-0.055 7.461,0.035 0.722,0.026 1.775,0.26 2.083,0.763 1.4,2.28 2.588,4.689 3.852,7.052 m -23.93,-25.323 c 3.298,0 6.535,-0.076 9.761,0.071 0.572,0.026 1.256,0.887 1.621,1.517 1.154,1.994 2.192,4.056 3.253,6.104 0.716,1.382 0.448,1.832 -1.123,1.86 -2.304,0.04 -4.611,0.006 -6.914,0.07 -1.059,0.029 -1.834,-0.276 -2.38,-1.225 -1.385,-2.409 -2.82,-4.789 -4.201,-7.2 -0.131,-0.228 -0.017,-0.595 -0.017,-1.197 m 240.674,-1.695 c -1.469,3.343 -2.617,6.112 -3.934,8.799 -0.229,0.465 -1.166,0.794 -1.79,0.818 -2.71,0.102 -5.425,0.079 -8.138,0.065 -0.274,-0.002 -0.548,-0.251 -1.071,-0.508 0.745,-1.817 1.518,-3.541 2.164,-5.312 1.646,-4.517 1.167,-3.628 5.578,-3.895 2.19,-0.132 4.396,0.01 7.191,0.033 m -235.701,-7.857 c -3.446,0 -6.697,0.001 -9.949,0 -1.042,0 -1.514,-0.739 -1.964,-1.513 -1.4,-2.404 -2.825,-4.793 -4.195,-7.213 -0.366,-0.648 -0.569,-1.388 -0.975,-2.407 3.827,0 7.24,0.02 10.654,-0.014 0.879,-0.009 1.282,0.498 1.636,1.148 1.483,2.717 2.982,5.426 4.424,8.166 0.237,0.452 0.218,1.039 0.369,1.833 m 244.431,-13.073 c -0.027,0.592 0.063,1.021 -0.08,1.347 -1.313,2.989 -2.675,5.956 -4.001,8.939 -0.388,0.873 -1.088,1.07 -1.942,1.071 -2.624,0.004 -5.248,0.046 -7.871,0.023 -0.658,-0.006 -1.315,-0.201 -2.253,-0.355 1.07,-2.597 2.005,-4.865 2.937,-7.135 1.585,-3.862 1.584,-3.868 5.759,-3.888 2.448,-0.011 4.896,-0.002 7.451,-0.002 M 128.613,244.466 c -0.639,0.085 -1.234,0.223 -1.83,0.235 -2.789,0.052 -5.585,-0.029 -8.366,0.142 -1.328,0.081 -2.075,-0.337 -2.695,-1.443 -1.518,-2.706 -3.123,-5.363 -4.669,-8.054 -0.652,-1.135 -1.244,-2.305 -1.834,-3.405 0.312,-0.264 0.428,-0.448 0.547,-0.449 3.749,-0.044 7.499,-0.118 11.246,-0.046 0.558,0.011 1.324,0.601 1.617,1.131 2.002,3.63 3.907,7.314 5.829,10.987 0.102,0.194 0.082,0.451 0.155,0.902 m 268.152,-15.421 c -0.06,0.618 -0.014,0.955 -0.132,1.22 -1.542,3.498 -3.161,6.962 -4.638,10.486 -0.597,1.422 -1.556,1.845 -2.974,1.845 -3.02,0.001 -6.042,0.097 -9.063,0.108 -0.417,0.001 -0.836,-0.261 -1.441,-0.464 0.417,-1.025 0.779,-1.885 1.118,-2.755 1.067,-2.741 2.091,-5.499 3.202,-8.221 0.409,-1.001 0.755,-2.208 2.191,-2.214 3.815,-0.015 7.63,-0.005 11.737,-0.005 M 114.482,217.184 c -1.232,0.134 -2.066,0.295 -2.902,0.303 -2.864,0.031 -5.731,-0.08 -8.589,0.041 -1.595,0.067 -2.463,-0.573 -3.207,-1.906 -2.359,-4.223 -4.832,-8.382 -7.228,-12.584 -0.209,-0.366 -0.179,-0.869 -0.292,-1.49 0.762,-0.114 1.364,-0.277 1.968,-0.283 3.181,-0.037 6.366,0.056 9.541,-0.082 1.69,-0.073 2.668,0.577 3.404,2.014 1.776,3.468 3.63,6.894 5.444,10.341 0.575,1.092 1.124,2.198 1.861,3.646 M -40.277,-29.02 c 0.133,-0.212 0.267,-0.424 0.4,-0.637 h 17.533 c -1.258,8.317 -2.26,16.556 -3.615,24.742 -0.161,0.006 -0.321,0.013 -0.481,0.019 -4.613,-8.041 -9.225,-16.083 -13.837,-24.124 m 430.046,244.037 c 0.099,-0.865 0.041,-1.52 0.256,-2.067 1.693,-4.297 3.446,-8.571 5.164,-12.86 0.435,-1.086 1.145,-1.631 2.364,-1.62 4.062,0.036 8.124,0.013 12.539,0.013 -0.108,0.658 -0.087,1.335 -0.332,1.896 -1.82,4.168 -3.777,8.277 -5.506,12.48 -0.672,1.638 -1.699,2.127 -3.302,2.109 -2.553,-0.03 -5.108,0.031 -7.661,0.048 -1.094,0.007 -2.187,0.001 -3.522,0.001 M 172.79,-172.502 c 0.687,3.755 1.295,7.042 1.878,10.333 0.068,0.378 0.101,0.819 -0.024,1.169 -1.32,3.697 -5.366,7.685 -10.152,7.139 -4.497,-0.514 -10.591,-3.464 -10.352,-10.055 0.019,-0.548 -0.158,-1.101 -0.211,-1.656 -0.095,-0.996 -0.164,-1.996 -0.258,-3.163 0.662,0.157 1.091,0.165 1.416,0.352 2.699,1.545 5.566,1.74 8.565,1.229 3.109,-0.529 6.144,-1.147 8.058,-4.042 0.212,-0.32 0.49,-0.597 1.08,-1.306 M 46.356,88.168 c -0.569,0.143 -0.861,0.276 -1.155,0.28 -5.409,0.075 -10.82,0.078 -16.226,0.237 -1.44,0.042 -2.149,-0.508 -2.793,-1.689 -1.561,-2.862 -3.263,-5.647 -4.874,-8.482 -0.691,-1.216 -1.299,-2.479 -1.955,-3.741 0.382,-0.149 0.522,-0.25 0.665,-0.252 5.89,-0.11 11.782,-0.186 17.671,-0.334 1.185,-0.03 1.653,0.58 2.137,1.503 1.844,3.52 3.769,6.998 5.647,10.501 0.319,0.594 0.553,1.232 0.883,1.977 m 229.79,-23.657 c 0.189,1.314 0.324,2.482 0.533,3.637 0.166,0.915 0.578,1.808 0.614,2.722 0.261,6.748 0.53,13.497 0.64,20.248 0.05,3.058 0.258,6.16 -0.477,9.131 -1.407,0 -2.687,-0.206 -3.861,0.057 -1.19,0.267 -2.169,0.194 -3.376,-0.604 -0.137,-1.907 -0.336,-3.962 -0.422,-6.021 -0.082,-1.976 0.002,-3.958 -0.075,-5.935 -0.137,-3.563 -0.403,-7.122 -0.497,-10.685 -0.078,-2.942 0.01,-5.889 0.036,-8.833 0.011,-1.13 0.053,-2.26 0.078,-3.274 2.49,-0.162 4.615,-0.301 6.807,-0.443 M 96.662,184.243 c -4.469,0 -8.608,-0.1 -12.738,0.051 -1.531,0.056 -2.345,-0.468 -3.049,-1.705 -3.189,-5.601 -6.435,-11.171 -9.636,-16.766 -0.21,-0.366 -0.221,-0.845 -0.411,-1.628 1.002,0 1.773,0.005 2.545,0 3.665,-0.024 7.335,0.052 10.993,-0.123 1.509,-0.072 2.329,0.355 3.022,1.671 2.965,5.632 6.026,11.215 9.021,16.832 0.2,0.376 0.144,0.888 0.253,1.668 m 330.49,-23.637 c -0.336,0.983 -0.531,1.719 -0.835,2.407 -0.643,1.456 -1.362,2.877 -2.014,4.33 -1.794,4.003 -3.588,8.006 -5.338,12.029 -0.505,1.162 -1.199,1.686 -2.549,1.665 -3.993,-0.061 -7.988,0.038 -11.982,0.051 -0.364,0.001 -0.729,-0.165 -1.444,-0.339 0.455,-1.233 0.833,-2.321 1.257,-3.391 1.996,-5.033 4.039,-10.048 5.984,-15.101 0.443,-1.153 1.116,-1.655 2.3,-1.665 4.068,-0.034 8.136,-0.097 12.204,-0.131 0.688,-0.005 1.377,0.08 2.417,0.145 M 74.905,142.084 c -0.957,0.187 -1.409,0.348 -1.864,0.353 -4.535,0.045 -9.072,0.109 -13.606,0.045 -0.67,-0.009 -1.45,-0.533 -1.963,-1.038 -0.549,-0.539 -0.846,-1.336 -1.245,-2.024 -4.001,-6.893 -8.006,-13.784 -11.987,-20.69 -0.244,-0.424 -0.287,-0.964 -0.447,-1.532 0.53,-0.123 0.831,-0.252 1.133,-0.255 5.02,-0.059 10.041,-0.096 15.062,-0.151 1.169,-0.012 1.886,0.518 2.431,1.566 3.35,6.429 6.751,12.829 10.134,19.24 0.731,1.384 1.454,2.774 2.352,4.486 m 345.05,-3.839 c -0.034,-0.514 -0.099,-0.691 -0.047,-0.822 3.095,-7.693 6.241,-15.366 9.271,-23.085 0.608,-1.548 1.501,-1.996 3.067,-1.975 4.556,0.059 9.115,-0.026 13.672,-0.026 0.76,0 1.519,0.148 2.558,0.256 -0.537,1.183 -0.962,2.101 -1.371,3.026 -3.028,6.86 -6.083,13.71 -9.057,20.595 -0.658,1.523 -1.549,2.162 -3.261,2.145 -4.153,-0.041 -8.307,0.142 -12.461,0.191 -0.767,0.009 -1.536,-0.192 -2.371,-0.305 m 53.741,-83.423 c -0.266,0.734 -0.376,1.103 -0.528,1.453 -2.128,4.884 -4.261,9.765 -6.393,14.646 -1.529,3.502 -3.091,6.991 -4.573,10.513 -0.543,1.292 -1.401,1.737 -2.766,1.742 -5.339,0.018 -10.677,0.122 -16.016,0.192 -1.738,0.023 -1.96,-0.335 -1.308,-1.911 1.245,-3.012 2.472,-6.031 3.676,-9.059 2.061,-5.182 4.13,-10.362 6.122,-15.571 0.445,-1.165 1.092,-1.603 2.311,-1.557 1.833,0.068 3.672,0.034 5.507,-0.016 4.53,-0.122 9.06,-0.277 13.968,-0.432 M 495.567,5.833 c -0.251,-0.807 -0.419,-1.172 -0.476,-1.554 -0.98,-6.537 -1.932,-13.078 -2.92,-19.613 -0.999,-6.617 -2.044,-13.227 -3.043,-19.844 -0.395,-2.622 0.072,-3.111 2.662,-3.144 3.338,-0.043 6.675,-0.155 10.013,-0.202 2.787,-0.039 5.576,-0.073 8.362,-0.004 0.618,0.016 1.689,0.381 1.761,0.742 0.407,2.045 1.17,3.995 0.141,6.242 -3.517,7.671 -6.782,15.458 -10.172,23.188 -2.012,4.585 -4.077,9.147 -6.328,14.189 M 180.786,-196.953 c -0.351,1.95 -0.514,3.956 -1.085,5.839 -2.574,8.472 -10.601,15.017 -21.128,15.034 -8.237,0.014 -15.036,-3.189 -19.381,-10.596 -4.194,-7.151 -4.117,-14.349 0.287,-21.264 5.821,-9.137 17.817,-12.464 28.191,-8.106 7.482,3.141 13.155,10.663 13.116,19.093 m -291.914,44.082 c 2.438,0 4.247,0.024 6.055,-0.004 7.502,-0.117 15.004,-0.235 22.505,-0.389 1.271,-0.027 2.062,0.407 2.632,1.595 1.241,2.586 2.6,5.117 3.94,7.654 6.178,11.693 12.365,23.381 18.549,35.07 2.832,5.355 5.67,10.705 8.496,16.063 1.289,2.442 2.555,4.896 4.018,7.704 -1.123,0.086 -1.879,0.185 -2.636,0.196 -7.583,0.11 -15.167,0.164 -22.748,0.344 -1.332,0.032 -2.009,-0.39 -2.627,-1.514 -2.036,-3.7 -4.176,-7.344 -6.283,-11.004 -9.862,-17.131 -19.73,-34.259 -29.586,-51.392 -0.702,-1.22 -1.332,-2.482 -2.315,-4.323 m 682.353,-13.538 c -0.127,0.678 -0.126,1.082 -0.275,1.42 -4.164,9.4 -8.356,18.787 -12.518,28.188 -5.779,13.049 -11.575,26.091 -17.262,39.179 -0.738,1.702 -1.678,2.122 -3.419,2.132 -7.816,0.05 -15.632,0.245 -23.448,0.411 -1.942,0.042 -2.23,-0.339 -1.454,-2.291 2.239,-5.623 4.52,-11.23 6.752,-16.857 4.731,-11.925 9.447,-23.856 14.158,-35.789 1.728,-4.374 3.338,-8.796 5.164,-13.128 1.009,-2.394 0.852,-2.717 3.761,-2.748 8.769,-0.093 17.534,-0.335 26.302,-0.515 0.686,-0.014 1.373,-0.002 2.239,-0.002 m -793.967,-181.424 c 0.752,-0.175 1.051,-0.302 1.353,-0.307 8.301,-0.143 16.603,-0.267 24.904,-0.408 3.507,-0.059 7.018,-0.082 10.52,-0.255 1.53,-0.076 2.271,0.565 2.945,1.853 4.771,9.108 9.642,18.163 14.427,27.264 5.123,9.743 10.16,19.532 15.286,29.274 5.868,11.156 11.78,22.287 17.696,33.416 2.77,5.21 5.607,10.383 8.385,15.588 0.498,0.934 0.854,1.943 1.466,3.356 -1.425,0 -2.358,-0.005 -3.291,0.001 -3.833,0.023 -7.666,0.012 -11.498,0.086 -5.667,0.107 -11.335,0.257 -17.001,0.431 -1.299,0.04 -2.295,-0.218 -2.992,-1.47 -1.629,-2.926 -3.388,-5.781 -5.041,-8.694 -4.252,-7.491 -8.442,-15.017 -12.718,-22.494 -6.813,-11.909 -13.677,-23.788 -20.516,-35.683 -7.677,-13.352 -15.351,-26.707 -23.019,-40.064 -0.3,-0.521 -0.523,-1.087 -0.906,-1.894 m 797.845,93.446 c 0.33,-0.998 0.496,-1.609 0.73,-2.193 3.571,-8.962 7.154,-17.919 10.73,-26.879 3.28,-8.217 6.574,-16.429 9.828,-24.657 3.344,-8.456 6.642,-16.928 9.97,-25.39 2.596,-6.603 5.204,-13.201 7.811,-19.799 1.993,-5.043 4.021,-10.073 5.964,-15.137 0.409,-1.067 0.968,-1.509 2.114,-1.458 1.349,0.059 2.706,-0.053 4.059,-0.094 8.218,-0.25 16.436,-0.53 24.654,-0.736 3.417,-0.086 6.838,-0.014 10.495,-0.014 -0.253,0.767 -0.398,1.37 -0.648,1.927 -0.751,1.674 -1.572,3.316 -2.314,4.992 -5.361,12.114 -10.71,24.232 -16.057,36.35 -4.604,10.433 -9.2,20.871 -13.798,31.307 -4.437,10.07 -8.877,20.14 -13.307,30.213 -1.316,2.994 -2.589,6.004 -3.911,8.995 -0.496,1.121 -1.099,2.033 -2.608,2.038 -4.144,0.011 -8.286,0.155 -12.429,0.239 -5.101,0.102 -10.203,0.207 -15.304,0.291 -1.881,0.031 -3.763,0.005 -5.979,0.005 M -98.922,-24.145 c 0.533,-2.563 0.971,-4.814 1.474,-7.052 1.327,-5.91 2.68,-11.815 4.027,-17.721 0.355,-1.558 0.652,-3.132 1.1,-4.663 0.98,-3.352 5.031,-5.051 7.831,-3.341 1.662,1.015 2.66,3.918 2.228,6.422 -0.648,3.756 -1.296,7.512 -1.917,11.272 -0.489,2.958 -0.953,5.921 -1.399,8.886 -0.292,1.941 -0.531,3.888 -0.799,5.874 h 4.942 c 0.166,-0.494 0.339,-0.855 0.407,-1.234 0.424,-2.346 0.755,-4.711 1.245,-7.043 1.358,-6.47 2.77,-12.928 4.186,-19.386 0.188,-0.854 0.446,-1.711 0.803,-2.508 1.032,-2.308 3.87,-3.77 6.104,-3.213 2.418,0.603 4.955,4.539 4.586,7.079 -0.584,4.026 -0.981,8.089 -1.768,12.075 -0.903,4.58 -0.76,9.358 -2.697,13.725 0.256,0.092 0.401,0.187 0.548,0.19 2.95,0.054 5.9,0.058 8.849,0.152 2.594,0.083 3.793,1.43 3.651,3.971 -0.053,0.956 -0.117,1.911 -0.19,2.865 -0.185,2.385 -0.096,4.834 -0.629,7.139 -0.986,4.263 -2.158,8.503 -3.579,12.641 -2.124,6.187 -4.49,12.293 -6.854,18.394 -0.446,1.151 -1.263,2.203 -2.075,3.159 -2.78,3.277 -5.625,6.5 -8.466,9.724 -0.888,1.008 -1.239,2.109 -1.26,3.478 -0.069,4.466 -0.271,8.931 -0.447,13.395 -0.083,2.134 -0.224,4.265 -0.342,6.457 1.401,0.608 2.643,0.325 3.912,-0.323 3.555,-1.814 7.112,-3.63 10.724,-5.325 0.873,-0.409 2.004,-0.608 2.947,-0.461 3.067,0.478 5.771,3.474 5.616,6.759 -0.179,3.794 -0.368,7.646 -1.681,11.303 -1.991,5.549 -3.932,11.116 -5.934,16.66 -0.567,1.568 -1.076,3.211 -1.956,4.601 -2.401,3.793 -6.776,3.749 -8.741,0.787 -0.524,-0.791 -1.233,-1.463 -1.875,-2.174 -0.593,-0.658 -0.706,-1.33 -0.383,-2.194 1.061,-2.838 2.068,-5.697 3.058,-8.561 1.044,-3.022 2.041,-6.061 3.068,-9.089 0.257,-0.759 0.198,-1.425 -0.496,-1.917 -0.74,-0.524 -1.329,-0.174 -1.922,0.331 -1.399,1.189 -2.78,2.405 -4.245,3.509 -2.287,1.725 -4.57,3.471 -6.979,5.014 -2.361,1.512 -4.851,2.129 -7.164,-0.234 -0.166,-0.169 -0.381,-0.29 -0.574,-0.431 -1.302,-0.952 -2.59,-1.12 -3.87,0.044 -0.047,1.174 0.765,1.619 1.597,2.164 1.397,0.916 2.843,1.832 4.016,3.002 10.421,10.384 6.968,28.393 -3.968,34.84 -6.635,3.912 -14.589,3.206 -20.145,-2.12 -5.437,-5.212 -7.345,-11.766 -6.365,-19.042 1.084,-8.046 5.123,-14.184 12.811,-17.534 0.398,-0.174 0.746,-0.464 1.527,-0.959 -0.871,-0.413 -1.385,-0.869 -1.89,-0.86 -2.719,0.05 -5.142,0.74 -6.879,3.124 -2.63,3.61 -5.346,7.159 -8.092,10.682 -3.39,4.349 -6.461,8.867 -8.116,14.202 -0.071,0.228 -0.149,0.455 -0.237,0.677 -2.193,5.564 -4.376,11.133 -6.589,16.689 -1.297,3.257 -2.628,6.501 -3.978,9.737 -0.716,1.719 -2.04,2.395 -3.848,1.927 -0.756,-0.196 -1.531,-0.524 -2.154,-0.985 -1.022,-0.756 -1.983,-1.619 -2.859,-2.541 -0.46,-0.483 -0.815,-1.153 -0.994,-1.801 -0.846,-3.044 -0.326,-6.007 0.836,-8.855 3.16,-7.746 6.36,-15.476 9.589,-23.194 0.735,-1.757 1.402,-3.625 2.525,-5.123 3.63,-4.844 7.451,-9.546 11.213,-14.29 2.675,-3.374 5.388,-6.717 8.053,-10.098 0.538,-0.681 1.109,-1.413 1.373,-2.218 0.717,-2.184 1.264,-4.423 1.904,-6.634 2.168,-7.492 4.208,-15.024 6.598,-22.444 0.815,-2.529 0.681,-4.833 0.126,-7.249 -0.195,-0.849 -0.623,-1.642 -0.879,-2.481 -0.744,-2.436 -1.847,-4.842 -2.1,-7.332 -0.594,-5.846 -1.835,-11.639 -1.362,-17.594 0.422,-5.326 0.519,-10.678 0.719,-16.019 0.044,-1.167 -0.024,-2.346 -0.144,-3.509 -0.164,-1.575 0.57,-2.675 2.139,-2.894 0.707,-0.098 1.437,-0.03 2.156,-0.047 3.343,-0.081 6.686,-0.165 10.353,-0.257 m 72.943,27.083 c 0.934,1.593 1.725,2.877 2.453,4.196 1.568,2.84 4.483,3.295 7.06,3.055 C -12.52,9.821 -9.199,7.675 -7.232,4.098 -6.387,2.559 -5.41,2.193 -3.821,2.197 1.452,2.208 6.724,2.068 11.998,2.03 26.942,1.924 41.886,1.839 56.831,1.747 c 0.78,-0.005 1.561,-0.001 2.171,-0.001 0.697,1.396 1.065,2.685 1.857,3.61 2.08,2.431 5.136,3.087 8.037,3.951 0.343,0.102 0.816,0.018 1.151,-0.141 2.505,-1.194 5.218,-2.106 6.611,-4.839 0.39,-0.764 0.873,-1.486 1.364,-2.191 0.216,-0.31 0.54,-0.732 0.846,-0.761 2.337,-0.22 4.682,-0.356 7.215,-0.532 -1.788,23.52 -3.55,46.705 -5.316,69.93 -0.665,0.081 -1.131,0.179 -1.599,0.188 -3.993,0.08 -7.987,0.16 -11.98,0.207 -8.708,0.104 -17.416,0.208 -26.124,0.278 -10.87,0.087 -21.74,0.12 -32.609,0.213 -5.99,0.051 -11.978,0.214 -17.967,0.262 -11.509,0.094 -23.019,0.146 -34.528,0.202 -0.602,0.002 -1.205,-0.123 -2.123,-0.223 3.338,-23.065 6.646,-45.924 9.98,-68.962 z m 579.752,89.788 c -0.691,-0.295 -0.888,-0.413 -1.101,-0.464 -2.089,-0.494 -4.266,-0.751 -6.254,-1.507 -5.437,-2.069 -10.792,-4.358 -16.189,-6.532 -0.811,-0.327 -1.666,-0.613 -2.526,-0.725 -1.682,-0.22 -2.313,0.696 -1.703,2.293 0.995,2.608 1.948,5.233 2.958,7.835 1.472,3.789 2.963,7.569 4.479,11.34 0.435,1.081 0.671,2.104 -0.035,3.161 -1.273,1.906 -2.357,3.973 -3.859,5.673 -0.745,0.843 -2.21,1.303 -3.406,1.443 -3.364,0.394 -6.286,-1.298 -7.685,-4.495 -2.455,-5.61 -4.747,-11.29 -7.116,-16.938 -2.209,-5.27 -4.4,-10.549 -6.66,-15.798 -0.867,-2.015 -1.572,-3.991 -0.831,-6.214 0.172,-0.515 0.056,-1.119 0.172,-1.66 0.986,-4.557 4.627,-9.274 10.71,-6.863 5.185,2.056 10.626,3.465 15.96,5.14 0.909,0.286 1.841,0.529 2.78,0.688 1.648,0.277 3.372,-1.44 3.042,-3.072 -1.279,-6.326 -2.598,-12.645 -3.913,-18.964 -2.336,-11.236 -4.7,-22.467 -7.013,-33.708 -2.458,-11.947 -4.858,-23.906 -7.308,-35.855 -1.857,-9.057 -3.667,-18.125 -5.673,-27.15 -0.796,-3.58 0.788,-6.146 3.185,-8.165 3.822,-3.221 10.599,-0.885 12.041,4.085 1.973,6.806 3.699,13.683 5.577,20.517 1.455,5.298 2.987,10.575 4.472,15.865 2.498,8.89 4.973,17.786 7.482,26.673 0.472,1.667 1.057,3.302 1.619,5.045 1.846,-0.125 3.542,-0.241 5.064,-0.345 0.222,-1.826 0.638,-3.386 0.557,-4.92 -0.283,-5.333 -0.717,-10.659 -1.135,-15.984 -0.543,-6.912 -1.146,-13.819 -1.683,-20.731 -0.686,-8.822 -1.324,-17.648 -1.998,-26.471 -0.208,-2.715 1.253,-4.754 3.863,-5.509 4.803,-1.39 10.168,2.634 10.527,6.801 0.465,5.38 1.436,10.716 2.208,16.068 0.577,4.002 1.23,7.993 1.766,12 0.476,3.555 0.819,7.128 1.253,10.688 0.926,7.598 2.015,15.18 2.767,22.795 0.653,6.603 1.798,13.112 3.052,19.61 2.508,12.995 5.098,25.973 7.554,38.977 0.523,2.77 1.563,5.036 3.637,7.038 5.692,5.498 11.253,11.134 16.791,16.789 3.282,3.351 6.496,6.776 9.591,10.299 1.46,1.665 2.84,3.514 3.768,5.507 1.135,2.439 1.778,5.11 2.597,7.693 1.831,5.781 3.587,11.588 5.475,17.35 1.268,3.868 2.744,7.668 4.065,11.519 0.722,2.108 0.973,4.292 -0.606,6.126 -1.293,1.503 -2.738,2.9 -4.266,4.163 -0.765,0.633 -1.829,0.991 -2.818,1.249 -2.312,0.604 -3.762,-0.272 -4.547,-2.527 -1.493,-4.296 -3.025,-8.579 -4.508,-12.877 -2.842,-8.232 -5.634,-16.48 -8.524,-24.695 -0.38,-1.082 -1.059,-2.156 -1.864,-2.974 -3.25,-3.302 -6.605,-6.502 -9.92,-9.74 -3.544,-3.461 -7.077,-6.934 -10.642,-10.374 -0.624,-0.602 -1.348,-1.117 -2.086,-1.576 -0.372,-0.232 -0.895,-0.393 -1.318,-0.337 -1.563,0.206 -3.113,0.517 -5.219,0.885 1.194,0.906 1.975,1.531 2.788,2.111 0.904,0.644 1.913,1.16 2.744,1.884 3.597,3.134 6.287,6.848 7.92,11.427 1.651,4.634 1.751,9.169 0.262,13.777 -1.05,3.253 -3.26,5.755 -5.472,8.28 -3.918,4.471 -8.814,6.215 -14.588,5.333 -10.115,-1.546 -18.101,-10.616 -19.341,-20.779 -0.328,-2.688 -0.169,-5.414 1.281,-7.886 0.466,-0.793 0.875,-1.641 1.169,-2.511 0.952,-2.817 2.345,-5.38 4.299,-7.616 0.611,-0.7 1.364,-1.276 2.332,-2.165 M 203.124,-53.875 c 1.809,0 3.378,0.089 4.925,-0.055 0.458,-0.043 1.085,-0.674 1.23,-1.158 0.294,-0.976 0.325,-2.035 0.441,-3.062 0.563,-4.977 1.096,-9.957 1.682,-14.932 0.932,-7.902 1.9,-15.801 2.85,-23.702 0.731,-6.081 1.485,-12.16 2.177,-18.246 0.404,-3.554 0.632,-7.131 1.089,-10.678 0.199,-1.546 0.547,-3.156 1.228,-4.541 1.596,-3.249 4.617,-4.254 7.977,-4.266 2.812,-0.009 6.36,2.205 6.852,4.434 0.561,2.548 0.962,5.196 0.935,7.794 -0.047,4.607 -0.515,9.207 -0.723,13.814 -0.385,8.505 -0.683,17.013 -1.069,25.517 -0.162,3.571 -0.502,7.133 -0.681,10.704 -0.208,4.127 -0.316,8.258 -0.492,12.387 -0.196,4.619 -0.523,9.235 -0.593,13.855 -0.044,2.944 0.393,5.891 0.411,8.839 0.047,8.048 0.005,16.097 -0.039,24.145 -0.03,5.33 -0.056,10.661 -0.233,15.986 -0.043,1.317 0.256,1.895 1.534,2.147 2.961,0.585 5.904,1.272 8.858,1.9 4.904,1.041 9.815,2.052 14.716,3.106 3.257,0.701 6.497,1.474 9.753,2.18 4.037,0.876 6.975,2.91 7.824,7.229 0.858,4.372 1.725,8.742 2.593,13.112 0.648,3.273 1.255,6.555 1.967,9.814 0.765,3.492 1.648,6.957 2.439,10.443 0.1,0.441 0.108,1.021 -0.099,1.393 -1.086,1.946 -2.118,3.947 -3.432,5.735 -1.353,1.838 -6.409,2.632 -8.393,1.538 -0.273,-0.15 -0.551,-0.356 -0.729,-0.605 -1.871,-2.601 -4.199,-4.759 -4.78,-8.317 -0.985,-6.027 -2.692,-11.933 -4.007,-17.91 -0.443,-2.017 -1.048,-3.669 -3.515,-3.694 -0.468,-0.004 -0.931,-0.218 -1.402,-0.306 -6.653,-1.252 -13.313,-2.47 -19.959,-3.762 -2.785,-0.541 -5.481,-0.515 -8.203,0.4 -3.233,1.088 -6.411,2.514 -9.999,1.946 -0.442,-0.07 -1.186,0.476 -1.435,0.931 -0.172,0.314 0.126,1.108 0.461,1.434 0.967,0.945 2.079,1.739 3.099,2.632 3.435,3.007 6.118,6.496 6.856,11.149 0.471,2.975 1.053,5.954 1.22,8.951 0.449,8.072 -2.346,14.845 -8.721,19.951 -9.271,7.425 -20.802,5.596 -28.018,-2.599 -2.79,-3.168 -4.155,-6.874 -5.1,-10.904 C 183.103,54.393 182.927,48.1 185.97,42 c 1.655,-3.319 3.654,-6.317 7.132,-8.042 0.92,-0.457 1.802,-1.072 2.541,-1.782 0.451,-0.434 0.811,-1.18 0.827,-1.796 0.021,-0.849 -0.741,-1.107 -1.533,-1.155 -1.193,-0.073 -2.383,-0.258 -3.574,-0.265 -2.266,-0.012 -4.419,-0.306 -6.413,-1.529 -1.357,-0.832 -2.786,-1.603 -4.275,-2.151 -3.363,-1.237 -5.743,-3.636 -7.925,-6.313 -0.449,-0.55 -1,-1.076 -1.254,-1.714 -0.913,-2.29 -1.746,-4.614 -2.559,-6.942 -2.283,-6.539 -4.34,-13.165 -6.874,-19.605 -2.042,-5.191 -3.009,-10.535 -3.571,-16.009 -0.593,-5.775 -1.172,-11.552 -1.715,-17.332 -0.254,-2.694 -0.606,-5.4 -0.553,-8.094 0.059,-2.995 2.325,-5.6 5.1,-6.199 4.119,-0.889 6.623,0.059 8.469,2.671 1.05,1.487 1.025,3.12 1.264,4.759 0.951,6.535 1.933,13.065 2.919,19.595 0.475,3.148 0.821,6.312 2.083,9.304 1.142,2.707 2.063,5.507 3.117,8.252 0.087,0.228 0.448,0.352 0.99,0.75 0.15,-0.952 0.334,-1.619 0.349,-2.289 0.164,-7.464 0.251,-14.93 0.465,-22.393 0.125,-4.36 0.461,-8.713 0.663,-13.07 0.08,-1.732 0.107,-3.47 0.063,-5.203 -0.109,-4.376 -0.289,-8.75 -0.412,-13.126 -0.179,-6.439 -0.358,-12.878 -0.487,-19.319 -0.062,-3.079 -0.011,-6.16 -0.011,-9.211 1.634,-1.091 3.125,-2.175 4.702,-3.114 1.752,-1.045 3.127,-2.433 4.332,-4.053 1.949,-2.622 3.951,-5.202 5.942,-7.792 0.424,-0.55 0.895,-1.065 1.705,-2.022 1.906,20.022 3.764,39.539 5.647,59.314 M 63.229,-172.534 c 1.389,0.176 2.497,0.564 3.517,0.399 3.359,-0.542 6.674,-0.464 9.977,0.268 1.929,0.427 2.505,1.245 2.405,3.203 -0.154,3.026 -0.288,6.051 -0.48,9.074 -0.111,1.745 -0.126,3.529 -0.519,5.217 -1.446,6.208 -2.928,12.414 -4.605,18.562 -1.13,4.146 -2.455,8.256 -3.981,12.272 -1.605,4.228 -3.548,8.328 -5.351,12.48 -1.237,2.851 -2.251,5.834 -3.804,8.502 -1.28,2.199 -1.796,4.379 -1.679,6.83 0.177,3.664 0.34,7.329 0.472,10.996 0.181,5.023 0.199,10.058 0.558,15.069 0.126,1.755 0.753,3.64 1.678,5.14 1.962,3.177 4.308,6.116 6.428,9.199 3.337,4.854 6.795,9.638 9.867,14.657 2.347,3.832 3.691,8.039 3.045,12.739 -0.877,6.384 -1.525,12.8 -2.233,19.206 -0.376,3.394 -0.65,6.776 -3.077,9.534 C 74.618,1.756 74.155,3.012 73.412,4.044 73.01,4.603 72.434,5.107 71.828,5.437 69.337,6.793 64.677,5.68 62.971,3.364 62.74,3.051 62.512,2.667 62.47,2.295 62.206,-0.061 60.934,-2.23 61.184,-4.677 c 0.136,-1.342 0.311,-2.68 0.402,-4.024 0.463,-6.833 0.831,-13.674 1.401,-20.498 0.161,-1.936 -0.123,-3.462 -1.288,-5.084 -3.387,-4.721 -6.673,-9.523 -9.794,-14.423 -1.532,-2.405 -3.234,-4.289 -6.149,-4.838 -0.685,-0.129 -1.285,-0.699 -1.97,-0.84 -1.545,-0.319 -3.113,-0.548 -4.683,-0.688 -0.327,-0.03 -0.906,0.429 -0.996,0.763 -0.086,0.319 0.215,0.892 0.519,1.14 1.548,1.261 3.245,2.352 4.711,3.697 1.459,1.338 2.98,2.74 3.988,4.408 2.014,3.33 3.96,6.751 4.475,10.735 0.031,0.235 0.111,0.468 0.203,0.688 1.434,3.409 1.29,6.997 0.798,10.497 -0.582,4.137 -2.391,7.833 -5.066,11.108 -3.589,4.395 -7.972,7.588 -13.514,8.942 -7.406,1.809 -13.841,0.046 -19.193,-5.51 -2.326,-2.415 -3.498,-5.472 -5.022,-8.348 -2.013,-3.796 -3.383,-7.726 -3.102,-12.101 0.281,-4.363 1.118,-8.517 4.05,-11.997 1.851,-2.198 3.634,-4.454 5.406,-6.718 1.196,-1.528 1.26,-2.245 0.411,-2.853 -0.818,-0.586 -1.468,-0.29 -2.726,1.174 -5.835,6.793 -11.248,13.898 -16.083,21.444 -0.844,1.318 -1.326,2.679 -1.628,4.182 -1.599,7.969 -3.141,15.952 -4.907,23.885 -0.902,4.053 -3.772,6.455 -7.795,7.149 -1.293,0.224 -3.124,-0.07 -4.056,-0.88 -2.16,-1.878 -3.083,-4.688 -3.021,-7.462 0.07,-3.168 0.779,-6.323 1.23,-9.481 1.104,-7.738 2.216,-15.475 3.33,-23.211 0.472,-3.281 1.321,-6.34 3.792,-8.832 2.521,-2.541 4.792,-5.33 7.177,-8.006 4.878,-5.473 9.776,-10.929 14.62,-16.432 0.598,-0.68 1.077,-1.555 1.342,-2.423 0.767,-2.514 1.367,-5.079 2.088,-7.608 2.294,-8.044 4.618,-16.079 6.92,-24.121 0.5,-1.747 0.344,-3.362 -0.463,-5.085 -3.16,-6.746 -5.593,-13.771 -6.789,-21.133 -0.969,-5.975 -1.825,-11.994 -2.225,-18.026 -0.406,-6.13 -0.24,-12.301 -0.222,-18.453 0.006,-1.824 0.305,-3.654 0.567,-5.468 0.28,-1.941 0.79,-2.453 2.686,-2.845 0.696,-0.144 1.424,-0.176 2.137,-0.18 3.359,-0.018 6.717,-0.009 10.076,-0.009 h 2.647 c 0.307,-1.34 0.619,-2.404 0.786,-3.491 0.461,-2.992 0.789,-6.006 1.302,-8.988 1.131,-6.588 2.432,-13.148 3.482,-19.747 0.487,-3.064 2.139,-4.897 4.927,-5.863 3.131,-1.084 6.952,0.746 7.439,3.648 0.619,3.682 0.378,7.368 0.089,11.051 -0.147,1.878 -0.404,3.747 -0.593,5.622 -0.325,3.219 -0.669,6.437 -0.94,9.662 -0.218,2.591 -0.339,5.191 -0.514,7.951 h 6.329 c 0.44,-2.553 0.891,-4.973 1.27,-7.405 1.302,-8.341 2.58,-16.687 3.865,-25.031 0.329,-2.134 1.2,-3.93 3.077,-5.148 3.421,-2.22 8.523,-1.034 9.547,3.391 0.799,3.457 1.76,6.783 0.867,10.335 -0.057,0.227 0.007,0.481 -0.021,0.718 -0.68,5.857 -1.334,11.717 -2.068,17.567 -0.226,1.791 -0.676,3.554 -1.083,5.636 m 213.06,351.607 v 0.086 c -0.958,0 -1.915,-0.011 -2.873,0.002 -10.939,0.141 -21.877,0.299 -32.816,0.423 -9.495,0.108 -18.99,0.171 -28.485,0.269 -6.784,0.07 -13.568,0.18 -20.352,0.233 -1.026,0.008 -2.099,-0.047 -3.071,-0.34 -4.372,-1.317 -6.692,-4.532 -6.658,-9.378 0.034,-5.014 0.249,-10.028 0.358,-15.042 0.123,-5.661 0.204,-11.323 0.326,-16.984 0.131,-6.05 0.296,-12.098 0.431,-18.148 0.058,-2.543 0.093,-5.087 0.108,-7.631 0.018,-3.215 1.474,-5.668 4.06,-7.434 0.735,-0.501 1.732,-0.826 2.622,-0.858 4.707,-0.171 9.418,-0.255 14.128,-0.308 8.391,-0.092 16.784,-0.13 25.176,-0.211 8.148,-0.079 16.297,-0.194 24.445,-0.273 8.472,-0.081 16.943,-0.126 25.414,-0.207 8.309,-0.079 16.617,-0.194 24.926,-0.272 8.712,-0.082 17.424,-0.155 26.135,-0.199 5.997,-0.031 11.995,0.026 17.992,-0.018 3.591,-0.027 7.18,-0.175 10.77,-0.265 1.406,-0.035 2.701,0.259 3.725,1.308 1.769,1.813 3.002,3.836 3.115,6.495 0.143,3.332 0.481,6.657 0.739,9.985 0.408,5.24 0.864,10.477 1.219,15.721 0.486,7.15 0.887,14.306 1.34,21.458 0.241,3.816 0.57,7.628 0.763,11.446 0.22,4.373 -3.335,9.458 -8.491,9.403 -3.909,-0.041 -7.819,0.083 -11.728,0.133 -15.727,0.202 -31.451,0.442 -47.178,0.591 -8.713,0.083 -17.427,0.015 -26.14,0.015 m 84.048,-213.892 c 2.96,-0.164 5.819,-0.411 8.68,-0.466 10.541,-0.199 21.084,-0.357 31.626,-0.488 7.354,-0.091 14.709,-0.09 22.064,-0.178 2.948,-0.035 5.894,-0.255 8.842,-0.294 6.794,-0.089 13.589,-0.108 20.384,-0.184 1.08,-0.012 1.679,0.331 2.197,1.381 0.84,1.702 1.83,3.392 3.058,4.827 2.756,3.217 6.241,5.401 10.604,5.006 2.945,-0.267 5.871,-0.903 8.031,-3.568 1.429,-1.763 2.156,-3.678 2.842,-5.71 0.301,-0.893 0.619,-1.646 1.518,-2.294 1.803,-1.301 3.684,-0.947 5.673,-1.013 4.527,29.781 9.031,59.406 13.552,89.145 -2.453,0.154 -4.665,0.363 -6.881,0.418 -7.744,0.193 -15.49,0.332 -23.235,0.493 -7.586,0.159 -15.171,0.321 -22.756,0.479 -7.826,0.162 -15.652,0.319 -23.476,0.482 -7.506,0.156 -15.011,0.325 -22.517,0.476 -11.579,0.233 -23.159,0.468 -34.738,0.679 -6.55,0.119 -13.101,0.158 -19.65,0.296 -4.787,0.101 -9.572,0.311 -14.359,0.458 -1.014,0.032 -2.03,0.005 -3.291,0.005 -1.713,-29.886 -3.411,-59.464 -5.118,-89.22 3.265,-0.349 6.323,-0.676 9.41,-1.006 0.691,1.334 1.365,2.51 1.923,3.737 2.471,5.43 7.27,7.462 12.618,7.493 4.773,0.027 9.004,-2.031 11.101,-6.921 0.564,-1.317 1.219,-2.595 1.898,-4.033 m -185.89,-145.156 c 0.701,-0.672 1.303,-1.199 1.847,-1.78 11.1,-11.883 6.551,-29.489 -7.44,-35.706 -3.563,-1.583 -7.264,-2.362 -10.819,-2.212 -0.798,-1.077 -1.37,-1.934 -2.026,-2.721 -4.089,-4.907 -8.213,-9.784 -12.29,-14.7 -1.841,-2.221 -3.628,-4.471 -6.523,-5.414 -0.905,-0.295 -1.154,-1.002 -1.095,-1.897 0.17,-2.623 0.07,-5.291 0.527,-7.862 0.937,-5.275 1.176,-10.57 1.13,-15.901 -0.061,-7.04 -0.135,-14.079 -0.159,-21.119 -0.033,-9.762 -0.05,-19.525 -0.023,-29.288 0.014,-4.993 0.166,-9.985 0.203,-14.977 0.04,-5.407 0.034,-10.816 0.018,-16.223 -0.007,-2.433 1.139,-4.32 2.861,-5.83 3.842,-3.371 8.35,-3.814 13.017,-2.325 3.241,1.034 5.412,3.171 5.698,6.905 0.414,5.395 1.053,10.772 1.563,16.159 0.436,4.595 0.86,9.191 1.228,13.791 0.475,5.949 0.836,11.906 1.341,17.851 0.863,10.159 1.811,20.31 2.7,30.467 0.213,2.442 0.363,4.89 0.474,7.34 0.043,0.962 0.417,1.606 1.374,1.589 2.361,-0.042 4.719,-0.191 6.982,-0.293 0.224,-0.641 0.381,-0.933 0.425,-1.242 0.483,-3.385 0.899,-6.779 1.427,-10.157 1.388,-8.89 2.83,-17.771 4.238,-26.657 1.756,-11.085 3.518,-22.169 5.238,-33.26 0.744,-4.802 1.352,-9.626 2.096,-14.428 0.364,-2.348 0.647,-4.776 2.558,-6.528 3.844,-3.525 8.347,-4.613 13.273,-3.043 3.775,1.204 6.282,3.726 6.415,8.019 0.107,3.427 0.516,6.864 0.361,10.277 -0.371,8.195 -1.015,16.378 -1.509,24.567 -0.221,3.652 -0.269,7.315 -0.539,10.962 -0.281,3.799 -0.802,7.58 -1.093,11.379 -0.268,3.5 -0.255,7.024 -0.573,10.518 -0.539,5.902 -1.24,11.79 -1.873,17.683 -0.018,0.159 -0.015,0.326 -0.064,0.475 -1.072,3.23 -0.675,6.593 -0.784,9.891 -0.15,4.517 0.064,9.043 0.026,13.565 -0.042,5.082 -0.131,10.166 -0.313,15.245 -0.148,4.135 -0.473,8.263 -0.698,12.396 -0.035,0.65 -0.405,1.417 0.565,1.987 0.347,-0.423 0.781,-0.785 1.001,-1.249 1.874,-3.949 3.58,-7.984 5.586,-11.863 2.618,-5.065 3.027,-10.675 4.243,-16.076 1.391,-6.185 2.434,-12.449 3.678,-18.669 0.324,-1.624 0.637,-3.298 1.301,-4.796 1.511,-3.413 4.614,-4.707 8.017,-5.283 5.204,-0.883 11.779,2.414 11.544,9.487 -0.078,2.306 0.08,4.621 0.083,6.931 0.002,1.349 0.029,2.716 -0.161,4.045 -0.76,5.345 -1.587,10.68 -2.419,16.014 -0.893,5.742 -1.803,11.481 -2.746,17.216 -0.166,1.012 -0.433,2.031 -0.814,2.982 -1.033,2.578 -2.15,5.123 -3.237,7.679 -3.082,7.245 -6.166,14.488 -9.246,21.732 -2.025,4.764 -3.964,9.568 -6.101,14.28 -1.168,2.575 -2.975,4.677 -5.727,5.787 -2.796,1.129 -5.526,2.436 -8.365,3.441 -4.495,1.59 -8.678,4.075 -13.494,4.764 -0.26,0.037 -0.481,0.344 -0.818,0.6 1.089,1.357 1.991,2.742 3.146,3.867 2.474,2.406 3.838,5.36 4.955,8.559 0.911,2.607 1.116,5.282 1.402,7.958 0.346,3.243 0.605,6.501 0.754,9.759 0.189,4.1 -0.515,7.89 -2.918,11.486 -3.948,5.907 -7.949,11.6 -14.89,14.334 -0.443,0.175 -0.872,0.405 -1.276,0.66 -2.535,1.602 -5.257,2.398 -8.289,2.583 -3.775,0.232 -7.452,0.2 -11.113,-0.912 -8.075,-2.452 -14.093,-7.333 -17.474,-15.083 -1.292,-2.961 -1.947,-6.216 -2.73,-9.376 -1.61,-6.505 -2.352,-13.005 0.145,-19.519 1.772,-4.622 4.262,-8.695 8.045,-11.942 0.816,-0.7 1.498,-1.556 2.39,-2.497 -0.684,-0.304 -1.09,-0.526 -1.521,-0.672 -2.656,-0.897 -5.254,-1.939 -7.385,-3.804 -0.871,-0.762 -1.67,-1.727 -2.18,-2.758 -1.45,-2.931 -2.722,-5.948 -4.089,-8.921 -0.513,-1.117 -1.092,-2.205 -1.88,-3.782 1.779,0.373 3.001,0.641 4.228,0.883 2.222,0.437 4.452,0.525 6.592,-0.309 0.472,-0.184 0.996,-0.859 1.049,-1.357 0.089,-0.831 -0.604,-1.22 -1.414,-1.277 -0.238,-0.016 -0.506,-0.068 -0.715,0.013 -2.751,1.071 -5.366,0.014 -7.98,-0.568 -3.377,-0.751 -4.467,-2.076 -4.934,-5.519 -0.075,-0.554 -0.122,-1.113 -0.24,-1.658 -2.168,-10.057 -4.332,-20.115 -6.525,-30.167 -0.919,-4.217 -1.448,-8.479 -1.64,-12.784 -0.102,-2.309 -0.286,-4.624 -0.195,-6.928 0.116,-2.943 1.559,-5.345 3.789,-7.183 1.291,-1.064 2.769,-1.928 4.612,-1.039 0.766,0.37 1.672,0.449 2.438,0.818 2.226,1.071 4.445,2.167 6.603,3.367 0.954,0.529 1.901,1.209 2.602,2.032 4.557,5.348 9.048,10.75 13.547,16.145 0.326,0.392 0.544,0.874 0.944,1.53 -7.322,1.558 -13.112,5.073 -17.141,11.457 -1.068,-1.324 -1.936,-2.455 -2.864,-3.534 -0.942,-1.096 -1.749,-1.302 -2.428,-0.663 -0.859,0.806 -0.445,1.592 0.136,2.324 0.893,1.126 1.742,2.297 2.737,3.327 0.836,0.866 0.958,1.679 0.586,2.805 -3.691,11.189 2.004,22.49 12.659,27.308 0.571,0.258 1.139,0.521 1.676,0.767 0.149,0.742 0.32,1.359 0.393,1.988 0.507,4.356 0.983,8.715 1.5,13.07 0.083,0.699 0.147,1.495 0.518,2.047 2.228,3.31 4.905,6.168 9.01,6.994 2.167,0.436 4.606,1.105 6.591,0.53 3.868,-1.121 7.111,-3.466 8.916,-7.381 0.764,-1.657 1.079,-3.213 0.715,-5.059 -1.066,-5.399 -1.955,-10.834 -2.946,-16.444 m 200.859,77.872 c -2.55,2.378 -5.231,4.864 -7.895,7.368 -5.055,4.752 -10.081,9.536 -15.165,14.256 -0.984,0.913 -1.312,1.737 -1.01,3.127 0.676,3.102 1.082,6.262 1.587,9.4 1.569,9.749 3.139,19.498 4.688,29.25 0.123,0.78 0.287,1.647 0.076,2.37 -1.343,4.623 -3.336,8.717 -8.846,9.441 -2.771,0.365 -5.44,-0.147 -7.819,-1.561 -3.375,-2.006 -4.761,-5.644 -5.777,-9.003 -1.488,-4.929 -2.046,-10.143 -2.954,-15.243 -1.285,-7.22 -2.473,-14.458 -3.814,-21.667 -0.67,-3.606 -1.275,-7.167 -0.957,-10.88 0.357,-4.144 1.154,-7.901 4.411,-10.949 7.263,-6.8 14.317,-13.823 21.519,-20.688 3.405,-3.245 6.958,-6.334 10.439,-9.499 0.759,-0.691 1.611,-1.293 1.419,-2.573 -0.238,-1.571 -0.333,-3.163 -0.498,-4.746 -0.891,-8.551 -1.784,-17.102 -2.677,-25.654 -0.454,-4.355 -0.939,-8.708 -1.358,-13.067 -0.358,-3.728 -1.014,-7.477 -0.873,-11.192 0.207,-5.468 -0.899,-10.77 -1.358,-16.148 -0.296,-3.474 -1.09,-6.902 -1.574,-10.363 -0.409,-2.914 -0.65,-5.85 -1.04,-8.766 -0.699,-5.21 -1.475,-10.409 -2.18,-15.618 -0.963,-7.104 -1.896,-14.211 -2.831,-21.319 -0.51,-3.87 -0.803,-7.782 -1.543,-11.607 -1.257,-6.491 -1.354,-12.978 -0.491,-19.492 0.15,-1.133 0.605,-2.357 1.285,-3.265 3.206,-4.281 7.934,-4.866 12.422,-3.479 3.627,1.12 5.809,3.564 6.536,7.452 0.905,4.849 2.171,9.631 3.217,14.456 0.794,3.662 1.443,7.354 2.232,11.017 1.188,5.515 2.457,11.011 3.663,16.522 1.278,5.838 2.518,11.685 3.784,17.526 1.298,5.985 2.595,11.97 3.922,17.947 0.411,1.855 0.918,3.688 1.391,5.569 2.704,0.486 5.169,0.101 7.813,-0.33 0,-3.526 -0.01,-6.923 0.002,-10.32 0.023,-5.752 0.047,-11.503 0.094,-17.255 0.03,-3.623 0.112,-7.246 0.156,-10.869 0.033,-2.734 0.057,-5.469 0.059,-8.205 0.001,-2.282 -0.096,-4.565 -0.04,-6.845 0.091,-3.656 0.349,-7.309 0.39,-10.964 0.033,-2.911 -0.322,-5.832 -0.206,-8.737 0.157,-3.878 0.499,-7.758 0.963,-11.614 0.263,-2.193 1.325,-4.041 3.3,-5.318 2.877,-1.861 5.911,-2.143 9.186,-1.413 3.64,0.81 7.706,3.877 7.792,8.702 0.112,6.36 0.671,12.715 1.105,19.067 0.49,7.157 1.085,14.309 1.581,21.467 0.475,6.834 0.901,13.672 1.31,20.511 0.299,4.996 0.545,9.995 0.795,14.993 0.187,3.74 0.194,7.495 0.549,11.218 0.484,5.071 1.226,10.118 1.852,15.176 0.715,5.769 1.436,11.537 2.131,17.307 0.905,7.513 1.786,15.028 2.682,22.542 0.5,4.192 0.985,8.385 1.535,12.57 0.143,1.088 0.5,2.025 1.528,2.811 6.403,4.896 12.722,9.905 19.072,14.871 7.798,6.096 15.582,12.209 23.417,18.256 1.435,1.107 2.181,2.517 2.495,4.187 0.142,0.756 -0.099,1.577 -0.077,2.365 0.24,8.442 0.551,16.882 0.732,25.325 0.121,5.673 -0.104,11.356 0.137,17.021 0.199,4.658 -0.897,9.005 -2.337,13.319 -1.298,3.889 -4.301,5.023 -8.168,5.223 -2.681,0.139 -4.696,-1.151 -6.597,-2.847 -2.985,-2.664 -4.626,-6.138 -5.408,-9.881 -0.579,-2.769 -0.376,-5.715 -0.406,-8.583 -0.088,-8.632 -0.172,-17.266 -0.131,-25.898 0.008,-1.867 -0.515,-3.128 -2.042,-4.234 -3.812,-2.766 -7.511,-5.687 -11.266,-8.532 -6.235,-4.724 -12.485,-9.428 -18.709,-14.168 -0.937,-0.713 -1.793,-0.96 -2.814,-0.213 -0.488,0.357 -1.047,0.617 -1.834,1.07 0.462,0.333 0.729,0.51 0.979,0.708 7.262,5.757 11.397,13.308 12.407,22.454 1.258,11.404 -1.96,21.383 -10.357,29.401 -5.191,4.955 -11.494,7.584 -18.684,7.446 -9.37,-0.18 -16.768,-4.512 -22.163,-11.985 -10.012,-13.867 -8.413,-32.632 3.191,-45.243 0.284,-0.308 0.427,-0.747 0.708,-1.252 -2.893,-0.745 -5.567,-1.432 -8.653,-2.226 m 353.77,259.145 V -488.364 H -270.52 c -0.015,1.359 -0.043,2.717 -0.043,4.075 -0.002,202.877 -0.002,405.755 -0.002,608.632 0,0.72 0.079,1.449 -0.015,2.157 -0.184,1.387 0.481,2.263 1.543,2.993 1.642,1.129 3.266,2.285 4.89,3.441 11.314,8.057 22.632,16.109 33.938,24.178 13.381,9.549 26.74,19.131 40.131,28.667 11.314,8.057 22.673,16.05 33.987,24.107 12.487,8.894 24.936,17.841 37.418,26.741 11.113,7.926 22.248,15.822 33.376,23.726 8.4,5.966 16.807,11.922 25.208,17.886 11,7.81 22,15.618 32.984,23.449 0.576,0.411 1.42,0.691 1.497,1.75 -3.241,0 -6.358,0.062 -9.469,-0.042 -0.808,-0.028 -1.683,-0.446 -2.384,-0.905 -5.003,-3.271 -9.96,-6.611 -14.947,-9.906 -14.05,-9.28 -28.119,-18.533 -42.16,-27.826 -10.925,-7.231 -21.815,-14.511 -32.727,-21.759 -9.782,-6.498 -19.567,-12.989 -29.358,-19.472 -10.993,-7.278 -22.002,-14.533 -32.99,-21.82 -6.59,-4.37 -13.142,-8.797 -19.731,-13.169 -8.32,-5.521 -16.668,-10.999 -24.99,-16.517 -11.519,-7.638 -23.023,-15.297 -34.539,-22.938 -0.371,-0.246 -0.806,-0.396 -1.584,-0.77 -0.028,1.95 -0.005,3.592 -0.091,5.228 -0.057,1.096 0.403,1.697 1.312,2.299 11.252,7.449 22.455,14.971 33.701,22.43 9.683,6.422 19.406,12.783 29.105,19.183 1.865,1.231 3.678,2.543 5.544,3.775 6.307,4.165 12.636,8.299 18.94,12.468 5.325,3.522 10.634,7.069 15.94,10.619 7.032,4.703 14.031,9.454 21.085,14.122 9.653,6.388 19.365,12.689 29.012,19.085 4.983,3.304 9.841,6.796 14.828,10.092 9.648,6.376 19.361,12.654 29.022,19.011 6.535,4.3 12.971,8.753 19.561,12.965 3.407,2.178 6.699,4.528 10.352,6.37 2.812,1.418 5.188,3.699 7.758,5.595 h 586.897 c 0.559,-0.537 1.063,-1.149 1.685,-1.599 5.012,-3.633 10.067,-7.21 15.072,-10.854 4.762,-3.467 9.474,-7.001 14.217,-10.495 6.604,-4.867 13.214,-9.728 19.826,-14.584 7.2,-5.287 14.405,-10.566 21.61,-15.848 6.623,-4.856 13.248,-9.708 19.871,-14.564 10.615,-7.781 21.221,-15.575 31.845,-23.342 4.112,-3.006 8.297,-5.915 12.395,-8.94 5.834,-4.305 11.6,-8.703 17.432,-13.012 5.518,-4.076 11.074,-8.098 16.63,-12.122 1.98,-1.434 4.008,-2.802 6.014,-4.201 v -7.678 c -2.668,2.028 -5.308,4.093 -8.008,6.076 -10.173,7.472 -20.374,14.905 -30.548,22.377 -12.877,9.457 -25.728,18.949 -38.607,28.404 -10.429,7.657 -20.89,15.27 -31.322,22.923 -6.374,4.675 -12.705,9.409 -19.084,14.076 -8.377,6.128 -16.794,12.2 -25.172,18.326 -7.395,5.408 -14.777,10.836 -22.127,16.306 -1.547,1.151 -3.125,1.73 -5.084,1.595 -2.229,-0.153 -4.476,-0.027 -6.715,-0.047 -0.503,-0.005 -1.006,-0.109 -1.905,-0.212 0.874,-0.721 1.401,-1.181 1.955,-1.606 3.484,-2.674 6.998,-5.309 10.457,-8.015 7.42,-5.806 14.795,-11.673 22.225,-17.468 8.437,-6.578 16.921,-13.095 25.369,-19.658 5.546,-4.31 11.064,-8.658 16.598,-12.982 8.621,-6.735 17.249,-13.462 25.869,-20.198 10.508,-8.212 21.004,-16.438 31.52,-24.639 8.183,-6.382 16.396,-12.727 24.584,-19.104 4.157,-3.239 8.278,-6.523 12.431,-9.766 5.847,-4.564 11.708,-9.109 17.564,-13.663" />
          </g>
          <g
             transform="translate(999.6863,658.8424)"
             id="g891">
            <path
               inkscape:connector-curvature="0"
               id="path893"
               style="fill:#000000;fill-opacity:1;fill-rule:nonzero;stroke:none"
               d="M 0,0 V 0.48 Z" />
          </g>
          <g
             transform="translate(994.4861,662.9449)"
             id="g895">
            <path
               inkscape:connector-curvature="0"
               id="path897"
               style="fill:#000000;fill-opacity:1;fill-rule:nonzero;stroke:none"
               d="M 0,0 C -0.005,0.094 -0.011,0.188 -0.016,0.282 -0.063,0.253 -0.112,0.223 -0.16,0.194 -0.125,0.151 -0.091,0.108 -0.057,0.065 Z" />
          </g>
          <g
             transform="translate(994.4295,663.0104)"
             id="g899">
            <path
               inkscape:connector-curvature="0"
               id="path901"
               style="fill:#000000;fill-opacity:1;fill-rule:nonzero;stroke:none"
               d="M 0,0 0.123,0.018 C 0.097,-0.006 0.07,-0.029 0.051,-0.059 0.057,-0.065 0,0 0,0" />
          </g>
          <g
             transform="translate(998.3602,660.0465)"
             id="g903">
            <path
               inkscape:connector-curvature="0"
               id="path905"
               style="fill:#000000;fill-opacity:1;fill-rule:nonzero;stroke:none"
               d="M 0,0 0.178,0.067 0.163,-0.098 Z" />
          </g>
          <g
             transform="translate(435.4041,300.3937)"
             id="g907">
            <path
               inkscape:connector-curvature="0"
               id="path909"
               style="fill:#000000;fill-opacity:1;fill-rule:nonzero;stroke:none"
               d="m 0,0 c -1.397,0.915 -2.666,2.086 -4.163,2.657 -3.495,1.334 -6.187,-1.026 -5.805,-4.636 1.713,0.075 3.413,0.271 5.099,0.188 1.824,-0.09 2.979,-1.481 4.263,-2.953 C -0.386,-3.021 -0.207,-1.621 0,0 m -10.271,-11.2 c -0.118,0.215 -0.236,0.43 -0.354,0.646 -0.234,0.67 -0.549,1.325 -0.685,2.013 -0.282,1.43 -0.304,2.827 1.151,3.743 -0.106,-0.374 -0.214,-0.748 -0.317,-1.123 -0.587,-2.131 -0.139,-3.685 1.349,-4.681 1.81,-1.21 4.238,-1.125 5.787,0.281 1.077,0.978 1.525,2.209 1.128,3.673 -0.647,2.385 -3.334,3.755 -5.668,2.851 -0.808,-0.312 -1.577,-0.726 -2.361,-1.093 1.672,2.232 4.174,2.703 6.554,1.229 0.583,-0.36 1.156,-0.735 1.733,-1.104 0.124,-0.449 0.271,-0.892 0.371,-1.346 0.743,-3.416 -1.266,-5.928 -4.773,-5.963 -0.787,-0.008 -1.573,0.031 -2.36,0.049 -0.108,0.061 -0.216,0.124 -0.324,0.185 l 0.376,-0.132 c 1.159,-1.054 2.594,-0.55 3.828,-0.445 1.771,0.152 3.107,1.452 3.575,3.096 0.423,1.481 0.948,3.256 -0.737,4.516 -0.037,0.228 0.006,0.527 -0.124,0.67 -2.551,2.821 -8.207,2.573 -9.811,-2.079 -0.574,-1.665 -0.122,-3.019 1.354,-4.296 0.121,-0.21 0.244,-0.42 0.365,-0.63 0.047,-0.03 0.094,-0.059 0.141,-0.089 -0.037,-0.039 -0.074,-0.078 -0.111,-0.116 -0.031,0.045 -0.063,0.09 -0.087,0.145 m 4.735,-3.754 c -6.938,-0.016 -12.8,5.11 -13.276,11.61 C -19.317,3.565 -14.468,9.59 -7.653,10.52 -0.491,11.496 6.127,7.043 7.5,0.322 9.115,-7.585 2.843,-14.936 -5.536,-14.954" />
          </g>
        </g>
      </g>
    </g>
    <g
       id="g969"
       transform="matrix(0.17648592,0,0,0.14093813,82.599871,10.466002)">
      <path
         id="path935"
         d="m 252.34,574.65 123.82,-66.297 119.88,64.215 -122.85,127.67 z"
         inkscape:connector-curvature="0"
         style="fill:#445016" />
      <path
         id="path937"
         d="m 252.34,457.27 123.82,-37.146 -0.15534,88.319 -123.66,66.214 z"
         inkscape:connector-curvature="0"
         style="fill:#89a02c" />
      <path
         id="path939"
         d="M 376.16,420.12 496.04,456.7 V 572.57 L 376,508.438 Z"
         inkscape:connector-curvature="0"
         style="fill:#677821" />
      <path
         id="path941"
         d="M 373.19,700.24 496.04,572.57 V 456.7 l -123.01,71.911 z"
         inkscape:connector-curvature="0"
         style="opacity:0.75;fill:#bcd35f" />
      <path
         id="path943"
         d="m 252.34,457.27 120.69,71.345 0.15537,171.63 -120.85,-125.58 z"
         inkscape:connector-curvature="0"
         style="opacity:0.75;fill:#bcd35f" />
      <path
         id="path945"
         d="M 376.16,508.36 V 420.124"
         inkscape:connector-curvature="0"
         style="fill:#dde9af;stroke:#cdde87;stroke-width:2" />
      <path
         id="path947"
         d="m 389.27,477.05 -9.1082,31.471 -32.584,-25.863 6.1223,-21.154"
         inkscape:connector-curvature="0"
         style="fill:#f4eed7;stroke:#000000;stroke-width:2" />
      <path
         id="path949"
         d="m 252.34,574.65 123.82,-66.297 119.88,64.215"
         inkscape:connector-curvature="0"
         style="fill:none;stroke:#bcd35f;stroke-width:2" />
      <path
         id="path951"
         d="m 376.16,420.12 -123.81,37.156 120.69,71.344 123,-71.938 z m -24.312,30.5 55.719,22.875 -12.594,6.0625 -55.75,-24.406 12.625,-4.5312 z"
         inkscape:connector-curvature="0"
         style="opacity:0.75;fill:#dde9af" />
      <path
         id="path953"
         d="M 373.04,528.61 V 700.4"
         inkscape:connector-curvature="0"
         style="fill:none;stroke:#ffffff;stroke-width:2" />
      <path
         id="path955"
         d="m 252.34,457.27 120.69,71.345 123.01,-71.911"
         inkscape:connector-curvature="0"
         style="fill:none;stroke:#ffffff;stroke-width:2" />
      <path
         id="path957"
         d="M 252.34,457.27 V 574.66 L 373.03,700.4 496.04,572.57 V 456.7 L 376.16,420.12 Z"
         inkscape:connector-curvature="0"
         style="fill:url(#a);stroke:#000000;stroke-width:3;stroke-linejoin:round" />
      <path
         id="path959"
         d="m 356.31,452.47 -2.625,9.0312 35.594,15.562 2.8438,-9.9062 -35.812,-14.688 z"
         inkscape:connector-curvature="0"
         style="fill:#f4eed7" />
      <path
         id="path961"
         d="m 353.7,461.51 2.6143,-9.0331"
         inkscape:connector-curvature="0"
         style="stroke:#000000;stroke-width:2" />
      <path
         id="path963"
         d="m 392.14,467.15 -2.865,9.8993"
         inkscape:connector-curvature="0"
         style="fill:#786721;stroke:#000000;stroke-width:2" />
      <path
         id="path965"
         d="m 389.28,477.06 5.6875,2.5 12.594,-6.0625 -15.438,-6.3438 m -2.8438,9.9062 -35.594,-15.562 m 2.625,-9.0312 -4.4688,-1.8438 -12.625,4.5312 14.469,6.3438"
         inkscape:connector-curvature="0"
         style="fill:none;stroke:#ffffff" />
      <path
         id="path967"
         d="m 356.31,452.47 9.1328,-31.556 34.105,20.607 -7.4174,25.629"
         inkscape:connector-curvature="0"
         style="fill:#f4eed7;stroke:#000000;stroke-width:2;stroke-linecap:round;stroke-linejoin:round" />
    </g>
  </g>
</svg>
