<?xml version="1.0" encoding="UTF-8" standalone="no"?>
<!-- Created with Inkscape (http://www.inkscape.org/) -->

<svg
   xmlns:dc="http://purl.org/dc/elements/1.1/"
   xmlns:cc="http://creativecommons.org/ns#"
   xmlns:rdf="http://www.w3.org/1999/02/22-rdf-syntax-ns#"
   xmlns:svg="http://www.w3.org/2000/svg"
   xmlns="http://www.w3.org/2000/svg"
   xmlns:sodipodi="http://sodipodi.sourceforge.net/DTD/sodipodi-0.dtd"
   xmlns:inkscape="http://www.inkscape.org/namespaces/inkscape"
   version="1.1"
   id="svg2"
   xml:space="preserve"
   width="368.40536"
   height="301.17999"
   viewBox="0 0 368.40536 301.17999"
   sodipodi:docname="MultPoisDist.svg"
   inkscape:version="0.92.5 (2060ec1f9f, 2020-04-08)"><metadata
     id="metadata8"><rdf:RDF><cc:Work
         rdf:about=""><dc:format>image/svg+xml</dc:format><dc:type
           rdf:resource="http://purl.org/dc/dcmitype/StillImage" /><dc:title></dc:title></cc:Work></rdf:RDF></metadata><defs
     id="defs6"><clipPath
       clipPathUnits="userSpaceOnUse"
       id="clipPath20"><path
         d="M 58.105,225.51 H 271.824 V 54.99 H 58.105 Z"
         id="path18"
         inkscape:connector-curvature="0" /></clipPath><clipPath
       clipPathUnits="userSpaceOnUse"
       id="clipPath30"><path
         d="M 62,58 H 267 V 223 H 62 Z"
         id="path28"
         inkscape:connector-curvature="0" /></clipPath></defs><sodipodi:namedview
     pagecolor="#ffffff"
     bordercolor="#666666"
     borderopacity="1"
     objecttolerance="10"
     gridtolerance="10"
     guidetolerance="10"
     inkscape:pageopacity="0"
     inkscape:pageshadow="2"
     inkscape:window-width="863"
     inkscape:window-height="480"
     id="namedview4"
     showgrid="false"
     inkscape:zoom="0.78358459"
     inkscape:cx="184.20268"
     inkscape:cy="150.59"
     inkscape:window-x="3364"
     inkscape:window-y="446"
     inkscape:window-maximized="0"
     inkscape:current-layer="g10" /><g
     id="g10"
     inkscape:groupmode="layer"
     inkscape:label="MultPoisDist"
     transform="matrix(1.3333333,0,0,-1.3333333,0,301.17999)"><g
       id="g12" /><g
       id="g14"><g
         id="g16"
         clip-path="url(#clipPath20)"><g
           id="g22"
           transform="translate(0,-0.115005)"><g
             id="g24"><g
               id="g26"
               clip-path="url(#clipPath30)"><g
                 id="g32"><path
                   d="m 63.324,219.305 c 0,1.492 1.211,2.699 2.699,2.699 1.481,0 2.7,-1.207 2.7,-2.699 0,-1.481 -1.219,-2.7 -2.7,-2.7 -1.488,0 -2.699,1.219 -2.699,2.7"
                   style="fill:none;stroke:#000000;stroke-width:0.75;stroke-linecap:round;stroke-linejoin:round;stroke-miterlimit:10;stroke-dasharray:none;stroke-opacity:1"
                   id="path34"
                   inkscape:connector-curvature="0" /><path
                   d="m 107.645,167.145 c 0,1.48 1.21,2.699 2.699,2.699 1.48,0 2.699,-1.219 2.699,-2.699 0,-1.489 -1.219,-2.7 -2.699,-2.7 -1.489,0 -2.699,1.211 -2.699,2.7"
                   style="fill:none;stroke:#000000;stroke-width:0.75;stroke-linecap:round;stroke-linejoin:round;stroke-miterlimit:10;stroke-dasharray:none;stroke-opacity:1"
                   id="path36"
                   inkscape:connector-curvature="0" /><path
                   d="m 128.242,153.066 c 0,1.489 1.223,2.7 2.703,2.7 1.489,0 2.7,-1.211 2.7,-2.7 0,-1.48 -1.211,-2.703 -2.7,-2.703 -1.48,0 -2.703,1.223 -2.703,2.703"
                   style="fill:none;stroke:#000000;stroke-width:0.75;stroke-linecap:round;stroke-linejoin:round;stroke-miterlimit:10;stroke-dasharray:none;stroke-opacity:1"
                   id="path38"
                   inkscape:connector-curvature="0" /><path
                   d="m 141.824,142.746 c 0,1.481 1.211,2.699 2.699,2.699 1.481,0 2.7,-1.218 2.7,-2.699 0,-1.492 -1.219,-2.699 -2.7,-2.699 -1.488,0 -2.699,1.207 -2.699,2.699"
                   style="fill:none;stroke:#000000;stroke-width:0.75;stroke-linecap:round;stroke-linejoin:round;stroke-miterlimit:10;stroke-dasharray:none;stroke-opacity:1"
                   id="path40"
                   inkscape:connector-curvature="0" /><path
                   d="m 151.965,136.914 c 0,1.492 1.211,2.699 2.699,2.699 1.481,0 2.699,-1.207 2.699,-2.699 0,-1.48 -1.218,-2.699 -2.699,-2.699 -1.488,0 -2.699,1.219 -2.699,2.699"
                   style="fill:none;stroke:#000000;stroke-width:0.75;stroke-linecap:round;stroke-linejoin:round;stroke-miterlimit:10;stroke-dasharray:none;stroke-opacity:1"
                   id="path42"
                   inkscape:connector-curvature="0" /><path
                   d="m 160.055,128.637 c 0,1.476 1.218,2.699 2.699,2.699 1.488,0 2.699,-1.223 2.699,-2.699 0,-1.492 -1.211,-2.703 -2.699,-2.703 -1.481,0 -2.699,1.211 -2.699,2.703"
                   style="fill:none;stroke:#000000;stroke-width:0.75;stroke-linecap:round;stroke-linejoin:round;stroke-miterlimit:10;stroke-dasharray:none;stroke-opacity:1"
                   id="path44"
                   inkscape:connector-curvature="0" /><path
                   d="m 166.793,122.734 c 0,1.481 1.223,2.7 2.699,2.7 1.492,0 2.703,-1.219 2.703,-2.7 0,-1.488 -1.211,-2.699 -2.703,-2.699 -1.476,0 -2.699,1.211 -2.699,2.699"
                   style="fill:none;stroke:#000000;stroke-width:0.75;stroke-linecap:round;stroke-linejoin:round;stroke-miterlimit:10;stroke-dasharray:none;stroke-opacity:1"
                   id="path46"
                   inkscape:connector-curvature="0" /><path
                   d="m 172.562,120.094 c 0,1.48 1.223,2.703 2.704,2.703 1.488,0 2.699,-1.223 2.699,-2.703 0,-1.489 -1.211,-2.699 -2.699,-2.699 -1.481,0 -2.704,1.21 -2.704,2.699"
                   style="fill:none;stroke:#000000;stroke-width:0.75;stroke-linecap:round;stroke-linejoin:round;stroke-miterlimit:10;stroke-dasharray:none;stroke-opacity:1"
                   id="path48"
                   inkscape:connector-curvature="0" /><path
                   d="m 177.613,115.547 c 0,1.476 1.223,2.699 2.699,2.699 1.493,0 2.704,-1.223 2.704,-2.699 0,-1.492 -1.211,-2.703 -2.704,-2.703 -1.476,0 -2.699,1.211 -2.699,2.703"
                   style="fill:none;stroke:#000000;stroke-width:0.75;stroke-linecap:round;stroke-linejoin:round;stroke-miterlimit:10;stroke-dasharray:none;stroke-opacity:1"
                   id="path50"
                   inkscape:connector-curvature="0" /><path
                   d="m 182.105,111.125 c 0,1.48 1.219,2.699 2.7,2.699 1.488,0 2.699,-1.219 2.699,-2.699 0,-1.488 -1.211,-2.699 -2.699,-2.699 -1.481,0 -2.7,1.211 -2.7,2.699"
                   style="fill:none;stroke:#000000;stroke-width:0.75;stroke-linecap:round;stroke-linejoin:round;stroke-miterlimit:10;stroke-dasharray:none;stroke-opacity:1"
                   id="path52"
                   inkscape:connector-curvature="0" /><path
                   d="m 186.145,111.496 c 0,1.481 1.21,2.699 2.699,2.699 1.48,0 2.699,-1.218 2.699,-2.699 0,-1.492 -1.219,-2.699 -2.699,-2.699 -1.489,0 -2.699,1.207 -2.699,2.699"
                   style="fill:none;stroke:#000000;stroke-width:0.75;stroke-linecap:round;stroke-linejoin:round;stroke-miterlimit:10;stroke-dasharray:none;stroke-opacity:1"
                   id="path54"
                   inkscape:connector-curvature="0" /><path
                   d="m 189.812,102.656 c 0,1.489 1.211,2.699 2.704,2.699 1.476,0 2.699,-1.21 2.699,-2.699 0,-1.48 -1.223,-2.703 -2.699,-2.703 -1.493,0 -2.704,1.223 -2.704,2.703"
                   style="fill:none;stroke:#000000;stroke-width:0.75;stroke-linecap:round;stroke-linejoin:round;stroke-miterlimit:10;stroke-dasharray:none;stroke-opacity:1"
                   id="path56"
                   inkscape:connector-curvature="0" /><path
                   d="m 193.176,106.266 c 0,1.488 1.219,2.699 2.699,2.699 1.488,0 2.699,-1.211 2.699,-2.699 0,-1.481 -1.211,-2.7 -2.699,-2.7 -1.48,0 -2.699,1.219 -2.699,2.7"
                   style="fill:none;stroke:#000000;stroke-width:0.75;stroke-linecap:round;stroke-linejoin:round;stroke-miterlimit:10;stroke-dasharray:none;stroke-opacity:1"
                   id="path58"
                   inkscape:connector-curvature="0" /><path
                   d="m 196.285,90.047 c 0,1.476 1.207,2.699 2.699,2.699 1.481,0 2.7,-1.223 2.7,-2.699 0,-1.492 -1.219,-2.703 -2.7,-2.703 -1.492,0 -2.699,1.211 -2.699,2.703"
                   style="fill:none;stroke:#000000;stroke-width:0.75;stroke-linecap:round;stroke-linejoin:round;stroke-miterlimit:10;stroke-dasharray:none;stroke-opacity:1"
                   id="path60"
                   inkscape:connector-curvature="0" /><path
                   d="m 199.164,96.727 c 0,1.488 1.211,2.699 2.699,2.699 1.481,0 2.699,-1.211 2.699,-2.699 0,-1.481 -1.218,-2.704 -2.699,-2.704 -1.488,0 -2.699,1.223 -2.699,2.704"
                   style="fill:none;stroke:#000000;stroke-width:0.75;stroke-linecap:round;stroke-linejoin:round;stroke-miterlimit:10;stroke-dasharray:none;stroke-opacity:1"
                   id="path62"
                   inkscape:connector-curvature="0" /><path
                   d="m 201.855,93.113 c 0,1.481 1.207,2.703 2.7,2.703 1.48,0 2.699,-1.222 2.699,-2.703 0,-1.488 -1.219,-2.699 -2.699,-2.699 -1.493,0 -2.7,1.211 -2.7,2.699"
                   style="fill:none;stroke:#000000;stroke-width:0.75;stroke-linecap:round;stroke-linejoin:round;stroke-miterlimit:10;stroke-dasharray:none;stroke-opacity:1"
                   id="path64"
                   inkscape:connector-curvature="0" /><path
                   d="m 204.375,95.625 c 0,1.48 1.219,2.699 2.699,2.699 1.488,0 2.699,-1.219 2.699,-2.699 0,-1.488 -1.211,-2.699 -2.699,-2.699 -1.48,0 -2.699,1.211 -2.699,2.699"
                   style="fill:none;stroke:#000000;stroke-width:0.75;stroke-linecap:round;stroke-linejoin:round;stroke-miterlimit:10;stroke-dasharray:none;stroke-opacity:1"
                   id="path66"
                   inkscape:connector-curvature="0" /><path
                   d="m 206.754,97.746 c 0,1.488 1.211,2.699 2.699,2.699 1.481,0 2.699,-1.211 2.699,-2.699 0,-1.48 -1.218,-2.699 -2.699,-2.699 -1.488,0 -2.699,1.219 -2.699,2.699"
                   style="fill:none;stroke:#000000;stroke-width:0.75;stroke-linecap:round;stroke-linejoin:round;stroke-miterlimit:10;stroke-dasharray:none;stroke-opacity:1"
                   id="path68"
                   inkscape:connector-curvature="0" /><path
                   d="m 208.992,86.086 c 0,1.48 1.211,2.699 2.703,2.699 1.481,0 2.7,-1.219 2.7,-2.699 0,-1.492 -1.219,-2.699 -2.7,-2.699 -1.492,0 -2.703,1.207 -2.703,2.699"
                   style="fill:none;stroke:#000000;stroke-width:0.75;stroke-linecap:round;stroke-linejoin:round;stroke-miterlimit:10;stroke-dasharray:none;stroke-opacity:1"
                   id="path70"
                   inkscape:connector-curvature="0" /><path
                   d="m 211.113,88.203 c 0,1.492 1.223,2.703 2.699,2.703 1.493,0 2.704,-1.211 2.704,-2.703 0,-1.476 -1.211,-2.699 -2.704,-2.699 -1.476,0 -2.699,1.223 -2.699,2.699"
                   style="fill:none;stroke:#000000;stroke-width:0.75;stroke-linecap:round;stroke-linejoin:round;stroke-miterlimit:10;stroke-dasharray:none;stroke-opacity:1"
                   id="path72"
                   inkscape:connector-curvature="0" /><path
                   d="m 213.133,86.086 c 0,1.48 1.211,2.699 2.703,2.699 1.476,0 2.699,-1.219 2.699,-2.699 0,-1.492 -1.223,-2.699 -2.699,-2.699 -1.492,0 -2.703,1.207 -2.703,2.699"
                   style="fill:none;stroke:#000000;stroke-width:0.75;stroke-linecap:round;stroke-linejoin:round;stroke-miterlimit:10;stroke-dasharray:none;stroke-opacity:1"
                   id="path74"
                   inkscape:connector-curvature="0" /><path
                   d="m 215.055,76.547 c 0,1.476 1.211,2.699 2.699,2.699 1.48,0 2.699,-1.223 2.699,-2.699 0,-1.492 -1.219,-2.703 -2.699,-2.703 -1.488,0 -2.699,1.211 -2.699,2.703"
                   style="fill:none;stroke:#000000;stroke-width:0.75;stroke-linecap:round;stroke-linejoin:round;stroke-miterlimit:10;stroke-dasharray:none;stroke-opacity:1"
                   id="path76"
                   inkscape:connector-curvature="0" /><path
                   d="m 216.883,91.664 c 0,1.481 1.222,2.699 2.703,2.699 1.488,0 2.699,-1.218 2.699,-2.699 0,-1.488 -1.211,-2.699 -2.699,-2.699 -1.481,0 -2.703,1.211 -2.703,2.699"
                   style="fill:none;stroke:#000000;stroke-width:0.75;stroke-linecap:round;stroke-linejoin:round;stroke-miterlimit:10;stroke-dasharray:none;stroke-opacity:1"
                   id="path78"
                   inkscape:connector-curvature="0" /><path
                   d="m 218.645,76.547 c 0,1.476 1.21,2.699 2.699,2.699 1.48,0 2.699,-1.223 2.699,-2.699 0,-1.492 -1.219,-2.703 -2.699,-2.703 -1.489,0 -2.699,1.211 -2.699,2.703"
                   style="fill:none;stroke:#000000;stroke-width:0.75;stroke-linecap:round;stroke-linejoin:round;stroke-miterlimit:10;stroke-dasharray:none;stroke-opacity:1"
                   id="path80"
                   inkscape:connector-curvature="0" /><path
                   d="m 220.324,76.547 c 0,1.476 1.211,2.699 2.699,2.699 1.481,0 2.7,-1.223 2.7,-2.699 0,-1.492 -1.219,-2.703 -2.7,-2.703 -1.488,0 -2.699,1.211 -2.699,2.703"
                   style="fill:none;stroke:#000000;stroke-width:0.75;stroke-linecap:round;stroke-linejoin:round;stroke-miterlimit:10;stroke-dasharray:none;stroke-opacity:1"
                   id="path82"
                   inkscape:connector-curvature="0" /><path
                   d="m 221.934,61.426 c 0,1.48 1.218,2.699 2.699,2.699 1.492,0 2.703,-1.219 2.703,-2.699 0,-1.492 -1.211,-2.699 -2.703,-2.699 -1.481,0 -2.699,1.207 -2.699,2.699"
                   style="fill:none;stroke:#000000;stroke-width:0.75;stroke-linecap:round;stroke-linejoin:round;stroke-miterlimit:10;stroke-dasharray:none;stroke-opacity:1"
                   id="path84"
                   inkscape:connector-curvature="0" /><path
                   d="m 223.492,76.547 c 0,1.476 1.211,2.699 2.703,2.699 1.481,0 2.7,-1.223 2.7,-2.699 0,-1.492 -1.219,-2.703 -2.7,-2.703 -1.492,0 -2.703,1.211 -2.703,2.703"
                   style="fill:none;stroke:#000000;stroke-width:0.75;stroke-linecap:round;stroke-linejoin:round;stroke-miterlimit:10;stroke-dasharray:none;stroke-opacity:1"
                   id="path86"
                   inkscape:connector-curvature="0" /><path
                   d="m 224.984,70.965 c 0,1.48 1.211,2.699 2.7,2.699 1.48,0 2.699,-1.219 2.699,-2.699 0,-1.488 -1.219,-2.699 -2.699,-2.699 -1.489,0 -2.7,1.211 -2.7,2.699"
                   style="fill:none;stroke:#000000;stroke-width:0.75;stroke-linecap:round;stroke-linejoin:round;stroke-miterlimit:10;stroke-dasharray:none;stroke-opacity:1"
                   id="path88"
                   inkscape:connector-curvature="0" /><path
                   d="m 226.426,70.965 c 0,1.48 1.219,2.699 2.699,2.699 1.488,0 2.699,-1.219 2.699,-2.699 0,-1.488 -1.211,-2.699 -2.699,-2.699 -1.48,0 -2.699,1.211 -2.699,2.699"
                   style="fill:none;stroke:#000000;stroke-width:0.75;stroke-linecap:round;stroke-linejoin:round;stroke-miterlimit:10;stroke-dasharray:none;stroke-opacity:1"
                   id="path90"
                   inkscape:connector-curvature="0" /><path
                   d="m 227.812,86.086 c 0,1.48 1.223,2.699 2.704,2.699 1.488,0 2.699,-1.219 2.699,-2.699 0,-1.492 -1.211,-2.699 -2.699,-2.699 -1.481,0 -2.704,1.207 -2.704,2.699"
                   style="fill:none;stroke:#000000;stroke-width:0.75;stroke-linecap:round;stroke-linejoin:round;stroke-miterlimit:10;stroke-dasharray:none;stroke-opacity:1"
                   id="path92"
                   inkscape:connector-curvature="0" /><path
                   d="m 229.164,70.965 c 0,1.48 1.211,2.699 2.699,2.699 1.481,0 2.699,-1.219 2.699,-2.699 0,-1.488 -1.218,-2.699 -2.699,-2.699 -1.488,0 -2.699,1.211 -2.699,2.699"
                   style="fill:none;stroke:#000000;stroke-width:0.75;stroke-linecap:round;stroke-linejoin:round;stroke-miterlimit:10;stroke-dasharray:none;stroke-opacity:1"
                   id="path94"
                   inkscape:connector-curvature="0" /><path
                   d="m 230.465,70.965 c 0,1.48 1.211,2.699 2.699,2.699 1.481,0 2.699,-1.219 2.699,-2.699 0,-1.488 -1.218,-2.699 -2.699,-2.699 -1.488,0 -2.699,1.211 -2.699,2.699"
                   style="fill:none;stroke:#000000;stroke-width:0.75;stroke-linecap:round;stroke-linejoin:round;stroke-miterlimit:10;stroke-dasharray:none;stroke-opacity:1"
                   id="path96"
                   inkscape:connector-curvature="0" /><path
                   d="m 231.723,61.426 c 0,1.48 1.211,2.699 2.703,2.699 1.476,0 2.699,-1.219 2.699,-2.699 0,-1.492 -1.223,-2.699 -2.699,-2.699 -1.492,0 -2.703,1.207 -2.703,2.699"
                   style="fill:none;stroke:#000000;stroke-width:0.75;stroke-linecap:round;stroke-linejoin:round;stroke-miterlimit:10;stroke-dasharray:none;stroke-opacity:1"
                   id="path98"
                   inkscape:connector-curvature="0" /><path
                   d="m 232.945,61.426 c 0,1.48 1.219,2.699 2.7,2.699 1.488,0 2.699,-1.219 2.699,-2.699 0,-1.492 -1.211,-2.699 -2.699,-2.699 -1.481,0 -2.7,1.207 -2.7,2.699"
                   style="fill:none;stroke:#000000;stroke-width:0.75;stroke-linecap:round;stroke-linejoin:round;stroke-miterlimit:10;stroke-dasharray:none;stroke-opacity:1"
                   id="path100"
                   inkscape:connector-curvature="0" /><path
                   d="m 234.133,70.965 c 0,1.48 1.211,2.699 2.703,2.699 1.476,0 2.699,-1.219 2.699,-2.699 0,-1.488 -1.223,-2.699 -2.699,-2.699 -1.492,0 -2.703,1.211 -2.703,2.699"
                   style="fill:none;stroke:#000000;stroke-width:0.75;stroke-linecap:round;stroke-linejoin:round;stroke-miterlimit:10;stroke-dasharray:none;stroke-opacity:1"
                   id="path102"
                   inkscape:connector-curvature="0" /><path
                   d="m 235.285,70.965 c 0,1.48 1.219,2.699 2.699,2.699 1.489,0 2.7,-1.219 2.7,-2.699 0,-1.488 -1.211,-2.699 -2.7,-2.699 -1.48,0 -2.699,1.211 -2.699,2.699"
                   style="fill:none;stroke:#000000;stroke-width:0.75;stroke-linecap:round;stroke-linejoin:round;stroke-miterlimit:10;stroke-dasharray:none;stroke-opacity:1"
                   id="path104"
                   inkscape:connector-curvature="0" /><path
                   d="m 236.402,61.426 c 0,1.48 1.223,2.699 2.703,2.699 1.489,0 2.7,-1.219 2.7,-2.699 0,-1.492 -1.211,-2.699 -2.7,-2.699 -1.48,0 -2.703,1.207 -2.703,2.699"
                   style="fill:none;stroke:#000000;stroke-width:0.75;stroke-linecap:round;stroke-linejoin:round;stroke-miterlimit:10;stroke-dasharray:none;stroke-opacity:1"
                   id="path106"
                   inkscape:connector-curvature="0" /><path
                   d="m 239.594,70.965 c 0,1.48 1.211,2.699 2.699,2.699 1.48,0 2.699,-1.219 2.699,-2.699 0,-1.488 -1.219,-2.699 -2.699,-2.699 -1.488,0 -2.699,1.211 -2.699,2.699"
                   style="fill:none;stroke:#000000;stroke-width:0.75;stroke-linecap:round;stroke-linejoin:round;stroke-miterlimit:10;stroke-dasharray:none;stroke-opacity:1"
                   id="path108"
                   inkscape:connector-curvature="0" /><path
                   d="m 241.586,70.965 c 0,1.48 1.219,2.699 2.699,2.699 1.488,0 2.699,-1.219 2.699,-2.699 0,-1.488 -1.211,-2.699 -2.699,-2.699 -1.48,0 -2.699,1.211 -2.699,2.699"
                   style="fill:none;stroke:#000000;stroke-width:0.75;stroke-linecap:round;stroke-linejoin:round;stroke-miterlimit:10;stroke-dasharray:none;stroke-opacity:1"
                   id="path110"
                   inkscape:connector-curvature="0" /><path
                   d="m 243.484,76.547 c 0,1.476 1.211,2.699 2.7,2.699 1.48,0 2.699,-1.223 2.699,-2.699 0,-1.492 -1.219,-2.703 -2.699,-2.703 -1.489,0 -2.7,1.211 -2.7,2.703"
                   style="fill:none;stroke:#000000;stroke-width:0.75;stroke-linecap:round;stroke-linejoin:round;stroke-miterlimit:10;stroke-dasharray:none;stroke-opacity:1"
                   id="path112"
                   inkscape:connector-curvature="0" /><path
                   d="m 247.035,61.426 c 0,1.48 1.207,2.699 2.699,2.699 1.481,0 2.7,-1.219 2.7,-2.699 0,-1.492 -1.219,-2.699 -2.7,-2.699 -1.492,0 -2.699,1.207 -2.699,2.699"
                   style="fill:none;stroke:#000000;stroke-width:0.75;stroke-linecap:round;stroke-linejoin:round;stroke-miterlimit:10;stroke-dasharray:none;stroke-opacity:1"
                   id="path114"
                   inkscape:connector-curvature="0" /><path
                   d="m 248.695,61.426 c 0,1.48 1.219,2.699 2.7,2.699 1.488,0 2.699,-1.219 2.699,-2.699 0,-1.492 -1.211,-2.699 -2.699,-2.699 -1.481,0 -2.7,1.207 -2.7,2.699"
                   style="fill:none;stroke:#000000;stroke-width:0.75;stroke-linecap:round;stroke-linejoin:round;stroke-miterlimit:10;stroke-dasharray:none;stroke-opacity:1"
                   id="path116"
                   inkscape:connector-curvature="0" /><path
                   d="m 250.293,61.426 c 0,1.48 1.211,2.699 2.699,2.699 1.481,0 2.703,-1.219 2.703,-2.699 0,-1.492 -1.222,-2.699 -2.703,-2.699 -1.488,0 -2.699,1.207 -2.699,2.699"
                   style="fill:none;stroke:#000000;stroke-width:0.75;stroke-linecap:round;stroke-linejoin:round;stroke-miterlimit:10;stroke-dasharray:none;stroke-opacity:1"
                   id="path118"
                   inkscape:connector-curvature="0" /><path
                   d="m 256.793,61.426 c 0,1.48 1.211,2.699 2.699,2.699 1.481,0 2.703,-1.219 2.703,-2.699 0,-1.492 -1.222,-2.699 -2.703,-2.699 -1.488,0 -2.699,1.207 -2.699,2.699"
                   style="fill:none;stroke:#000000;stroke-width:0.75;stroke-linecap:round;stroke-linejoin:round;stroke-miterlimit:10;stroke-dasharray:none;stroke-opacity:1"
                   id="path120"
                   inkscape:connector-curvature="0" /><path
                   d="m 259.375,61.426 c 0,1.48 1.219,2.699 2.699,2.699 1.488,0 2.699,-1.219 2.699,-2.699 0,-1.492 -1.211,-2.699 -2.699,-2.699 -1.48,0 -2.699,1.207 -2.699,2.699"
                   style="fill:none;stroke:#000000;stroke-width:0.75;stroke-linecap:round;stroke-linejoin:round;stroke-miterlimit:10;stroke-dasharray:none;stroke-opacity:1"
                   id="path122"
                   inkscape:connector-curvature="0" /><path
                   d="m 261.203,61.426 c 0,1.48 1.223,2.699 2.699,2.699 1.493,0 2.703,-1.219 2.703,-2.699 0,-1.492 -1.21,-2.699 -2.703,-2.699 -1.476,0 -2.699,1.207 -2.699,2.699"
                   style="fill:none;stroke:#000000;stroke-width:0.75;stroke-linecap:round;stroke-linejoin:round;stroke-miterlimit:10;stroke-dasharray:none;stroke-opacity:1"
                   id="path124"
                   inkscape:connector-curvature="0" /></g></g></g></g></g></g><g
       id="g126"><path
         d="M 66.023,54.99 H 251.805"
         style="fill:none;stroke:#000000;stroke-width:0.75;stroke-linecap:round;stroke-linejoin:round;stroke-miterlimit:10;stroke-dasharray:none;stroke-opacity:1"
         id="path128"
         inkscape:connector-curvature="0" /><path
         d="M 66.023,54.99 V 47.791"
         style="fill:none;stroke:#000000;stroke-width:0.75;stroke-linecap:round;stroke-linejoin:round;stroke-miterlimit:10;stroke-dasharray:none;stroke-opacity:1"
         id="path130"
         inkscape:connector-curvature="0" /><path
         d="M 93.984,54.99 V 47.791"
         style="fill:none;stroke:#000000;stroke-width:0.75;stroke-linecap:round;stroke-linejoin:round;stroke-miterlimit:10;stroke-dasharray:none;stroke-opacity:1"
         id="path132"
         inkscape:connector-curvature="0" /><path
         d="M 121.945,54.99 V 47.791"
         style="fill:none;stroke:#000000;stroke-width:0.75;stroke-linecap:round;stroke-linejoin:round;stroke-miterlimit:10;stroke-dasharray:none;stroke-opacity:1"
         id="path134"
         inkscape:connector-curvature="0" /><path
         d="M 158.914,54.99 V 47.791"
         style="fill:none;stroke:#000000;stroke-width:0.75;stroke-linecap:round;stroke-linejoin:round;stroke-miterlimit:10;stroke-dasharray:none;stroke-opacity:1"
         id="path136"
         inkscape:connector-curvature="0" /><path
         d="M 186.875,54.99 V 47.791"
         style="fill:none;stroke:#000000;stroke-width:0.75;stroke-linecap:round;stroke-linejoin:round;stroke-miterlimit:10;stroke-dasharray:none;stroke-opacity:1"
         id="path138"
         inkscape:connector-curvature="0" /><path
         d="M 214.836,54.99 V 47.791"
         style="fill:none;stroke:#000000;stroke-width:0.75;stroke-linecap:round;stroke-linejoin:round;stroke-miterlimit:10;stroke-dasharray:none;stroke-opacity:1"
         id="path140"
         inkscape:connector-curvature="0" /><path
         d="M 251.805,54.99 V 47.791"
         style="fill:none;stroke:#000000;stroke-width:0.75;stroke-linecap:round;stroke-linejoin:round;stroke-miterlimit:10;stroke-dasharray:none;stroke-opacity:1"
         id="path142"
         inkscape:connector-curvature="0" /><text
         transform="matrix(1,0,0,-1,40.744,29.069995)"
         style="font-variant:normal;font-weight:normal;font-size:18px;font-family:TeXGyreHeros;-inkscape-font-specification:TeXGyreHeros-Regular;writing-mode:lr-tb;fill:#000000;fill-opacity:1;fill-rule:nonzero;stroke:none"
         id="text146"><tspan
           x="0 10.008 20.016001 30.528 40.535999 92.898003 102.906 112.914 123.426 133.43401 185.79601 195.804 205.812 216.32401 226.332"
           y="0"
           sodipodi:role="line"
           id="tspan144">5e+035e+045e+05</tspan></text>
<path
         d="M 58.105,61.311 V 188.08"
         style="fill:none;stroke:#000000;stroke-width:0.75;stroke-linecap:round;stroke-linejoin:round;stroke-miterlimit:10;stroke-dasharray:none;stroke-opacity:1"
         id="path148"
         inkscape:connector-curvature="0" /><path
         d="M 58.105,61.311 H 50.902"
         style="fill:none;stroke:#000000;stroke-width:0.75;stroke-linecap:round;stroke-linejoin:round;stroke-miterlimit:10;stroke-dasharray:none;stroke-opacity:1"
         id="path150"
         inkscape:connector-curvature="0" /><path
         d="M 58.105,124.69 H 50.902"
         style="fill:none;stroke:#000000;stroke-width:0.75;stroke-linecap:round;stroke-linejoin:round;stroke-miterlimit:10;stroke-dasharray:none;stroke-opacity:1"
         id="path152"
         inkscape:connector-curvature="0" /><path
         d="M 58.105,188.08 H 50.902"
         style="fill:none;stroke:#000000;stroke-width:0.75;stroke-linecap:round;stroke-linejoin:round;stroke-miterlimit:10;stroke-dasharray:none;stroke-opacity:1"
         id="path154"
         inkscape:connector-curvature="0" /><text
         transform="matrix(0,1,1,0,40.823998,56.299995)"
         style="font-variant:normal;font-weight:normal;font-size:18px;font-family:TeXGyreHeros;-inkscape-font-specification:TeXGyreHeros-Regular;writing-mode:lr-tb;fill:#000000;fill-opacity:1;fill-rule:nonzero;stroke:none"
         id="text158"><tspan
           x="0 53.388 63.396 73.403999 106.758 116.766 126.774 136.782 146.78999"
           y="0"
           sodipodi:role="line"
           id="tspan156">110010000</tspan></text>
<path
         d="M 58.105,225.51 H 271.824 V 54.99 H 58.105 Z"
         style="fill:none;stroke:#000000;stroke-width:0.75;stroke-linecap:round;stroke-linejoin:round;stroke-miterlimit:10;stroke-dasharray:none;stroke-opacity:1"
         id="path160"
         inkscape:connector-curvature="0" /><text
         transform="matrix(1,0,0,-1,143.674,0.269994)"
         style="font-variant:normal;font-weight:normal;font-size:18px;font-family:TeXGyreHeros;-inkscape-font-specification:TeXGyreHeros-Regular;writing-mode:lr-tb;fill:#000000;fill-opacity:1;fill-rule:nonzero;stroke:none"
         id="text164"><tspan
           x="0 8.5500002 18.558001 22.554001 32.562"
           y="0"
           sodipodi:role="line"
           id="tspan162">value</tspan></text>
<text
         transform="matrix(0,1,1,0,12.024,113.74)"
         style="font-variant:normal;font-weight:normal;font-size:18px;font-family:TeXGyreHeros;-inkscape-font-specification:TeXGyreHeros-Regular;writing-mode:lr-tb;fill:#000000;fill-opacity:1;fill-rule:nonzero;stroke:none"
         id="text168"><tspan
           x="0 9 19.007999 29.016001 39.023998 44.028"
           y="0"
           sodipodi:role="line"
           id="tspan166">counts</tspan></text>
</g></g></svg>