<?xml version="1.0" encoding="UTF-8" standalone="no"?>
<!-- Created with Inkscape (http://www.inkscape.org/) -->

<svg
   version="1.1"
   id="svg2"
   xml:space="preserve"
   width="745.06665"
   height="338.02625"
   viewBox="0 0 745.06665 338.02625"
   sodipodi:docname="parameter_confidence_intervals.svg"
   inkscape:version="1.1.1 (3bf5ae0d25, 2021-09-20)"
   xmlns:inkscape="http://www.inkscape.org/namespaces/inkscape"
   xmlns:sodipodi="http://sodipodi.sourceforge.net/DTD/sodipodi-0.dtd"
   xmlns="http://www.w3.org/2000/svg"
   xmlns:svg="http://www.w3.org/2000/svg"><defs
     id="defs6"><clipPath
       clipPathUnits="userSpaceOnUse"
       id="clipPath18"><path
         d="M 90,36 H 343.63636 V 253.44 H 90 Z"
         id="path16" /></clipPath><clipPath
       clipPathUnits="userSpaceOnUse"
       id="clipPath88"><path
         d="M 90,36 H 343.63636 V 253.44 H 90 Z"
         id="path86" /></clipPath><clipPath
       clipPathUnits="userSpaceOnUse"
       id="clipPath98"><path
         d="M -8,-8 H 8 V 8 H -8 Z"
         id="path96" /></clipPath><clipPath
       clipPathUnits="userSpaceOnUse"
       id="clipPath110"><path
         d="M -8,-8 H 8 V 8 H -8 Z"
         id="path108" /></clipPath><clipPath
       clipPathUnits="userSpaceOnUse"
       id="clipPath122"><path
         d="M -8,-8 H 8 V 8 H -8 Z"
         id="path120" /></clipPath><clipPath
       clipPathUnits="userSpaceOnUse"
       id="clipPath134"><path
         d="M -8,-8 H 8 V 8 H -8 Z"
         id="path132" /></clipPath><clipPath
       clipPathUnits="userSpaceOnUse"
       id="clipPath146"><path
         d="M -8,-8 H 8 V 8 H -8 Z"
         id="path144" /></clipPath><clipPath
       clipPathUnits="userSpaceOnUse"
       id="clipPath158"><path
         d="M -8,-8 H 8 V 8 H -8 Z"
         id="path156" /></clipPath><clipPath
       clipPathUnits="userSpaceOnUse"
       id="clipPath170"><path
         d="M -8,-8 H 8 V 8 H -8 Z"
         id="path168" /></clipPath><clipPath
       clipPathUnits="userSpaceOnUse"
       id="clipPath180"><path
         d="M 90,36 H 343.63636 V 253.44 H 90 Z"
         id="path178" /></clipPath><clipPath
       clipPathUnits="userSpaceOnUse"
       id="clipPath190"><path
         d="M 90,36 H 343.63636 V 253.44 H 90 Z"
         id="path188" /></clipPath><clipPath
       clipPathUnits="userSpaceOnUse"
       id="clipPath200"><path
         d="M 90,36 H 343.63636 V 253.44 H 90 Z"
         id="path198" /></clipPath><clipPath
       clipPathUnits="userSpaceOnUse"
       id="clipPath210"><path
         d="M 90,36 H 343.63636 V 253.44 H 90 Z"
         id="path208" /></clipPath><clipPath
       clipPathUnits="userSpaceOnUse"
       id="clipPath220"><path
         d="M 90,36 H 343.63636 V 253.44 H 90 Z"
         id="path218" /></clipPath><clipPath
       clipPathUnits="userSpaceOnUse"
       id="clipPath230"><path
         d="M 90,36 H 343.63636 V 253.44 H 90 Z"
         id="path228" /></clipPath><clipPath
       clipPathUnits="userSpaceOnUse"
       id="clipPath240"><path
         d="M 90,36 H 343.63636 V 253.44 H 90 Z"
         id="path238" /></clipPath><clipPath
       clipPathUnits="userSpaceOnUse"
       id="clipPath282"><path
         d="M -1016,-351 H 1660 V 1068 H -1016 Z"
         id="path280" /></clipPath><clipPath
       clipPathUnits="userSpaceOnUse"
       id="clipPath302"><path
         d="M 394.36364,36 H 648 V 253.44 H 394.36364 Z"
         id="path300" /></clipPath><clipPath
       clipPathUnits="userSpaceOnUse"
       id="clipPath324"><path
         d="M -1021,-463 H 1794 V 1233 H -1021 Z"
         id="path322" /></clipPath><clipPath
       clipPathUnits="userSpaceOnUse"
       id="clipPath344"><path
         d="M -1021,-463 H 1794 V 1233 H -1021 Z"
         id="path342" /></clipPath><clipPath
       clipPathUnits="userSpaceOnUse"
       id="clipPath364"><path
         d="M -1021,-463 H 1794 V 1233 H -1021 Z"
         id="path362" /></clipPath><clipPath
       clipPathUnits="userSpaceOnUse"
       id="clipPath390"><path
         d="M 394.36364,36 H 648 V 253.44 H 394.36364 Z"
         id="path388" /></clipPath><clipPath
       clipPathUnits="userSpaceOnUse"
       id="clipPath400"><path
         d="M -8,-8 H 8 V 8 H -8 Z"
         id="path398" /></clipPath><clipPath
       clipPathUnits="userSpaceOnUse"
       id="clipPath412"><path
         d="M -8,-8 H 8 V 8 H -8 Z"
         id="path410" /></clipPath><clipPath
       clipPathUnits="userSpaceOnUse"
       id="clipPath424"><path
         d="M -8,-8 H 8 V 8 H -8 Z"
         id="path422" /></clipPath><clipPath
       clipPathUnits="userSpaceOnUse"
       id="clipPath436"><path
         d="M -8,-8 H 8 V 8 H -8 Z"
         id="path434" /></clipPath><clipPath
       clipPathUnits="userSpaceOnUse"
       id="clipPath448"><path
         d="M -8,-8 H 8 V 8 H -8 Z"
         id="path446" /></clipPath><clipPath
       clipPathUnits="userSpaceOnUse"
       id="clipPath460"><path
         d="M -8,-8 H 8 V 8 H -8 Z"
         id="path458" /></clipPath><clipPath
       clipPathUnits="userSpaceOnUse"
       id="clipPath472"><path
         d="M -8,-8 H 8 V 8 H -8 Z"
         id="path470" /></clipPath><clipPath
       clipPathUnits="userSpaceOnUse"
       id="clipPath482"><path
         d="M 394.36364,36 H 648 V 253.44 H 394.36364 Z"
         id="path480" /></clipPath><clipPath
       clipPathUnits="userSpaceOnUse"
       id="clipPath492"><path
         d="M 394.36364,36 H 648 V 253.44 H 394.36364 Z"
         id="path490" /></clipPath><clipPath
       clipPathUnits="userSpaceOnUse"
       id="clipPath502"><path
         d="M 394.36364,36 H 648 V 253.44 H 394.36364 Z"
         id="path500" /></clipPath><clipPath
       clipPathUnits="userSpaceOnUse"
       id="clipPath512"><path
         d="M 394.36364,36 H 648 V 253.44 H 394.36364 Z"
         id="path510" /></clipPath><clipPath
       clipPathUnits="userSpaceOnUse"
       id="clipPath522"><path
         d="M 394.36364,36 H 648 V 253.44 H 394.36364 Z"
         id="path520" /></clipPath><clipPath
       clipPathUnits="userSpaceOnUse"
       id="clipPath532"><path
         d="M 394.36364,36 H 648 V 253.44 H 394.36364 Z"
         id="path530" /></clipPath><clipPath
       clipPathUnits="userSpaceOnUse"
       id="clipPath542"><path
         d="M 394.36364,36 H 648 V 253.44 H 394.36364 Z"
         id="path540" /></clipPath><clipPath
       clipPathUnits="userSpaceOnUse"
       id="clipPath584"><path
         d="M -1016,-351 H 1660 V 1068 H -1016 Z"
         id="path582" /></clipPath></defs><sodipodi:namedview
     id="namedview4"
     pagecolor="#ffffff"
     bordercolor="#666666"
     borderopacity="1.0"
     inkscape:pageshadow="2"
     inkscape:pageopacity="0.0"
     inkscape:pagecheckerboard="0"
     showgrid="false"
     fit-margin-top="0"
     fit-margin-left="0"
     fit-margin-right="0"
     fit-margin-bottom="0"
     inkscape:zoom="1.5291667"
     inkscape:cx="360.32698"
     inkscape:cy="146.15804"
     inkscape:window-width="2560"
     inkscape:window-height="1440"
     inkscape:window-x="0"
     inkscape:window-y="0"
     inkscape:window-maximized="1"
     inkscape:current-layer="g8" /><g
     id="g8"
     inkscape:groupmode="layer"
     inkscape:label="parameter_confidence_intervals"
     transform="matrix(1.3333333,0,0,-1.3333333,-119.46666,337.91999)"><path
       d="M 90,36 H 343.63636 V 253.44 H 90 Z"
       style="fill:#ffffff;fill-opacity:1;fill-rule:nonzero;stroke:none"
       id="path10" /><g
       id="g12"><g
         id="g14"
         clip-path="url(#clipPath18)"><path
           d="M 121.70455,36 H 311.93182 V 458.8 H 121.70455 Z"
           style="fill:#f2f2f2;fill-opacity:1;fill-rule:nonzero;stroke:none"
           id="path20" /></g></g><g
       id="g22"><path
         d="M 105.85227,36 V 32.5"
         style="fill:#000000;fill-opacity:1;fill-rule:nonzero;stroke:#000000;stroke-width:0.8;stroke-linecap:butt;stroke-linejoin:round;stroke-miterlimit:10;stroke-dasharray:none;stroke-opacity:1"
         id="path24" /><text
         transform="matrix(1,0,0,-1,94.71946,21.40625)"
         style="font-variant:normal;font-weight:normal;font-size:10px;font-family:'DejaVu Sans';-inkscape-font-specification:DejaVuSans;writing-mode:lr-tb;fill:#000000;fill-opacity:1;fill-rule:nonzero;stroke:none"
         id="text28"><tspan
           x="0 6.3600001 9.54 15.9"
           y="0"
           sodipodi:role="line"
           id="tspan26">0.22</tspan></text><path
         d="M 137.55682,36 V 32.5"
         style="fill:#000000;fill-opacity:1;fill-rule:nonzero;stroke:#000000;stroke-width:0.8;stroke-linecap:butt;stroke-linejoin:round;stroke-miterlimit:10;stroke-dasharray:none;stroke-opacity:1"
         id="path30" /><text
         transform="matrix(1,0,0,-1,126.42401,21.40625)"
         style="font-variant:normal;font-weight:normal;font-size:10px;font-family:'DejaVu Sans';-inkscape-font-specification:DejaVuSans;writing-mode:lr-tb;fill:#000000;fill-opacity:1;fill-rule:nonzero;stroke:none"
         id="text34"><tspan
           x="0 6.3600001 9.54 15.9"
           y="0"
           sodipodi:role="line"
           id="tspan32">0.24</tspan></text><path
         d="M 169.26136,36 V 32.5"
         style="fill:#000000;fill-opacity:1;fill-rule:nonzero;stroke:#000000;stroke-width:0.8;stroke-linecap:butt;stroke-linejoin:round;stroke-miterlimit:10;stroke-dasharray:none;stroke-opacity:1"
         id="path36" /><text
         transform="matrix(1,0,0,-1,158.12855,21.40625)"
         style="font-variant:normal;font-weight:normal;font-size:10px;font-family:'DejaVu Sans';-inkscape-font-specification:DejaVuSans;writing-mode:lr-tb;fill:#000000;fill-opacity:1;fill-rule:nonzero;stroke:none"
         id="text40"><tspan
           x="0 6.3600001 9.54 15.9"
           y="0"
           sodipodi:role="line"
           id="tspan38">0.26</tspan></text><path
         d="M 200.96591,36 V 32.5"
         style="fill:#000000;fill-opacity:1;fill-rule:nonzero;stroke:#000000;stroke-width:0.8;stroke-linecap:butt;stroke-linejoin:round;stroke-miterlimit:10;stroke-dasharray:none;stroke-opacity:1"
         id="path42" /><text
         transform="matrix(1,0,0,-1,189.8331,21.40625)"
         style="font-variant:normal;font-weight:normal;font-size:10px;font-family:'DejaVu Sans';-inkscape-font-specification:DejaVuSans;writing-mode:lr-tb;fill:#000000;fill-opacity:1;fill-rule:nonzero;stroke:none"
         id="text46"><tspan
           x="0 6.3600001 9.54 15.9"
           y="0"
           sodipodi:role="line"
           id="tspan44">0.28</tspan></text><path
         d="M 232.67045,36 V 32.5"
         style="fill:#000000;fill-opacity:1;fill-rule:nonzero;stroke:#000000;stroke-width:0.8;stroke-linecap:butt;stroke-linejoin:round;stroke-miterlimit:10;stroke-dasharray:none;stroke-opacity:1"
         id="path48" /><text
         transform="matrix(1,0,0,-1,221.53764,21.40625)"
         style="font-variant:normal;font-weight:normal;font-size:10px;font-family:'DejaVu Sans';-inkscape-font-specification:DejaVuSans;writing-mode:lr-tb;fill:#000000;fill-opacity:1;fill-rule:nonzero;stroke:none"
         id="text52"><tspan
           x="0 6.3600001 9.54 15.9"
           y="0"
           sodipodi:role="line"
           id="tspan50">0.30</tspan></text><path
         d="M 264.375,36 V 32.5"
         style="fill:#000000;fill-opacity:1;fill-rule:nonzero;stroke:#000000;stroke-width:0.8;stroke-linecap:butt;stroke-linejoin:round;stroke-miterlimit:10;stroke-dasharray:none;stroke-opacity:1"
         id="path54" /><text
         transform="matrix(1,0,0,-1,253.24219,21.40625)"
         style="font-variant:normal;font-weight:normal;font-size:10px;font-family:'DejaVu Sans';-inkscape-font-specification:DejaVuSans;writing-mode:lr-tb;fill:#000000;fill-opacity:1;fill-rule:nonzero;stroke:none"
         id="text58"><tspan
           x="0 6.3600001 9.54 15.9"
           y="0"
           sodipodi:role="line"
           id="tspan56">0.32</tspan></text><path
         d="M 296.07954,36 V 32.5"
         style="fill:#000000;fill-opacity:1;fill-rule:nonzero;stroke:#000000;stroke-width:0.8;stroke-linecap:butt;stroke-linejoin:round;stroke-miterlimit:10;stroke-dasharray:none;stroke-opacity:1"
         id="path60" /><text
         transform="matrix(1,0,0,-1,284.94673,21.40625)"
         style="font-variant:normal;font-weight:normal;font-size:10px;font-family:'DejaVu Sans';-inkscape-font-specification:DejaVuSans;writing-mode:lr-tb;fill:#000000;fill-opacity:1;fill-rule:nonzero;stroke:none"
         id="text64"><tspan
           x="0 6.3600001 9.54 15.9"
           y="0"
           sodipodi:role="line"
           id="tspan62">0.34</tspan></text><path
         d="M 327.78409,36 V 32.5"
         style="fill:#000000;fill-opacity:1;fill-rule:nonzero;stroke:#000000;stroke-width:0.8;stroke-linecap:butt;stroke-linejoin:round;stroke-miterlimit:10;stroke-dasharray:none;stroke-opacity:1"
         id="path66" /><text
         transform="matrix(1,0,0,-1,316.65128,21.40625)"
         style="font-variant:normal;font-weight:normal;font-size:10px;font-family:'DejaVu Sans';-inkscape-font-specification:DejaVuSans;writing-mode:lr-tb;fill:#000000;fill-opacity:1;fill-rule:nonzero;stroke:none"
         id="text70"><tspan
           x="0 6.3600001 9.54 15.9"
           y="0"
           sodipodi:role="line"
           id="tspan68">0.36</tspan></text><g
         id="g72"
         transform="translate(190.81818,3.171875)"><text
           transform="matrix(1,0,0,-1,0,0.03125)"
           style="font-style:italic;font-variant:normal;font-size:16px;font-family:'DejaVu Sans';-inkscape-font-specification:DejaVuSans-Oblique;writing-mode:lr-tb;fill:#000000;fill-opacity:1;fill-rule:nonzero;stroke:none"
           id="text76"><tspan
             x="0"
             y="0"
             id="tspan74">c</tspan></text><text
           transform="matrix(1,0,0,-1,8.796875,-2.59375)"
           style="font-variant:normal;font-weight:normal;font-size:11.2px;font-family:'DejaVu Sans';-inkscape-font-specification:DejaVuSans;writing-mode:lr-tb;fill:#000000;fill-opacity:1;fill-rule:nonzero;stroke:none"
           id="text80"><tspan
             x="0 6.1578126 13.010157 20.108593 24.5 31.363281 37.521095"
             y="0"
             sodipodi:role="line"
             id="tspan78">contact</tspan></text></g></g><g
       id="g82"><g
         id="g84"
         clip-path="url(#clipPath88)"><g
           id="g90"
           transform="translate(296.07955,48.08)"><g
             id="g92"><g
               id="g94"
               clip-path="url(#clipPath98)"><path
                 d="m 0,-3 c 0.795609,0 1.55874,0.316099 2.12132,0.87868 C 2.683901,-1.55874 3,-0.795609 3,0 3,0.795609 2.683901,1.55874 2.12132,2.12132 1.55874,2.683901 0.795609,3 0,3 -0.795609,3 -1.55874,2.683901 -2.12132,2.12132 -2.683901,1.55874 -3,0.795609 -3,0 -3,-0.795609 -2.683901,-1.55874 -2.12132,-2.12132 -1.55874,-2.683901 -0.795609,-3 0,-3 Z"
                 style="fill:#000000;fill-opacity:1;fill-rule:nonzero;stroke:#000000;stroke-width:1;stroke-linecap:butt;stroke-linejoin:round;stroke-miterlimit:10;stroke-dasharray:none;stroke-opacity:1"
                 id="path100" /></g></g><g
             id="g102"
             transform="translate(-110.96591,25.885714)"><g
               id="g104"><g
                 id="g106"
                 clip-path="url(#clipPath110)"><path
                   d="m 0,-3 c 0.795609,0 1.55874,0.316099 2.12132,0.87868 C 2.683901,-1.55874 3,-0.795609 3,0 3,0.795609 2.683901,1.55874 2.12132,2.12132 1.55874,2.683901 0.795609,3 0,3 -0.795609,3 -1.55874,2.683901 -2.12132,2.12132 -2.683901,1.55874 -3,0.795609 -3,0 -3,-0.795609 -2.683901,-1.55874 -2.12132,-2.12132 -1.55874,-2.683901 -0.795609,-3 0,-3 Z"
                   style="fill:#000000;fill-opacity:1;fill-rule:nonzero;stroke:#000000;stroke-width:1;stroke-linecap:butt;stroke-linejoin:round;stroke-miterlimit:10;stroke-dasharray:none;stroke-opacity:1"
                   id="path112" /></g></g><g
               id="g114"
               transform="translate(31.704545,25.885714)"><g
                 id="g116"><g
                   id="g118"
                   clip-path="url(#clipPath122)"><path
                     d="m 0,-3 c 0.795609,0 1.55874,0.316099 2.12132,0.87868 C 2.683901,-1.55874 3,-0.795609 3,0 3,0.795609 2.683901,1.55874 2.12132,2.12132 1.55874,2.683901 0.795609,3 0,3 -0.795609,3 -1.55874,2.683901 -2.12132,2.12132 -2.683901,1.55874 -3,0.795609 -3,0 -3,-0.795609 -2.683901,-1.55874 -2.12132,-2.12132 -1.55874,-2.683901 -0.795609,-3 0,-3 Z"
                     style="fill:#000000;fill-opacity:1;fill-rule:nonzero;stroke:#000000;stroke-width:1;stroke-linecap:butt;stroke-linejoin:round;stroke-miterlimit:10;stroke-dasharray:none;stroke-opacity:1"
                     id="path124" /></g></g><g
                 id="g126"
                 transform="translate(-63.409091,25.885714)"><g
                   id="g128"><g
                     id="g130"
                     clip-path="url(#clipPath134)"><path
                       d="m 0,-3 c 0.795609,0 1.55874,0.316099 2.12132,0.87868 C 2.683901,-1.55874 3,-0.795609 3,0 3,0.795609 2.683901,1.55874 2.12132,2.12132 1.55874,2.683901 0.795609,3 0,3 -0.795609,3 -1.55874,2.683901 -2.12132,2.12132 -2.683901,1.55874 -3,0.795609 -3,0 -3,-0.795609 -2.683901,-1.55874 -2.12132,-2.12132 -1.55874,-2.683901 -0.795609,-3 0,-3 Z"
                       style="fill:#000000;fill-opacity:1;fill-rule:nonzero;stroke:#000000;stroke-width:1;stroke-linecap:butt;stroke-linejoin:round;stroke-miterlimit:10;stroke-dasharray:none;stroke-opacity:1"
                       id="path136" /></g></g><g
                   id="g138"
                   transform="translate(0,25.885714)"><g
                     id="g140"><g
                       id="g142"
                       clip-path="url(#clipPath146)"><path
                         d="m 0,-3 c 0.795609,0 1.55874,0.316099 2.12132,0.87868 C 2.683901,-1.55874 3,-0.795609 3,0 3,0.795609 2.683901,1.55874 2.12132,2.12132 1.55874,2.683901 0.795609,3 0,3 -0.795609,3 -1.55874,2.683901 -2.12132,2.12132 -2.683901,1.55874 -3,0.795609 -3,0 -3,-0.795609 -2.683901,-1.55874 -2.12132,-2.12132 -1.55874,-2.683901 -0.795609,-3 0,-3 Z"
                         style="fill:#000000;fill-opacity:1;fill-rule:nonzero;stroke:#000000;stroke-width:1;stroke-linecap:butt;stroke-linejoin:round;stroke-miterlimit:10;stroke-dasharray:none;stroke-opacity:1"
                         id="path148" /></g></g><g
                     id="g150"
                     transform="translate(79.261364,25.885714)"><g
                       id="g152"><g
                         id="g154"
                         clip-path="url(#clipPath158)"><path
                           d="m 0,-3 c 0.795609,0 1.55874,0.316099 2.12132,0.87868 C 2.683901,-1.55874 3,-0.795609 3,0 3,0.795609 2.683901,1.55874 2.12132,2.12132 1.55874,2.683901 0.795609,3 0,3 -0.795609,3 -1.55874,2.683901 -2.12132,2.12132 -2.683901,1.55874 -3,0.795609 -3,0 -3,-0.795609 -2.683901,-1.55874 -2.12132,-2.12132 -1.55874,-2.683901 -0.795609,-3 0,-3 Z"
                           style="fill:#000000;fill-opacity:1;fill-rule:nonzero;stroke:#000000;stroke-width:1;stroke-linecap:butt;stroke-linejoin:round;stroke-miterlimit:10;stroke-dasharray:none;stroke-opacity:1"
                           id="path160" /></g></g><g
                       id="g162"
                       transform="translate(0,25.885714)"><g
                         id="g164"><g
                           id="g166"
                           clip-path="url(#clipPath170)"><path
                             d="m 0,-3 c 0.795609,0 1.55874,0.316099 2.12132,0.87868 C 2.683901,-1.55874 3,-0.795609 3,0 3,0.795609 2.683901,1.55874 2.12132,2.12132 1.55874,2.683901 0.795609,3 0,3 -0.795609,3 -1.55874,2.683901 -2.12132,2.12132 -2.683901,1.55874 -3,0.795609 -3,0 -3,-0.795609 -2.683901,-1.55874 -2.12132,-2.12132 -1.55874,-2.683901 -0.795609,-3 0,-3 Z"
                             style="fill:#000000;fill-opacity:1;fill-rule:nonzero;stroke:#000000;stroke-width:1;stroke-linecap:butt;stroke-linejoin:round;stroke-miterlimit:10;stroke-dasharray:none;stroke-opacity:1"
                             id="path172" /></g></g></g></g></g></g></g></g></g></g></g><g
       id="g174"><g
         id="g176"
         clip-path="url(#clipPath180)"><path
           d="m 248.52273,48.08 h 63.40909"
           style="fill:none;stroke:#808080;stroke-width:1.5;stroke-linecap:square;stroke-linejoin:round;stroke-miterlimit:10;stroke-dasharray:none;stroke-opacity:1"
           id="path182" /></g></g><g
       id="g184"><g
         id="g186"
         clip-path="url(#clipPath190)"><path
           d="m 137.55682,73.965714 h 95.11363"
           style="fill:none;stroke:#808080;stroke-width:1.5;stroke-linecap:square;stroke-linejoin:round;stroke-miterlimit:10;stroke-dasharray:none;stroke-opacity:1"
           id="path192" /></g></g><g
       id="g194"><g
         id="g196"
         clip-path="url(#clipPath200)"><path
           d="m 169.26136,99.851429 h 79.26137"
           style="fill:none;stroke:#808080;stroke-width:1.5;stroke-linecap:square;stroke-linejoin:round;stroke-miterlimit:10;stroke-dasharray:none;stroke-opacity:1"
           id="path202" /></g></g><g
       id="g204"><g
         id="g206"
         clip-path="url(#clipPath210)"><path
           d="m 121.70455,125.73714 h 110.9659"
           style="fill:none;stroke:#808080;stroke-width:1.5;stroke-linecap:square;stroke-linejoin:round;stroke-miterlimit:10;stroke-dasharray:none;stroke-opacity:1"
           id="path212" /></g></g><g
       id="g214"><g
         id="g216"
         clip-path="url(#clipPath220)"><path
           d="m 137.55682,151.62286 h 79.26136"
           style="fill:none;stroke:#808080;stroke-width:1.5;stroke-linecap:square;stroke-linejoin:round;stroke-miterlimit:10;stroke-dasharray:none;stroke-opacity:1"
           id="path222" /></g></g><g
       id="g224"><g
         id="g226"
         clip-path="url(#clipPath230)"><path
           d="M 169.26136,177.50857 H 311.93182"
           style="fill:none;stroke:#808080;stroke-width:1.5;stroke-linecap:square;stroke-linejoin:round;stroke-miterlimit:10;stroke-dasharray:none;stroke-opacity:1"
           id="path232" /></g></g><g
       id="g234"><g
         id="g236"
         clip-path="url(#clipPath240)"><path
           d="M 169.26136,203.39429 H 296.07954"
           style="fill:none;stroke:#808080;stroke-width:1.5;stroke-linecap:square;stroke-linejoin:round;stroke-miterlimit:10;stroke-dasharray:none;stroke-opacity:1"
           id="path242" /></g></g><g
       id="g244"><path
         d="M 90,36 H 343.63636"
         style="fill:none;stroke:#000000;stroke-width:0.8;stroke-linecap:square;stroke-linejoin:miter;stroke-miterlimit:10;stroke-dasharray:none;stroke-opacity:1"
         id="path246" /><text
         transform="matrix(1,0,0,-1,274.61861,54.12)"
         style="font-variant:normal;font-weight:normal;font-size:10px;font-family:'DejaVu Sans';-inkscape-font-specification:DejaVuSans;writing-mode:lr-tb;fill:#000000;fill-opacity:1;fill-rule:nonzero;stroke:none"
         id="text250"><tspan
           x="0 6.3499999 12.7 16.309999 21.52 24.299999 30.42 36.77"
           y="0"
           sodipodi:role="line"
           id="tspan248">qq-slope</tspan></text><text
         transform="matrix(1,0,0,-1,163.6527,80.005714)"
         style="font-variant:normal;font-weight:normal;font-size:10px;font-family:'DejaVu Sans';-inkscape-font-specification:DejaVuSans;writing-mode:lr-tb;fill:#000000;fill-opacity:1;fill-rule:nonzero;stroke:none"
         id="text254"><tspan
           x="0 6.3499999 12.7 16.309999 21.52 24.299999 30.42 36.77"
           y="0"
           sodipodi:role="line"
           id="tspan252">pp-slope</tspan></text><text
         transform="matrix(1,0,0,-1,196.95099,105.89143)"
         style="font-variant:normal;font-weight:normal;font-size:10px;font-family:'DejaVu Sans';-inkscape-font-specification:DejaVuSans;writing-mode:lr-tb;fill:#000000;fill-opacity:1;fill-rule:nonzero;stroke:none"
         id="text258"><tspan
           x="0 6.0300002 12.18 18.309999 22.42 27.629999 33.75"
           y="0"
           sodipodi:role="line"
           id="tspan256">Pearson</tspan></text><text
         transform="matrix(1,0,0,-1,127.82315,131.77714)"
         style="font-variant:normal;font-weight:normal;font-size:10px;font-family:'DejaVu Sans';-inkscape-font-specification:DejaVuSans;writing-mode:lr-tb;fill:#000000;fill-opacity:1;fill-rule:nonzero;stroke:none"
         id="text262"><tspan
           x="0 6.3499999 12.7 18.85 24.98 29.09 38.830002 44.959999"
           y="0"
           sodipodi:role="line"
           id="tspan260">Spearman</tspan></text><text
         transform="matrix(1,0,0,-1,116.73722,157.66286)"
         style="font-variant:normal;font-weight:normal;font-size:10px;font-family:'DejaVu Sans';-inkscape-font-specification:DejaVuSans;writing-mode:lr-tb;fill:#000000;fill-opacity:1;fill-rule:nonzero;stroke:none"
         id="text266"><tspan
           x="0 6.8600001 13.2 19.33 23.25 27.17 33.299999 38.799999 45.139999 51.27 55.380001 61.299999 67.220001"
           y="0"
           sodipodi:role="line"
           id="tspan264">Bhattacharyya</tspan></text><g
         id="g268"
         transform="translate(226.67045,183.54857)"><text
           transform="matrix(1,0,0,-1,6.3645833,4.8046875)"
           style="font-variant:normal;font-weight:normal;font-size:7px;font-family:'DejaVu Sans';-inkscape-font-specification:DejaVuSans;writing-mode:lr-tb;fill:#000000;fill-opacity:1;fill-rule:nonzero;stroke:none"
           id="text272"><tspan
             x="0"
             y="0"
             id="tspan270">2</tspan></text><g
           id="g274"
           transform="matrix(0.01,0,0,0.01,0,0.9765625)"><g
             id="g276"><g
               id="g278"
               clip-path="url(#clipPath282)"><path
                 d="M 300,-121 264,65 62,-207 H -43 l 286,385 -45,230 c -8,41 -37,62 -87,62 H 87 l 15,77 34,-1 c 84,-3 131,-31 141,-85 L 313,274 516,547 H 622 L 335,161 379,-68 c 8,-41 37,-62 87,-62 h 24 l -14,-77 -35,1 c -84,2 -131,31 -141,85"
                 style="fill:#000000;fill-opacity:1;fill-rule:nonzero;stroke:none"
                 id="path284" /></g></g></g></g><text
         transform="matrix(1,0,0,-1,188.86577,209.43429)"
         style="font-variant:normal;font-weight:bold;font-size:10px;font-family:'DejaVu Sans';-inkscape-font-specification:DejaVuSans-Bold;writing-mode:lr-tb;fill:#000000;fill-opacity:1;fill-rule:nonzero;stroke:none"
         id="text288"><tspan
           x="0 7.1999998 14.32 24.74 28.219999 35.09 39.439999 42.919998 48.869999 56.029999 63.150002 69.900002 74.830002 81.610001"
           y="0"
           sodipodi:role="line"
           id="tspan286">Sum of squares</tspan></text><text
         transform="matrix(1,0,0,-1,146.22443,235.32)"
         style="font-variant:normal;font-weight:normal;font-size:10px;font-family:'DejaVu Sans';-inkscape-font-specification:DejaVuSans;writing-mode:lr-tb;fill:#808080;fill-opacity:1;fill-rule:nonzero;stroke:none"
         id="text292"><tspan
           x="0 5.5 11.63 14.41 17.190001 23.540001 27.65 33.779999 37.700001 40.48 46.599998 52.939999 56.119999 62.470001 68.599998 72.709999 78.839996 88.580002 94.730003 98.650002 104.8 108.91 112.09 116.2 122.33 128.67 135.02"
           y="0"
           sodipodi:role="line"
           id="tspan290">calibration parameter range</tspan></text><path
         d="M 394.36364,36 H 648 V 253.44 H 394.36364 Z"
         style="fill:#ffffff;fill-opacity:1;fill-rule:nonzero;stroke:none"
         id="path294" /></g><g
       id="g296"><g
         id="g298"
         clip-path="url(#clipPath302)"><path
           d="M 616.29546,36 H 426.06818 v 422.8 h 190.22728 z"
           style="fill:#f2f2f2;fill-opacity:1;fill-rule:nonzero;stroke:none"
           id="path304" /></g></g><g
       id="g306"><path
         d="M 426.06818,36 V 32.5"
         style="fill:#000000;fill-opacity:1;fill-rule:nonzero;stroke:#000000;stroke-width:0.8;stroke-linecap:butt;stroke-linejoin:round;stroke-miterlimit:10;stroke-dasharray:none;stroke-opacity:1"
         id="path308" /><g
         id="g310"
         transform="translate(410.74787,21.40625)"><text
           transform="matrix(1,0,0,-1,8.3789063,0)"
           style="font-variant:normal;font-weight:normal;font-size:10px;font-family:'DejaVu Sans';-inkscape-font-specification:DejaVuSans;writing-mode:lr-tb;fill:#000000;fill-opacity:1;fill-rule:nonzero;stroke:none"
           id="text314"><tspan
             x="0 6.3600001 9.54 15.9"
             y="0"
             sodipodi:role="line"
             id="tspan312">0.03</tspan></text><g
           id="g316"
           transform="scale(0.01)"><g
             id="g318"><g
               id="g320"
               clip-path="url(#clipPath324)"><path
                 d="M 106,355 H 732 V 272 H 106 v 83"
                 style="fill:#000000;fill-opacity:1;fill-rule:nonzero;stroke:none"
                 id="path326" /></g></g></g></g><path
         d="M 489.47727,36 V 32.5"
         style="fill:#000000;fill-opacity:1;fill-rule:nonzero;stroke:#000000;stroke-width:0.8;stroke-linecap:butt;stroke-linejoin:round;stroke-miterlimit:10;stroke-dasharray:none;stroke-opacity:1"
         id="path328" /><g
         id="g330"
         transform="translate(474.15696,21.40625)"><text
           transform="matrix(1,0,0,-1,8.3789063,0)"
           style="font-variant:normal;font-weight:normal;font-size:10px;font-family:'DejaVu Sans';-inkscape-font-specification:DejaVuSans;writing-mode:lr-tb;fill:#000000;fill-opacity:1;fill-rule:nonzero;stroke:none"
           id="text334"><tspan
             x="0 6.3600001 9.54 15.9"
             y="0"
             sodipodi:role="line"
             id="tspan332">0.02</tspan></text><g
           id="g336"
           transform="scale(0.01)"><g
             id="g338"><g
               id="g340"
               clip-path="url(#clipPath344)"><path
                 d="M 106,355 H 732 V 272 H 106 v 83"
                 style="fill:#000000;fill-opacity:1;fill-rule:nonzero;stroke:none"
                 id="path346" /></g></g></g></g><path
         d="M 552.88636,36 V 32.5"
         style="fill:#000000;fill-opacity:1;fill-rule:nonzero;stroke:#000000;stroke-width:0.8;stroke-linecap:butt;stroke-linejoin:round;stroke-miterlimit:10;stroke-dasharray:none;stroke-opacity:1"
         id="path348" /><g
         id="g350"
         transform="translate(537.56605,21.40625)"><text
           transform="matrix(1,0,0,-1,8.3789063,0)"
           style="font-variant:normal;font-weight:normal;font-size:10px;font-family:'DejaVu Sans';-inkscape-font-specification:DejaVuSans;writing-mode:lr-tb;fill:#000000;fill-opacity:1;fill-rule:nonzero;stroke:none"
           id="text354"><tspan
             x="0 6.3600001 9.54 15.9"
             y="0"
             sodipodi:role="line"
             id="tspan352">0.01</tspan></text><g
           id="g356"
           transform="scale(0.01)"><g
             id="g358"><g
               id="g360"
               clip-path="url(#clipPath364)"><path
                 d="M 106,355 H 732 V 272 H 106 v 83"
                 style="fill:#000000;fill-opacity:1;fill-rule:nonzero;stroke:none"
                 id="path366" /></g></g></g></g><path
         d="M 616.29546,36 V 32.5"
         style="fill:#000000;fill-opacity:1;fill-rule:nonzero;stroke:#000000;stroke-width:0.8;stroke-linecap:butt;stroke-linejoin:round;stroke-miterlimit:10;stroke-dasharray:none;stroke-opacity:1"
         id="path368" /><text
         transform="matrix(1,0,0,-1,605.16264,21.40625)"
         style="font-variant:normal;font-weight:normal;font-size:10px;font-family:'DejaVu Sans';-inkscape-font-specification:DejaVuSans;writing-mode:lr-tb;fill:#000000;fill-opacity:1;fill-rule:nonzero;stroke:none"
         id="text372"><tspan
           x="0 6.3600001 9.54 15.9"
           y="0"
           sodipodi:role="line"
           id="tspan370">0.00</tspan></text><g
         id="g374"
         transform="translate(505.68182,4.84375)"><text
           transform="matrix(1,0,0,-1,0,0.03125)"
           style="font-style:italic;font-variant:normal;font-size:16px;font-family:'DejaVu Sans';-inkscape-font-specification:DejaVuSans-Oblique;writing-mode:lr-tb;fill:#000000;fill-opacity:1;fill-rule:nonzero;stroke:none"
           id="text378"><tspan
             x="0"
             y="0"
             id="tspan376">c</tspan></text><text
           transform="matrix(1,0,0,-1,8.796875,-2.59375)"
           style="font-variant:normal;font-weight:normal;font-size:11.2px;font-family:'DejaVu Sans';-inkscape-font-specification:DejaVuSans;writing-mode:lr-tb;fill:#000000;fill-opacity:1;fill-rule:nonzero;stroke:none"
           id="text382"><tspan
             x="0 6.8632812 13.972656"
             y="0"
             sodipodi:role="line"
             id="tspan380">age</tspan></text></g></g><g
       id="g384"><g
         id="g386"
         clip-path="url(#clipPath390)"><g
           id="g392"
           transform="translate(552.88636,48.08)"><g
             id="g394"><g
               id="g396"
               clip-path="url(#clipPath400)"><path
                 d="m 0,-3 c 0.795609,0 1.55874,0.316099 2.12132,0.87868 C 2.683901,-1.55874 3,-0.795609 3,0 3,0.795609 2.683901,1.55874 2.12132,2.12132 1.55874,2.683901 0.795609,3 0,3 -0.795609,3 -1.55874,2.683901 -2.12132,2.12132 -2.683901,1.55874 -3,0.795609 -3,0 -3,-0.795609 -2.683901,-1.55874 -2.12132,-2.12132 -1.55874,-2.683901 -0.795609,-3 0,-3 Z"
                 style="fill:#000000;fill-opacity:1;fill-rule:nonzero;stroke:#000000;stroke-width:1;stroke-linecap:butt;stroke-linejoin:round;stroke-miterlimit:10;stroke-dasharray:none;stroke-opacity:1"
                 id="path402" /></g></g><g
             id="g404"
             transform="translate(63.409091,25.885714)"><g
               id="g406"><g
                 id="g408"
                 clip-path="url(#clipPath412)"><path
                   d="m 0,-3 c 0.795609,0 1.55874,0.316099 2.12132,0.87868 C 2.683901,-1.55874 3,-0.795609 3,0 3,0.795609 2.683901,1.55874 2.12132,2.12132 1.55874,2.683901 0.795609,3 0,3 -0.795609,3 -1.55874,2.683901 -2.12132,2.12132 -2.683901,1.55874 -3,0.795609 -3,0 -3,-0.795609 -2.683901,-1.55874 -2.12132,-2.12132 -1.55874,-2.683901 -0.795609,-3 0,-3 Z"
                   style="fill:#000000;fill-opacity:1;fill-rule:nonzero;stroke:#000000;stroke-width:1;stroke-linecap:butt;stroke-linejoin:round;stroke-miterlimit:10;stroke-dasharray:none;stroke-opacity:1"
                   id="path414" /></g></g><g
               id="g416"
               transform="translate(-31.704545,25.885714)"><g
                 id="g418"><g
                   id="g420"
                   clip-path="url(#clipPath424)"><path
                     d="m 0,-3 c 0.795609,0 1.55874,0.316099 2.12132,0.87868 C 2.683901,-1.55874 3,-0.795609 3,0 3,0.795609 2.683901,1.55874 2.12132,2.12132 1.55874,2.683901 0.795609,3 0,3 -0.795609,3 -1.55874,2.683901 -2.12132,2.12132 -2.683901,1.55874 -3,0.795609 -3,0 -3,-0.795609 -2.683901,-1.55874 -2.12132,-2.12132 -1.55874,-2.683901 -0.795609,-3 0,-3 Z"
                     style="fill:#000000;fill-opacity:1;fill-rule:nonzero;stroke:#000000;stroke-width:1;stroke-linecap:butt;stroke-linejoin:round;stroke-miterlimit:10;stroke-dasharray:none;stroke-opacity:1"
                     id="path426" /></g></g><g
                 id="g428"
                 transform="translate(-15.852273,25.885714)"><g
                   id="g430"><g
                     id="g432"
                     clip-path="url(#clipPath436)"><path
                       d="m 0,-3 c 0.795609,0 1.55874,0.316099 2.12132,0.87868 C 2.683901,-1.55874 3,-0.795609 3,0 3,0.795609 2.683901,1.55874 2.12132,2.12132 1.55874,2.683901 0.795609,3 0,3 -0.795609,3 -1.55874,2.683901 -2.12132,2.12132 -2.683901,1.55874 -3,0.795609 -3,0 -3,-0.795609 -2.683901,-1.55874 -2.12132,-2.12132 -1.55874,-2.683901 -0.795609,-3 0,-3 Z"
                       style="fill:#000000;fill-opacity:1;fill-rule:nonzero;stroke:#000000;stroke-width:1;stroke-linecap:butt;stroke-linejoin:round;stroke-miterlimit:10;stroke-dasharray:none;stroke-opacity:1"
                       id="path438" /></g></g><g
                   id="g440"
                   transform="translate(31.704545,25.885714)"><g
                     id="g442"><g
                       id="g444"
                       clip-path="url(#clipPath448)"><path
                         d="m 0,-3 c 0.795609,0 1.55874,0.316099 2.12132,0.87868 C 2.683901,-1.55874 3,-0.795609 3,0 3,0.795609 2.683901,1.55874 2.12132,2.12132 1.55874,2.683901 0.795609,3 0,3 -0.795609,3 -1.55874,2.683901 -2.12132,2.12132 -2.683901,1.55874 -3,0.795609 -3,0 -3,-0.795609 -2.683901,-1.55874 -2.12132,-2.12132 -1.55874,-2.683901 -0.795609,-3 0,-3 Z"
                         style="fill:#000000;fill-opacity:1;fill-rule:nonzero;stroke:#000000;stroke-width:1;stroke-linecap:butt;stroke-linejoin:round;stroke-miterlimit:10;stroke-dasharray:none;stroke-opacity:1"
                         id="path450" /></g></g><g
                     id="g452"
                     transform="translate(-31.704545,25.885714)"><g
                       id="g454"><g
                         id="g456"
                         clip-path="url(#clipPath460)"><path
                           d="m 0,-3 c 0.795609,0 1.55874,0.316099 2.12132,0.87868 C 2.683901,-1.55874 3,-0.795609 3,0 3,0.795609 2.683901,1.55874 2.12132,2.12132 1.55874,2.683901 0.795609,3 0,3 -0.795609,3 -1.55874,2.683901 -2.12132,2.12132 -2.683901,1.55874 -3,0.795609 -3,0 -3,-0.795609 -2.683901,-1.55874 -2.12132,-2.12132 -1.55874,-2.683901 -0.795609,-3 0,-3 Z"
                           style="fill:#000000;fill-opacity:1;fill-rule:nonzero;stroke:#000000;stroke-width:1;stroke-linecap:butt;stroke-linejoin:round;stroke-miterlimit:10;stroke-dasharray:none;stroke-opacity:1"
                           id="path462" /></g></g><g
                       id="g464"
                       transform="translate(15.852273,25.885714)"><g
                         id="g466"><g
                           id="g468"
                           clip-path="url(#clipPath472)"><path
                             d="m 0,-3 c 0.795609,0 1.55874,0.316099 2.12132,0.87868 C 2.683901,-1.55874 3,-0.795609 3,0 3,0.795609 2.683901,1.55874 2.12132,2.12132 1.55874,2.683901 0.795609,3 0,3 -0.795609,3 -1.55874,2.683901 -2.12132,2.12132 -2.683901,1.55874 -3,0.795609 -3,0 -3,-0.795609 -2.683901,-1.55874 -2.12132,-2.12132 -1.55874,-2.683901 -0.795609,-3 0,-3 Z"
                             style="fill:#000000;fill-opacity:1;fill-rule:nonzero;stroke:#000000;stroke-width:1;stroke-linecap:butt;stroke-linejoin:round;stroke-miterlimit:10;stroke-dasharray:none;stroke-opacity:1"
                             id="path474" /></g></g></g></g></g></g></g></g></g></g></g><g
       id="g476"><g
         id="g478"
         clip-path="url(#clipPath482)"><path
           d="M 489.47727,48.08 H 616.29546"
           style="fill:none;stroke:#808080;stroke-width:1.5;stroke-linecap:square;stroke-linejoin:round;stroke-miterlimit:10;stroke-dasharray:none;stroke-opacity:1"
           id="path484" /></g></g><g
       id="g486"><g
         id="g488"
         clip-path="url(#clipPath492)"><path
           d="m 521.18182,73.965714 h 95.11364"
           style="fill:none;stroke:#808080;stroke-width:1.5;stroke-linecap:square;stroke-linejoin:round;stroke-miterlimit:10;stroke-dasharray:none;stroke-opacity:1"
           id="path494" /></g></g><g
       id="g496"><g
         id="g498"
         clip-path="url(#clipPath502)"><path
           d="m 521.18182,99.851429 h 95.11364"
           style="fill:none;stroke:#808080;stroke-width:1.5;stroke-linecap:square;stroke-linejoin:round;stroke-miterlimit:10;stroke-dasharray:none;stroke-opacity:1"
           id="path504" /></g></g><g
       id="g506"><g
         id="g508"
         clip-path="url(#clipPath512)"><path
           d="M 473.625,125.73714 H 616.29546"
           style="fill:none;stroke:#808080;stroke-width:1.5;stroke-linecap:square;stroke-linejoin:round;stroke-miterlimit:10;stroke-dasharray:none;stroke-opacity:1"
           id="path514" /></g></g><g
       id="g516"><g
         id="g518"
         clip-path="url(#clipPath522)"><path
           d="M 505.32954,151.62286 H 616.29546"
           style="fill:none;stroke:#808080;stroke-width:1.5;stroke-linecap:square;stroke-linejoin:round;stroke-miterlimit:10;stroke-dasharray:none;stroke-opacity:1"
           id="path524" /></g></g><g
       id="g526"><g
         id="g528"
         clip-path="url(#clipPath532)"><path
           d="M 426.06818,177.50857 H 616.29546"
           style="fill:none;stroke:#808080;stroke-width:1.5;stroke-linecap:square;stroke-linejoin:round;stroke-miterlimit:10;stroke-dasharray:none;stroke-opacity:1"
           id="path534" /></g></g><g
       id="g536"><g
         id="g538"
         clip-path="url(#clipPath542)"><path
           d="M 473.625,203.39429 H 616.29546"
           style="fill:none;stroke:#808080;stroke-width:1.5;stroke-linecap:square;stroke-linejoin:round;stroke-miterlimit:10;stroke-dasharray:none;stroke-opacity:1"
           id="path544" /></g></g><path
       d="M 394.36364,36 H 648"
       style="fill:none;stroke:#000000;stroke-width:0.8;stroke-linecap:square;stroke-linejoin:miter;stroke-miterlimit:10;stroke-dasharray:none;stroke-opacity:1"
       id="path548" /><text
       transform="scale(1,-1)"
       style="font-variant:normal;font-weight:normal;font-size:10px;font-family:'DejaVu Sans';-inkscape-font-specification:DejaVuSans;writing-mode:lr-tb;fill:#000000;fill-opacity:1;fill-rule:nonzero;stroke:none"
       id="text552"
       x="509.96448"
       y="-54.119999"><tspan
         x="509.96448 516.31451 522.66449 526.27448 531.4845 534.26447 540.38446 546.7345"
         y="-54.119999"
         sodipodi:role="line"
         id="tspan550">qq-slope</tspan></text><text
       transform="scale(1,-1)"
       style="font-variant:normal;font-weight:normal;font-size:10px;font-family:'DejaVu Sans';-inkscape-font-specification:DejaVuSans;writing-mode:lr-tb;fill:#000000;fill-opacity:1;fill-rule:nonzero;stroke:none"
       id="text556"
       x="573.3736"
       y="-80.005714"><tspan
         x="573.3736 579.72357 586.07361 589.68359 594.89355 597.67358 603.79358 610.14355"
         y="-80.005714"
         sodipodi:role="line"
         id="tspan554">pp-slope</tspan></text><text
       transform="scale(1,-1)"
       style="font-variant:normal;font-weight:normal;font-size:10px;font-family:'DejaVu Sans';-inkscape-font-specification:DejaVuSans;writing-mode:lr-tb;fill:#000000;fill-opacity:1;fill-rule:nonzero;stroke:none"
       id="text560"
       x="544.85651"
       y="-105.89143"><tspan
         x="544.85651 550.88654 557.03656 563.1665 567.27655 572.48651 578.60651"
         y="-105.89143"
         sodipodi:role="line"
         id="tspan558">Pearson</tspan></text><text
       transform="scale(1,-1)"
       style="font-variant:normal;font-weight:normal;font-size:10px;font-family:'DejaVu Sans';-inkscape-font-specification:DejaVuSans;writing-mode:lr-tb;fill:#000000;fill-opacity:1;fill-rule:nonzero;stroke:none"
       id="text564"
       x="517.56677"
       y="-131.77715"><tspan
         x="517.56677 523.91675 530.26678 536.41675 542.54675 546.65674 556.39679 562.52673"
         y="-131.77715"
         sodipodi:role="line"
         id="tspan562">Spearman</tspan></text><text
       transform="scale(1,-1)"
       style="font-variant:normal;font-weight:normal;font-size:10px;font-family:'DejaVu Sans';-inkscape-font-specification:DejaVuSans;writing-mode:lr-tb;fill:#000000;fill-opacity:1;fill-rule:nonzero;stroke:none"
       id="text568"
       x="527.09943"
       y="-157.66286"><tspan
         x="527.09943 533.95941 540.29944 546.42944 550.34943 554.26941 560.39941 565.89941 572.23944 578.36945 582.47943 588.39941 594.31946"
         y="-157.66286"
         sodipodi:role="line"
         id="tspan566">Bhattacharyya</tspan></text><g
       id="g570"
       transform="translate(556.73864,183.54857)"><text
         transform="matrix(1,0,0,-1,6.3645833,4.8046875)"
         style="font-variant:normal;font-weight:normal;font-size:7px;font-family:'DejaVu Sans';-inkscape-font-specification:DejaVuSans;writing-mode:lr-tb;fill:#000000;fill-opacity:1;fill-rule:nonzero;stroke:none"
         id="text574"><tspan
           x="0"
           y="0"
           id="tspan572">2</tspan></text><g
         id="g576"
         transform="matrix(0.01,0,0,0.01,0,0.9765625)"><g
           id="g578"><g
             id="g580"
             clip-path="url(#clipPath584)"><path
               d="M 300,-121 264,65 62,-207 H -43 l 286,385 -45,230 c -8,41 -37,62 -87,62 H 87 l 15,77 34,-1 c 84,-3 131,-31 141,-85 L 313,274 516,547 H 622 L 335,161 379,-68 c 8,-41 37,-62 87,-62 h 24 l -14,-77 -35,1 c -84,2 -131,31 -141,85"
               style="fill:#000000;fill-opacity:1;fill-rule:nonzero;stroke:none"
               id="path586" /></g></g></g></g><text
       transform="scale(1,-1)"
       style="font-variant:normal;font-weight:bold;font-size:10px;font-family:'DejaVu Sans';-inkscape-font-specification:DejaVuSans-Bold;writing-mode:lr-tb;fill:#000000;fill-opacity:1;fill-rule:nonzero;stroke:none"
       id="text590"
       x="496.98154"
       y="-209.4343"><tspan
         x="496.98154 504.18152 511.30154 521.72156 525.20154 532.07153 536.42151 539.90155 545.8515 553.01154 560.13153 566.88153 571.81152 578.59155"
         y="-209.4343"
         sodipodi:role="line"
         id="tspan588">Sum of squares</tspan></text><text
       transform="scale(1,-1)"
       style="font-variant:normal;font-weight:normal;font-size:10px;font-family:'DejaVu Sans';-inkscape-font-specification:DejaVuSans;writing-mode:lr-tb;fill:#808080;fill-opacity:1;fill-rule:nonzero;stroke:none"
       id="text594"
       x="450.58807"
       y="-235.32001"><tspan
         x="450.58807 456.08807 462.21808 464.99808 467.77808 474.12808 478.23807 484.36807 488.28809 491.06808 497.18808 503.52808 506.70807 513.05804 519.18805 523.2981 529.42804 539.16809 545.31805 549.2381 555.38806 559.49805 562.67804 566.78809 572.91809 579.25806 585.60809"
         y="-235.32001"
         sodipodi:role="line"
         id="tspan592">calibration parameter range</tspan></text></g></svg>
