<?xml version="1.0" encoding="utf-8" standalone="no"?>
<!DOCTYPE svg PUBLIC "-//W3C//DTD SVG 1.1//EN"
  "http://www.w3.org/Graphics/SVG/1.1/DTD/svg11.dtd">
<!-- Created with matplotlib (https://matplotlib.org/) -->
<svg height="396pt" version="1.1" viewBox="0 0 864 396" width="864pt" xmlns="http://www.w3.org/2000/svg" xmlns:xlink="http://www.w3.org/1999/xlink">
 <metadata>
  <rdf:RDF xmlns:cc="http://creativecommons.org/ns#" xmlns:dc="http://purl.org/dc/elements/1.1/" xmlns:rdf="http://www.w3.org/1999/02/22-rdf-syntax-ns#">
   <cc:Work>
    <dc:type rdf:resource="http://purl.org/dc/dcmitype/StillImage"/>
    <dc:date>2022-04-26T08:51:52.994418</dc:date>
    <dc:format>image/svg+xml</dc:format>
    <dc:creator>
     <cc:Agent>
      <dc:title>Matplotlib v3.3.4, https://matplotlib.org/</dc:title>
     </cc:Agent>
    </dc:creator>
   </cc:Work>
  </rdf:RDF>
 </metadata>
 <defs>
  <style type="text/css">*{stroke-linecap:butt;stroke-linejoin:round;}</style>
 </defs>
 <g id="figure_1">
  <g id="patch_1">
   <path d="M 0 396 
L 864 396 
L 864 0 
L 0 0 
z
" style="fill:none;"/>
  </g>
  <g id="axes_1">
   <g id="patch_2">
    <path d="M 87.225 342.2 
L 853.2 342.2 
L 853.2 123.392 
L 87.225 123.392 
z
" style="fill:none;"/>
   </g>
   <g id="patch_3">
    <path clip-path="url(#ped341963d1)" d="M 122.042045 342.2 
L 127.612773 342.2 
L 127.612773 279.994456 
L 122.042045 279.994456 
z
" style="fill:#2471a3;"/>
   </g>
   <g id="patch_4">
    <path clip-path="url(#ped341963d1)" d="M 159.180227 342.2 
L 164.750955 342.2 
L 164.750955 230.230021 
L 159.180227 230.230021 
z
" style="fill:#2471a3;"/>
   </g>
   <g id="patch_5">
    <path clip-path="url(#ped341963d1)" d="M 196.318409 342.2 
L 201.889136 342.2 
L 201.889136 208.458081 
L 196.318409 208.458081 
z
" style="fill:#2471a3;"/>
   </g>
   <g id="patch_6">
    <path clip-path="url(#ped341963d1)" d="M 233.456591 342.2 
L 239.027318 342.2 
L 239.027318 192.906695 
L 233.456591 192.906695 
z
" style="fill:#2471a3;"/>
   </g>
   <g id="patch_7">
    <path clip-path="url(#ped341963d1)" d="M 270.594773 342.2 
L 276.1655 342.2 
L 276.1655 183.575864 
L 270.594773 183.575864 
z
" style="fill:#2471a3;"/>
   </g>
   <g id="patch_8">
    <path clip-path="url(#ped341963d1)" d="M 307.732955 342.2 
L 313.303682 342.2 
L 313.303682 164.9142 
L 307.732955 164.9142 
z
" style="fill:#2471a3;"/>
   </g>
   <g id="patch_9">
    <path clip-path="url(#ped341963d1)" d="M 344.871136 342.2 
L 350.441864 342.2 
L 350.441864 158.693646 
L 344.871136 158.693646 
z
" style="fill:#2471a3;"/>
   </g>
   <g id="patch_10">
    <path clip-path="url(#ped341963d1)" d="M 382.009318 342.2 
L 387.580045 342.2 
L 387.580045 158.693646 
L 382.009318 158.693646 
z
" style="fill:#2471a3;"/>
   </g>
   <g id="patch_11">
    <path clip-path="url(#ped341963d1)" d="M 419.1475 342.2 
L 424.718227 342.2 
L 424.718227 152.473092 
L 419.1475 152.473092 
z
" style="fill:#2471a3;"/>
   </g>
   <g id="patch_12">
    <path clip-path="url(#ped341963d1)" d="M 456.285682 342.2 
L 461.856409 342.2 
L 461.856409 152.473092 
L 456.285682 152.473092 
z
" style="fill:#2471a3;"/>
   </g>
   <g id="patch_13">
    <path clip-path="url(#ped341963d1)" d="M 493.423864 342.2 
L 498.994591 342.2 
L 498.994591 149.362814 
L 493.423864 149.362814 
z
" style="fill:#2471a3;"/>
   </g>
   <g id="patch_14">
    <path clip-path="url(#ped341963d1)" d="M 530.562045 342.2 
L 536.132773 342.2 
L 536.132773 143.14226 
L 530.562045 143.14226 
z
" style="fill:#2471a3;"/>
   </g>
   <g id="patch_15">
    <path clip-path="url(#ped341963d1)" d="M 567.700227 342.2 
L 573.270955 342.2 
L 573.270955 140.031983 
L 567.700227 140.031983 
z
" style="fill:#2471a3;"/>
   </g>
   <g id="patch_16">
    <path clip-path="url(#ped341963d1)" d="M 604.838409 342.2 
L 610.409136 342.2 
L 610.409136 136.921706 
L 604.838409 136.921706 
z
" style="fill:#2471a3;"/>
   </g>
   <g id="patch_17">
    <path clip-path="url(#ped341963d1)" d="M 641.976591 342.2 
L 647.547318 342.2 
L 647.547318 136.921706 
L 641.976591 136.921706 
z
" style="fill:#2471a3;"/>
   </g>
   <g id="patch_18">
    <path clip-path="url(#ped341963d1)" d="M 679.114773 342.2 
L 684.6855 342.2 
L 684.6855 136.921706 
L 679.114773 136.921706 
z
" style="fill:#2471a3;"/>
   </g>
   <g id="patch_19">
    <path clip-path="url(#ped341963d1)" d="M 716.252955 342.2 
L 721.823682 342.2 
L 721.823682 136.921706 
L 716.252955 136.921706 
z
" style="fill:#2471a3;"/>
   </g>
   <g id="patch_20">
    <path clip-path="url(#ped341963d1)" d="M 753.391136 342.2 
L 758.961864 342.2 
L 758.961864 136.921706 
L 753.391136 136.921706 
z
" style="fill:#2471a3;"/>
   </g>
   <g id="patch_21">
    <path clip-path="url(#ped341963d1)" d="M 790.529318 342.2 
L 796.100045 342.2 
L 796.100045 133.811429 
L 790.529318 133.811429 
z
" style="fill:#2471a3;"/>
   </g>
   <g id="patch_22">
    <path clip-path="url(#ped341963d1)" d="M 127.612773 342.2 
L 133.1835 342.2 
L 133.1835 255.371429 
L 127.612773 255.371429 
z
" style="fill:#c0392b;"/>
   </g>
   <g id="patch_23">
    <path clip-path="url(#ped341963d1)" d="M 164.750955 342.2 
L 170.321682 342.2 
L 170.321682 220.64 
L 164.750955 220.64 
z
" style="fill:#c0392b;"/>
   </g>
   <g id="patch_24">
    <path clip-path="url(#ped341963d1)" d="M 201.889136 342.2 
L 207.459864 342.2 
L 207.459864 184.750857 
L 201.889136 184.750857 
z
" style="fill:#c0392b;"/>
   </g>
   <g id="patch_25">
    <path clip-path="url(#ped341963d1)" d="M 239.027318 342.2 
L 244.598045 342.2 
L 244.598045 172.016 
L 239.027318 172.016 
z
" style="fill:#c0392b;"/>
   </g>
   <g id="patch_26">
    <path clip-path="url(#ped341963d1)" d="M 276.1655 342.2 
L 281.736227 342.2 
L 281.736227 162.754286 
L 276.1655 162.754286 
z
" style="fill:#c0392b;"/>
   </g>
   <g id="patch_27">
    <path clip-path="url(#ped341963d1)" d="M 313.303682 342.2 
L 318.874409 342.2 
L 318.874409 155.808 
L 313.303682 155.808 
z
" style="fill:#c0392b;"/>
   </g>
   <g id="patch_28">
    <path clip-path="url(#ped341963d1)" d="M 350.441864 342.2 
L 356.012591 342.2 
L 356.012591 150.019429 
L 350.441864 150.019429 
z
" style="fill:#c0392b;"/>
   </g>
   <g id="patch_29">
    <path clip-path="url(#ped341963d1)" d="M 387.580045 342.2 
L 393.150773 342.2 
L 393.150773 145.388571 
L 387.580045 145.388571 
z
" style="fill:#c0392b;"/>
   </g>
   <g id="patch_30">
    <path clip-path="url(#ped341963d1)" d="M 424.718227 342.2 
L 430.288955 342.2 
L 430.288955 141.915429 
L 424.718227 141.915429 
z
" style="fill:#c0392b;"/>
   </g>
   <g id="patch_31">
    <path clip-path="url(#ped341963d1)" d="M 461.856409 342.2 
L 467.427136 342.2 
L 467.427136 141.915429 
L 461.856409 141.915429 
z
" style="fill:#c0392b;"/>
   </g>
   <g id="patch_32">
    <path clip-path="url(#ped341963d1)" d="M 498.994591 342.2 
L 504.565318 342.2 
L 504.565318 139.6 
L 498.994591 139.6 
z
" style="fill:#c0392b;"/>
   </g>
   <g id="patch_33">
    <path clip-path="url(#ped341963d1)" d="M 536.132773 342.2 
L 541.7035 342.2 
L 541.7035 139.6 
L 536.132773 139.6 
z
" style="fill:#c0392b;"/>
   </g>
   <g id="patch_34">
    <path clip-path="url(#ped341963d1)" d="M 573.270955 342.2 
L 578.841682 342.2 
L 578.841682 138.442286 
L 573.270955 138.442286 
z
" style="fill:#c0392b;"/>
   </g>
   <g id="patch_35">
    <path clip-path="url(#ped341963d1)" d="M 610.409136 342.2 
L 615.979864 342.2 
L 615.979864 137.284571 
L 610.409136 137.284571 
z
" style="fill:#c0392b;"/>
   </g>
   <g id="patch_36">
    <path clip-path="url(#ped341963d1)" d="M 647.547318 342.2 
L 653.118045 342.2 
L 653.118045 137.284571 
L 647.547318 137.284571 
z
" style="fill:#c0392b;"/>
   </g>
   <g id="patch_37">
    <path clip-path="url(#ped341963d1)" d="M 684.6855 342.2 
L 690.256227 342.2 
L 690.256227 137.284571 
L 684.6855 137.284571 
z
" style="fill:#c0392b;"/>
   </g>
   <g id="patch_38">
    <path clip-path="url(#ped341963d1)" d="M 721.823682 342.2 
L 727.394409 342.2 
L 727.394409 137.284571 
L 721.823682 137.284571 
z
" style="fill:#c0392b;"/>
   </g>
   <g id="patch_39">
    <path clip-path="url(#ped341963d1)" d="M 758.961864 342.2 
L 764.532591 342.2 
L 764.532591 137.284571 
L 758.961864 137.284571 
z
" style="fill:#c0392b;"/>
   </g>
   <g id="patch_40">
    <path clip-path="url(#ped341963d1)" d="M 796.100045 342.2 
L 801.670773 342.2 
L 801.670773 133.811429 
L 796.100045 133.811429 
z
" style="fill:#c0392b;"/>
   </g>
   <g id="patch_41">
    <path clip-path="url(#ped341963d1)" d="M 133.1835 342.2 
L 138.754227 342.2 
L 138.754227 248.784433 
L 133.1835 248.784433 
z
" style="fill:#7d3c98;"/>
   </g>
   <g id="patch_42">
    <path clip-path="url(#ped341963d1)" d="M 170.321682 342.2 
L 175.892409 342.2 
L 175.892409 207.46601 
L 170.321682 207.46601 
z
" style="fill:#7d3c98;"/>
   </g>
   <g id="patch_43">
    <path clip-path="url(#ped341963d1)" d="M 207.459864 342.2 
L 213.030591 342.2 
L 213.030591 173.333399 
L 207.459864 173.333399 
z
" style="fill:#7d3c98;"/>
   </g>
   <g id="patch_44">
    <path clip-path="url(#ped341963d1)" d="M 244.598045 342.2 
L 250.168773 342.2 
L 250.168773 153.572414 
L 244.598045 153.572414 
z
" style="fill:#7d3c98;"/>
   </g>
   <g id="patch_45">
    <path clip-path="url(#ped341963d1)" d="M 281.736227 342.2 
L 287.306955 342.2 
L 287.306955 144.590148 
L 281.736227 144.590148 
z
" style="fill:#7d3c98;"/>
   </g>
   <g id="patch_46">
    <path clip-path="url(#ped341963d1)" d="M 318.874409 342.2 
L 324.445136 342.2 
L 324.445136 142.793695 
L 318.874409 142.793695 
z
" style="fill:#7d3c98;"/>
   </g>
   <g id="patch_47">
    <path clip-path="url(#ped341963d1)" d="M 356.012591 342.2 
L 361.583318 342.2 
L 361.583318 137.404335 
L 356.012591 137.404335 
z
" style="fill:#7d3c98;"/>
   </g>
   <g id="patch_48">
    <path clip-path="url(#ped341963d1)" d="M 393.150773 342.2 
L 398.7215 342.2 
L 398.7215 135.607882 
L 393.150773 135.607882 
z
" style="fill:#7d3c98;"/>
   </g>
   <g id="patch_49">
    <path clip-path="url(#ped341963d1)" d="M 430.288955 342.2 
L 435.859682 342.2 
L 435.859682 135.607882 
L 430.288955 135.607882 
z
" style="fill:#7d3c98;"/>
   </g>
   <g id="patch_50">
    <path clip-path="url(#ped341963d1)" d="M 467.427136 342.2 
L 472.997864 342.2 
L 472.997864 135.607882 
L 467.427136 135.607882 
z
" style="fill:#7d3c98;"/>
   </g>
   <g id="patch_51">
    <path clip-path="url(#ped341963d1)" d="M 504.565318 342.2 
L 510.136045 342.2 
L 510.136045 133.811429 
L 504.565318 133.811429 
z
" style="fill:#7d3c98;"/>
   </g>
   <g id="patch_52">
    <path clip-path="url(#ped341963d1)" d="M 541.7035 342.2 
L 547.274227 342.2 
L 547.274227 133.811429 
L 541.7035 133.811429 
z
" style="fill:#7d3c98;"/>
   </g>
   <g id="patch_53">
    <path clip-path="url(#ped341963d1)" d="M 578.841682 342.2 
L 584.412409 342.2 
L 584.412409 133.811429 
L 578.841682 133.811429 
z
" style="fill:#7d3c98;"/>
   </g>
   <g id="patch_54">
    <path clip-path="url(#ped341963d1)" d="M 615.979864 342.2 
L 621.550591 342.2 
L 621.550591 133.811429 
L 615.979864 133.811429 
z
" style="fill:#7d3c98;"/>
   </g>
   <g id="patch_55">
    <path clip-path="url(#ped341963d1)" d="M 653.118045 342.2 
L 658.688773 342.2 
L 658.688773 133.811429 
L 653.118045 133.811429 
z
" style="fill:#7d3c98;"/>
   </g>
   <g id="patch_56">
    <path clip-path="url(#ped341963d1)" d="M 690.256227 342.2 
L 695.826955 342.2 
L 695.826955 133.811429 
L 690.256227 133.811429 
z
" style="fill:#7d3c98;"/>
   </g>
   <g id="patch_57">
    <path clip-path="url(#ped341963d1)" d="M 727.394409 342.2 
L 732.965136 342.2 
L 732.965136 133.811429 
L 727.394409 133.811429 
z
" style="fill:#7d3c98;"/>
   </g>
   <g id="patch_58">
    <path clip-path="url(#ped341963d1)" d="M 764.532591 342.2 
L 770.103318 342.2 
L 770.103318 133.811429 
L 764.532591 133.811429 
z
" style="fill:#7d3c98;"/>
   </g>
   <g id="patch_59">
    <path clip-path="url(#ped341963d1)" d="M 801.670773 342.2 
L 807.2415 342.2 
L 807.2415 133.811429 
L 801.670773 133.811429 
z
" style="fill:#7d3c98;"/>
   </g>
   <g id="patch_60">
    <path clip-path="url(#ped341963d1)" d="M 138.754227 342.2 
L 144.324955 342.2 
L 144.324955 294.568327 
L 138.754227 294.568327 
z
" style="fill:#17a589;"/>
   </g>
   <g id="patch_61">
    <path clip-path="url(#ped341963d1)" d="M 175.892409 342.2 
L 181.463136 342.2 
L 181.463136 264.798531 
L 175.892409 264.798531 
z
" style="fill:#17a589;"/>
   </g>
   <g id="patch_62">
    <path clip-path="url(#ped341963d1)" d="M 213.030591 342.2 
L 218.601318 342.2 
L 218.601318 255.867592 
L 213.030591 255.867592 
z
" style="fill:#17a589;"/>
   </g>
   <g id="patch_63">
    <path clip-path="url(#ped341963d1)" d="M 250.168773 342.2 
L 255.7395 342.2 
L 255.7395 235.028735 
L 250.168773 235.028735 
z
" style="fill:#17a589;"/>
   </g>
   <g id="patch_64">
    <path clip-path="url(#ped341963d1)" d="M 287.306955 342.2 
L 292.877682 342.2 
L 292.877682 229.074776 
L 287.306955 229.074776 
z
" style="fill:#17a589;"/>
   </g>
   <g id="patch_65">
    <path clip-path="url(#ped341963d1)" d="M 324.445136 342.2 
L 330.015864 342.2 
L 330.015864 220.143837 
L 324.445136 220.143837 
z
" style="fill:#17a589;"/>
   </g>
   <g id="patch_66">
    <path clip-path="url(#ped341963d1)" d="M 361.583318 342.2 
L 367.154045 342.2 
L 367.154045 211.212898 
L 361.583318 211.212898 
z
" style="fill:#17a589;"/>
   </g>
   <g id="patch_67">
    <path clip-path="url(#ped341963d1)" d="M 398.7215 342.2 
L 404.292227 342.2 
L 404.292227 202.281959 
L 398.7215 202.281959 
z
" style="fill:#17a589;"/>
   </g>
   <g id="patch_68">
    <path clip-path="url(#ped341963d1)" d="M 435.859682 342.2 
L 441.430409 342.2 
L 441.430409 193.35102 
L 435.859682 193.35102 
z
" style="fill:#17a589;"/>
   </g>
   <g id="patch_69">
    <path clip-path="url(#ped341963d1)" d="M 472.997864 342.2 
L 478.568591 342.2 
L 478.568591 187.397061 
L 472.997864 187.397061 
z
" style="fill:#17a589;"/>
   </g>
   <g id="patch_70">
    <path clip-path="url(#ped341963d1)" d="M 510.136045 342.2 
L 515.706773 342.2 
L 515.706773 184.420082 
L 510.136045 184.420082 
z
" style="fill:#17a589;"/>
   </g>
   <g id="patch_71">
    <path clip-path="url(#ped341963d1)" d="M 547.274227 342.2 
L 552.844955 342.2 
L 552.844955 172.512163 
L 547.274227 172.512163 
z
" style="fill:#17a589;"/>
   </g>
   <g id="patch_72">
    <path clip-path="url(#ped341963d1)" d="M 584.412409 342.2 
L 589.983136 342.2 
L 589.983136 169.535184 
L 584.412409 169.535184 
z
" style="fill:#17a589;"/>
   </g>
   <g id="patch_73">
    <path clip-path="url(#ped341963d1)" d="M 621.550591 342.2 
L 627.121318 342.2 
L 627.121318 166.558204 
L 621.550591 166.558204 
z
" style="fill:#17a589;"/>
   </g>
   <g id="patch_74">
    <path clip-path="url(#ped341963d1)" d="M 658.688773 342.2 
L 664.2595 342.2 
L 664.2595 166.558204 
L 658.688773 166.558204 
z
" style="fill:#17a589;"/>
   </g>
   <g id="patch_75">
    <path clip-path="url(#ped341963d1)" d="M 695.826955 342.2 
L 701.397682 342.2 
L 701.397682 166.558204 
L 695.826955 166.558204 
z
" style="fill:#17a589;"/>
   </g>
   <g id="patch_76">
    <path clip-path="url(#ped341963d1)" d="M 732.965136 342.2 
L 738.535864 342.2 
L 738.535864 160.604245 
L 732.965136 160.604245 
z
" style="fill:#17a589;"/>
   </g>
   <g id="patch_77">
    <path clip-path="url(#ped341963d1)" d="M 770.103318 342.2 
L 775.674045 342.2 
L 775.674045 160.604245 
L 770.103318 160.604245 
z
" style="fill:#17a589;"/>
   </g>
   <g id="patch_78">
    <path clip-path="url(#ped341963d1)" d="M 807.2415 342.2 
L 812.812227 342.2 
L 812.812227 133.811429 
L 807.2415 133.811429 
z
" style="fill:#17a589;"/>
   </g>
   <g id="patch_79">
    <path clip-path="url(#ped341963d1)" d="M 144.324955 342.2 
L 149.895682 342.2 
L 149.895682 283.52749 
L 144.324955 283.52749 
z
" style="fill:#839192;"/>
   </g>
   <g id="patch_80">
    <path clip-path="url(#ped341963d1)" d="M 181.463136 342.2 
L 187.033864 342.2 
L 187.033864 259.249209 
L 181.463136 259.249209 
z
" style="fill:#839192;"/>
   </g>
   <g id="patch_81">
    <path clip-path="url(#ped341963d1)" d="M 218.601318 342.2 
L 224.172045 342.2 
L 224.172045 245.086879 
L 218.601318 245.086879 
z
" style="fill:#839192;"/>
   </g>
   <g id="patch_82">
    <path clip-path="url(#ped341963d1)" d="M 255.7395 342.2 
L 261.310227 342.2 
L 261.310227 230.924549 
L 255.7395 230.924549 
z
" style="fill:#839192;"/>
   </g>
   <g id="patch_83">
    <path clip-path="url(#ped341963d1)" d="M 292.877682 342.2 
L 298.448409 342.2 
L 298.448409 216.762219 
L 292.877682 216.762219 
z
" style="fill:#839192;"/>
   </g>
   <g id="patch_84">
    <path clip-path="url(#ped341963d1)" d="M 330.015864 342.2 
L 335.586591 342.2 
L 335.586591 210.692649 
L 330.015864 210.692649 
z
" style="fill:#839192;"/>
   </g>
   <g id="patch_85">
    <path clip-path="url(#ped341963d1)" d="M 367.154045 342.2 
L 372.724773 342.2 
L 372.724773 194.507129 
L 367.154045 194.507129 
z
" style="fill:#839192;"/>
   </g>
   <g id="patch_86">
    <path clip-path="url(#ped341963d1)" d="M 404.292227 342.2 
L 409.862955 342.2 
L 409.862955 186.414369 
L 404.292227 186.414369 
z
" style="fill:#839192;"/>
   </g>
   <g id="patch_87">
    <path clip-path="url(#ped341963d1)" d="M 441.430409 342.2 
L 447.001136 342.2 
L 447.001136 182.367989 
L 441.430409 182.367989 
z
" style="fill:#839192;"/>
   </g>
   <g id="patch_88">
    <path clip-path="url(#ped341963d1)" d="M 478.568591 342.2 
L 484.139318 342.2 
L 484.139318 180.344799 
L 478.568591 180.344799 
z
" style="fill:#839192;"/>
   </g>
   <g id="patch_89">
    <path clip-path="url(#ped341963d1)" d="M 515.706773 342.2 
L 521.2775 342.2 
L 521.2775 180.344799 
L 515.706773 180.344799 
z
" style="fill:#839192;"/>
   </g>
   <g id="patch_90">
    <path clip-path="url(#ped341963d1)" d="M 552.844955 342.2 
L 558.415682 342.2 
L 558.415682 176.298419 
L 552.844955 176.298419 
z
" style="fill:#839192;"/>
   </g>
   <g id="patch_91">
    <path clip-path="url(#ped341963d1)" d="M 589.983136 342.2 
L 595.553864 342.2 
L 595.553864 170.228849 
L 589.983136 170.228849 
z
" style="fill:#839192;"/>
   </g>
   <g id="patch_92">
    <path clip-path="url(#ped341963d1)" d="M 627.121318 342.2 
L 632.692045 342.2 
L 632.692045 166.182469 
L 627.121318 166.182469 
z
" style="fill:#839192;"/>
   </g>
   <g id="patch_93">
    <path clip-path="url(#ped341963d1)" d="M 664.2595 342.2 
L 669.830227 342.2 
L 669.830227 156.066519 
L 664.2595 156.066519 
z
" style="fill:#839192;"/>
   </g>
   <g id="patch_94">
    <path clip-path="url(#ped341963d1)" d="M 701.397682 342.2 
L 706.968409 342.2 
L 706.968409 154.043329 
L 701.397682 154.043329 
z
" style="fill:#839192;"/>
   </g>
   <g id="patch_95">
    <path clip-path="url(#ped341963d1)" d="M 738.535864 342.2 
L 744.106591 342.2 
L 744.106591 152.020139 
L 738.535864 152.020139 
z
" style="fill:#839192;"/>
   </g>
   <g id="patch_96">
    <path clip-path="url(#ped341963d1)" d="M 775.674045 342.2 
L 781.244773 342.2 
L 781.244773 149.996949 
L 775.674045 149.996949 
z
" style="fill:#839192;"/>
   </g>
   <g id="patch_97">
    <path clip-path="url(#ped341963d1)" d="M 812.812227 342.2 
L 818.382955 342.2 
L 818.382955 133.811429 
L 812.812227 133.811429 
z
" style="fill:#839192;"/>
   </g>
   <g id="matplotlib.axis_1">
    <g id="xtick_1">
     <g id="line2d_1">
      <defs>
       <path d="M 0 0 
L 0 3.5 
" id="m5f8e952398" style="stroke:#000000;stroke-width:0.8;"/>
      </defs>
      <g>
       <use style="stroke:#000000;stroke-width:0.8;" x="135.040409" xlink:href="#m5f8e952398" y="342.2"/>
      </g>
     </g>
     <g id="text_1">
      <!-- 2 -->
      <g transform="translate(130.586659 359.837812)scale(0.14 -0.14)">
       <defs>
        <path d="M 19.1875 8.296875 
L 53.609375 8.296875 
L 53.609375 0 
L 7.328125 0 
L 7.328125 8.296875 
Q 12.9375 14.109375 22.625 23.890625 
Q 32.328125 33.6875 34.8125 36.53125 
Q 39.546875 41.84375 41.421875 45.53125 
Q 43.3125 49.21875 43.3125 52.78125 
Q 43.3125 58.59375 39.234375 62.25 
Q 35.15625 65.921875 28.609375 65.921875 
Q 23.96875 65.921875 18.8125 64.3125 
Q 13.671875 62.703125 7.8125 59.421875 
L 7.8125 69.390625 
Q 13.765625 71.78125 18.9375 73 
Q 24.125 74.21875 28.421875 74.21875 
Q 39.75 74.21875 46.484375 68.546875 
Q 53.21875 62.890625 53.21875 53.421875 
Q 53.21875 48.921875 51.53125 44.890625 
Q 49.859375 40.875 45.40625 35.40625 
Q 44.1875 33.984375 37.640625 27.21875 
Q 31.109375 20.453125 19.1875 8.296875 
z
" id="DejaVuSans-50"/>
       </defs>
       <use xlink:href="#DejaVuSans-50"/>
      </g>
     </g>
    </g>
    <g id="xtick_2">
     <g id="line2d_2">
      <g>
       <use style="stroke:#000000;stroke-width:0.8;" x="209.316773" xlink:href="#m5f8e952398" y="342.2"/>
      </g>
     </g>
     <g id="text_2">
      <!-- 4 -->
      <g transform="translate(204.863023 359.837812)scale(0.14 -0.14)">
       <defs>
        <path d="M 37.796875 64.3125 
L 12.890625 25.390625 
L 37.796875 25.390625 
z
M 35.203125 72.90625 
L 47.609375 72.90625 
L 47.609375 25.390625 
L 58.015625 25.390625 
L 58.015625 17.1875 
L 47.609375 17.1875 
L 47.609375 0 
L 37.796875 0 
L 37.796875 17.1875 
L 4.890625 17.1875 
L 4.890625 26.703125 
z
" id="DejaVuSans-52"/>
       </defs>
       <use xlink:href="#DejaVuSans-52"/>
      </g>
     </g>
    </g>
    <g id="xtick_3">
     <g id="line2d_3">
      <g>
       <use style="stroke:#000000;stroke-width:0.8;" x="283.593136" xlink:href="#m5f8e952398" y="342.2"/>
      </g>
     </g>
     <g id="text_3">
      <!-- 6 -->
      <g transform="translate(279.139386 359.837812)scale(0.14 -0.14)">
       <defs>
        <path d="M 33.015625 40.375 
Q 26.375 40.375 22.484375 35.828125 
Q 18.609375 31.296875 18.609375 23.390625 
Q 18.609375 15.53125 22.484375 10.953125 
Q 26.375 6.390625 33.015625 6.390625 
Q 39.65625 6.390625 43.53125 10.953125 
Q 47.40625 15.53125 47.40625 23.390625 
Q 47.40625 31.296875 43.53125 35.828125 
Q 39.65625 40.375 33.015625 40.375 
z
M 52.59375 71.296875 
L 52.59375 62.3125 
Q 48.875 64.0625 45.09375 64.984375 
Q 41.3125 65.921875 37.59375 65.921875 
Q 27.828125 65.921875 22.671875 59.328125 
Q 17.53125 52.734375 16.796875 39.40625 
Q 19.671875 43.65625 24.015625 45.921875 
Q 28.375 48.1875 33.59375 48.1875 
Q 44.578125 48.1875 50.953125 41.515625 
Q 57.328125 34.859375 57.328125 23.390625 
Q 57.328125 12.15625 50.6875 5.359375 
Q 44.046875 -1.421875 33.015625 -1.421875 
Q 20.359375 -1.421875 13.671875 8.265625 
Q 6.984375 17.96875 6.984375 36.375 
Q 6.984375 53.65625 15.1875 63.9375 
Q 23.390625 74.21875 37.203125 74.21875 
Q 40.921875 74.21875 44.703125 73.484375 
Q 48.484375 72.75 52.59375 71.296875 
z
" id="DejaVuSans-54"/>
       </defs>
       <use xlink:href="#DejaVuSans-54"/>
      </g>
     </g>
    </g>
    <g id="xtick_4">
     <g id="line2d_4">
      <g>
       <use style="stroke:#000000;stroke-width:0.8;" x="357.8695" xlink:href="#m5f8e952398" y="342.2"/>
      </g>
     </g>
     <g id="text_4">
      <!-- 8 -->
      <g transform="translate(353.41575 359.837812)scale(0.14 -0.14)">
       <defs>
        <path d="M 31.78125 34.625 
Q 24.75 34.625 20.71875 30.859375 
Q 16.703125 27.09375 16.703125 20.515625 
Q 16.703125 13.921875 20.71875 10.15625 
Q 24.75 6.390625 31.78125 6.390625 
Q 38.8125 6.390625 42.859375 10.171875 
Q 46.921875 13.96875 46.921875 20.515625 
Q 46.921875 27.09375 42.890625 30.859375 
Q 38.875 34.625 31.78125 34.625 
z
M 21.921875 38.8125 
Q 15.578125 40.375 12.03125 44.71875 
Q 8.5 49.078125 8.5 55.328125 
Q 8.5 64.0625 14.71875 69.140625 
Q 20.953125 74.21875 31.78125 74.21875 
Q 42.671875 74.21875 48.875 69.140625 
Q 55.078125 64.0625 55.078125 55.328125 
Q 55.078125 49.078125 51.53125 44.71875 
Q 48 40.375 41.703125 38.8125 
Q 48.828125 37.15625 52.796875 32.3125 
Q 56.78125 27.484375 56.78125 20.515625 
Q 56.78125 9.90625 50.3125 4.234375 
Q 43.84375 -1.421875 31.78125 -1.421875 
Q 19.734375 -1.421875 13.25 4.234375 
Q 6.78125 9.90625 6.78125 20.515625 
Q 6.78125 27.484375 10.78125 32.3125 
Q 14.796875 37.15625 21.921875 38.8125 
z
M 18.3125 54.390625 
Q 18.3125 48.734375 21.84375 45.5625 
Q 25.390625 42.390625 31.78125 42.390625 
Q 38.140625 42.390625 41.71875 45.5625 
Q 45.3125 48.734375 45.3125 54.390625 
Q 45.3125 60.0625 41.71875 63.234375 
Q 38.140625 66.40625 31.78125 66.40625 
Q 25.390625 66.40625 21.84375 63.234375 
Q 18.3125 60.0625 18.3125 54.390625 
z
" id="DejaVuSans-56"/>
       </defs>
       <use xlink:href="#DejaVuSans-56"/>
      </g>
     </g>
    </g>
    <g id="xtick_5">
     <g id="line2d_5">
      <g>
       <use style="stroke:#000000;stroke-width:0.8;" x="432.145864" xlink:href="#m5f8e952398" y="342.2"/>
      </g>
     </g>
     <g id="text_5">
      <!-- 10 -->
      <g transform="translate(423.238364 359.837812)scale(0.14 -0.14)">
       <defs>
        <path d="M 12.40625 8.296875 
L 28.515625 8.296875 
L 28.515625 63.921875 
L 10.984375 60.40625 
L 10.984375 69.390625 
L 28.421875 72.90625 
L 38.28125 72.90625 
L 38.28125 8.296875 
L 54.390625 8.296875 
L 54.390625 0 
L 12.40625 0 
z
" id="DejaVuSans-49"/>
        <path d="M 31.78125 66.40625 
Q 24.171875 66.40625 20.328125 58.90625 
Q 16.5 51.421875 16.5 36.375 
Q 16.5 21.390625 20.328125 13.890625 
Q 24.171875 6.390625 31.78125 6.390625 
Q 39.453125 6.390625 43.28125 13.890625 
Q 47.125 21.390625 47.125 36.375 
Q 47.125 51.421875 43.28125 58.90625 
Q 39.453125 66.40625 31.78125 66.40625 
z
M 31.78125 74.21875 
Q 44.046875 74.21875 50.515625 64.515625 
Q 56.984375 54.828125 56.984375 36.375 
Q 56.984375 17.96875 50.515625 8.265625 
Q 44.046875 -1.421875 31.78125 -1.421875 
Q 19.53125 -1.421875 13.0625 8.265625 
Q 6.59375 17.96875 6.59375 36.375 
Q 6.59375 54.828125 13.0625 64.515625 
Q 19.53125 74.21875 31.78125 74.21875 
z
" id="DejaVuSans-48"/>
       </defs>
       <use xlink:href="#DejaVuSans-49"/>
       <use x="63.623047" xlink:href="#DejaVuSans-48"/>
      </g>
     </g>
    </g>
    <g id="xtick_6">
     <g id="line2d_6">
      <g>
       <use style="stroke:#000000;stroke-width:0.8;" x="506.422227" xlink:href="#m5f8e952398" y="342.2"/>
      </g>
     </g>
     <g id="text_6">
      <!-- 12 -->
      <g transform="translate(497.514727 359.837812)scale(0.14 -0.14)">
       <use xlink:href="#DejaVuSans-49"/>
       <use x="63.623047" xlink:href="#DejaVuSans-50"/>
      </g>
     </g>
    </g>
    <g id="xtick_7">
     <g id="line2d_7">
      <g>
       <use style="stroke:#000000;stroke-width:0.8;" x="580.698591" xlink:href="#m5f8e952398" y="342.2"/>
      </g>
     </g>
     <g id="text_7">
      <!-- 14 -->
      <g transform="translate(571.791091 359.837812)scale(0.14 -0.14)">
       <use xlink:href="#DejaVuSans-49"/>
       <use x="63.623047" xlink:href="#DejaVuSans-52"/>
      </g>
     </g>
    </g>
    <g id="xtick_8">
     <g id="line2d_8">
      <g>
       <use style="stroke:#000000;stroke-width:0.8;" x="654.974955" xlink:href="#m5f8e952398" y="342.2"/>
      </g>
     </g>
     <g id="text_8">
      <!-- 16 -->
      <g transform="translate(646.067455 359.837812)scale(0.14 -0.14)">
       <use xlink:href="#DejaVuSans-49"/>
       <use x="63.623047" xlink:href="#DejaVuSans-54"/>
      </g>
     </g>
    </g>
    <g id="xtick_9">
     <g id="line2d_9">
      <g>
       <use style="stroke:#000000;stroke-width:0.8;" x="729.251318" xlink:href="#m5f8e952398" y="342.2"/>
      </g>
     </g>
     <g id="text_9">
      <!-- 18 -->
      <g transform="translate(720.343818 359.837812)scale(0.14 -0.14)">
       <use xlink:href="#DejaVuSans-49"/>
       <use x="63.623047" xlink:href="#DejaVuSans-56"/>
      </g>
     </g>
    </g>
    <g id="xtick_10">
     <g id="line2d_10">
      <g>
       <use style="stroke:#000000;stroke-width:0.8;" x="803.527682" xlink:href="#m5f8e952398" y="342.2"/>
      </g>
     </g>
     <g id="text_10">
      <!-- 20+ -->
      <g transform="translate(788.754401 359.837812)scale(0.14 -0.14)">
       <defs>
        <path d="M 46 62.703125 
L 46 35.5 
L 73.1875 35.5 
L 73.1875 27.203125 
L 46 27.203125 
L 46 0 
L 37.796875 0 
L 37.796875 27.203125 
L 10.59375 27.203125 
L 10.59375 35.5 
L 37.796875 35.5 
L 37.796875 62.703125 
z
" id="DejaVuSans-43"/>
       </defs>
       <use xlink:href="#DejaVuSans-50"/>
       <use x="63.623047" xlink:href="#DejaVuSans-48"/>
       <use x="127.246094" xlink:href="#DejaVuSans-43"/>
      </g>
     </g>
    </g>
    <g id="text_11">
     <!-- cluster size -->
     <g transform="translate(419.295 380.426562)scale(0.18 -0.18)">
      <defs>
       <path d="M 48.78125 52.59375 
L 48.78125 44.1875 
Q 44.96875 46.296875 41.140625 47.34375 
Q 37.3125 48.390625 33.40625 48.390625 
Q 24.65625 48.390625 19.8125 42.84375 
Q 14.984375 37.3125 14.984375 27.296875 
Q 14.984375 17.28125 19.8125 11.734375 
Q 24.65625 6.203125 33.40625 6.203125 
Q 37.3125 6.203125 41.140625 7.25 
Q 44.96875 8.296875 48.78125 10.40625 
L 48.78125 2.09375 
Q 45.015625 0.34375 40.984375 -0.53125 
Q 36.96875 -1.421875 32.421875 -1.421875 
Q 20.0625 -1.421875 12.78125 6.34375 
Q 5.515625 14.109375 5.515625 27.296875 
Q 5.515625 40.671875 12.859375 48.328125 
Q 20.21875 56 33.015625 56 
Q 37.15625 56 41.109375 55.140625 
Q 45.0625 54.296875 48.78125 52.59375 
z
" id="DejaVuSans-99"/>
       <path d="M 9.421875 75.984375 
L 18.40625 75.984375 
L 18.40625 0 
L 9.421875 0 
z
" id="DejaVuSans-108"/>
       <path d="M 8.5 21.578125 
L 8.5 54.6875 
L 17.484375 54.6875 
L 17.484375 21.921875 
Q 17.484375 14.15625 20.5 10.265625 
Q 23.53125 6.390625 29.59375 6.390625 
Q 36.859375 6.390625 41.078125 11.03125 
Q 45.3125 15.671875 45.3125 23.6875 
L 45.3125 54.6875 
L 54.296875 54.6875 
L 54.296875 0 
L 45.3125 0 
L 45.3125 8.40625 
Q 42.046875 3.421875 37.71875 1 
Q 33.40625 -1.421875 27.6875 -1.421875 
Q 18.265625 -1.421875 13.375 4.4375 
Q 8.5 10.296875 8.5 21.578125 
z
M 31.109375 56 
z
" id="DejaVuSans-117"/>
       <path d="M 44.28125 53.078125 
L 44.28125 44.578125 
Q 40.484375 46.53125 36.375 47.5 
Q 32.28125 48.484375 27.875 48.484375 
Q 21.1875 48.484375 17.84375 46.4375 
Q 14.5 44.390625 14.5 40.28125 
Q 14.5 37.15625 16.890625 35.375 
Q 19.28125 33.59375 26.515625 31.984375 
L 29.59375 31.296875 
Q 39.15625 29.25 43.1875 25.515625 
Q 47.21875 21.78125 47.21875 15.09375 
Q 47.21875 7.46875 41.1875 3.015625 
Q 35.15625 -1.421875 24.609375 -1.421875 
Q 20.21875 -1.421875 15.453125 -0.5625 
Q 10.6875 0.296875 5.421875 2 
L 5.421875 11.28125 
Q 10.40625 8.6875 15.234375 7.390625 
Q 20.0625 6.109375 24.8125 6.109375 
Q 31.15625 6.109375 34.5625 8.28125 
Q 37.984375 10.453125 37.984375 14.40625 
Q 37.984375 18.0625 35.515625 20.015625 
Q 33.0625 21.96875 24.703125 23.78125 
L 21.578125 24.515625 
Q 13.234375 26.265625 9.515625 29.90625 
Q 5.8125 33.546875 5.8125 39.890625 
Q 5.8125 47.609375 11.28125 51.796875 
Q 16.75 56 26.8125 56 
Q 31.78125 56 36.171875 55.265625 
Q 40.578125 54.546875 44.28125 53.078125 
z
" id="DejaVuSans-115"/>
       <path d="M 18.3125 70.21875 
L 18.3125 54.6875 
L 36.8125 54.6875 
L 36.8125 47.703125 
L 18.3125 47.703125 
L 18.3125 18.015625 
Q 18.3125 11.328125 20.140625 9.421875 
Q 21.96875 7.515625 27.59375 7.515625 
L 36.8125 7.515625 
L 36.8125 0 
L 27.59375 0 
Q 17.1875 0 13.234375 3.875 
Q 9.28125 7.765625 9.28125 18.015625 
L 9.28125 47.703125 
L 2.6875 47.703125 
L 2.6875 54.6875 
L 9.28125 54.6875 
L 9.28125 70.21875 
z
" id="DejaVuSans-116"/>
       <path d="M 56.203125 29.59375 
L 56.203125 25.203125 
L 14.890625 25.203125 
Q 15.484375 15.921875 20.484375 11.0625 
Q 25.484375 6.203125 34.421875 6.203125 
Q 39.59375 6.203125 44.453125 7.46875 
Q 49.3125 8.734375 54.109375 11.28125 
L 54.109375 2.78125 
Q 49.265625 0.734375 44.1875 -0.34375 
Q 39.109375 -1.421875 33.890625 -1.421875 
Q 20.796875 -1.421875 13.15625 6.1875 
Q 5.515625 13.8125 5.515625 26.8125 
Q 5.515625 40.234375 12.765625 48.109375 
Q 20.015625 56 32.328125 56 
Q 43.359375 56 49.78125 48.890625 
Q 56.203125 41.796875 56.203125 29.59375 
z
M 47.21875 32.234375 
Q 47.125 39.59375 43.09375 43.984375 
Q 39.0625 48.390625 32.421875 48.390625 
Q 24.90625 48.390625 20.390625 44.140625 
Q 15.875 39.890625 15.1875 32.171875 
z
" id="DejaVuSans-101"/>
       <path d="M 41.109375 46.296875 
Q 39.59375 47.171875 37.8125 47.578125 
Q 36.03125 48 33.890625 48 
Q 26.265625 48 22.1875 43.046875 
Q 18.109375 38.09375 18.109375 28.8125 
L 18.109375 0 
L 9.078125 0 
L 9.078125 54.6875 
L 18.109375 54.6875 
L 18.109375 46.1875 
Q 20.953125 51.171875 25.484375 53.578125 
Q 30.03125 56 36.53125 56 
Q 37.453125 56 38.578125 55.875 
Q 39.703125 55.765625 41.0625 55.515625 
z
" id="DejaVuSans-114"/>
       <path id="DejaVuSans-32"/>
       <path d="M 9.421875 54.6875 
L 18.40625 54.6875 
L 18.40625 0 
L 9.421875 0 
z
M 9.421875 75.984375 
L 18.40625 75.984375 
L 18.40625 64.59375 
L 9.421875 64.59375 
z
" id="DejaVuSans-105"/>
       <path d="M 5.515625 54.6875 
L 48.1875 54.6875 
L 48.1875 46.484375 
L 14.40625 7.171875 
L 48.1875 7.171875 
L 48.1875 0 
L 4.296875 0 
L 4.296875 8.203125 
L 38.09375 47.515625 
L 5.515625 47.515625 
z
" id="DejaVuSans-122"/>
      </defs>
      <use xlink:href="#DejaVuSans-99"/>
      <use x="54.980469" xlink:href="#DejaVuSans-108"/>
      <use x="82.763672" xlink:href="#DejaVuSans-117"/>
      <use x="146.142578" xlink:href="#DejaVuSans-115"/>
      <use x="198.242188" xlink:href="#DejaVuSans-116"/>
      <use x="237.451172" xlink:href="#DejaVuSans-101"/>
      <use x="298.974609" xlink:href="#DejaVuSans-114"/>
      <use x="340.087891" xlink:href="#DejaVuSans-32"/>
      <use x="371.875" xlink:href="#DejaVuSans-115"/>
      <use x="423.974609" xlink:href="#DejaVuSans-105"/>
      <use x="451.757812" xlink:href="#DejaVuSans-122"/>
      <use x="504.248047" xlink:href="#DejaVuSans-101"/>
     </g>
    </g>
   </g>
   <g id="matplotlib.axis_2">
    <g id="ytick_1">
     <g id="line2d_11">
      <defs>
       <path d="M 0 0 
L -3.5 0 
" id="ma3851f96aa" style="stroke:#000000;stroke-width:0.8;"/>
      </defs>
      <g>
       <use style="stroke:#000000;stroke-width:0.8;" x="87.225" xlink:href="#ma3851f96aa" y="342.2"/>
      </g>
     </g>
     <g id="text_12">
      <!-- 0 -->
      <g transform="translate(71.3175 347.518906)scale(0.14 -0.14)">
       <use xlink:href="#DejaVuSans-48"/>
      </g>
     </g>
    </g>
    <g id="ytick_2">
     <g id="line2d_12">
      <g>
       <use style="stroke:#000000;stroke-width:0.8;" x="87.225" xlink:href="#ma3851f96aa" y="300.522286"/>
      </g>
     </g>
     <g id="text_13">
      <!-- 20 -->
      <g transform="translate(62.41 305.841192)scale(0.14 -0.14)">
       <use xlink:href="#DejaVuSans-50"/>
       <use x="63.623047" xlink:href="#DejaVuSans-48"/>
      </g>
     </g>
    </g>
    <g id="ytick_3">
     <g id="line2d_13">
      <g>
       <use style="stroke:#000000;stroke-width:0.8;" x="87.225" xlink:href="#ma3851f96aa" y="258.844571"/>
      </g>
     </g>
     <g id="text_14">
      <!-- 40 -->
      <g transform="translate(62.41 264.163478)scale(0.14 -0.14)">
       <use xlink:href="#DejaVuSans-52"/>
       <use x="63.623047" xlink:href="#DejaVuSans-48"/>
      </g>
     </g>
    </g>
    <g id="ytick_4">
     <g id="line2d_14">
      <g>
       <use style="stroke:#000000;stroke-width:0.8;" x="87.225" xlink:href="#ma3851f96aa" y="217.166857"/>
      </g>
     </g>
     <g id="text_15">
      <!-- 60 -->
      <g transform="translate(62.41 222.485763)scale(0.14 -0.14)">
       <use xlink:href="#DejaVuSans-54"/>
       <use x="63.623047" xlink:href="#DejaVuSans-48"/>
      </g>
     </g>
    </g>
    <g id="ytick_5">
     <g id="line2d_15">
      <g>
       <use style="stroke:#000000;stroke-width:0.8;" x="87.225" xlink:href="#ma3851f96aa" y="175.489143"/>
      </g>
     </g>
     <g id="text_16">
      <!-- 80 -->
      <g transform="translate(62.41 180.808049)scale(0.14 -0.14)">
       <use xlink:href="#DejaVuSans-56"/>
       <use x="63.623047" xlink:href="#DejaVuSans-48"/>
      </g>
     </g>
    </g>
    <g id="ytick_6">
     <g id="line2d_16">
      <g>
       <use style="stroke:#000000;stroke-width:0.8;" x="87.225" xlink:href="#ma3851f96aa" y="133.811429"/>
      </g>
     </g>
     <g id="text_17">
      <!-- 100 -->
      <g transform="translate(53.5025 139.130335)scale(0.14 -0.14)">
       <use xlink:href="#DejaVuSans-49"/>
       <use x="63.623047" xlink:href="#DejaVuSans-48"/>
       <use x="127.246094" xlink:href="#DejaVuSans-48"/>
      </g>
     </g>
    </g>
    <g id="text_18">
     <!-- cumulative distribution -->
     <g transform="translate(25.603 336.975219)rotate(-90)scale(0.18 -0.18)">
      <defs>
       <path d="M 52 44.1875 
Q 55.375 50.25 60.0625 53.125 
Q 64.75 56 71.09375 56 
Q 79.640625 56 84.28125 50.015625 
Q 88.921875 44.046875 88.921875 33.015625 
L 88.921875 0 
L 79.890625 0 
L 79.890625 32.71875 
Q 79.890625 40.578125 77.09375 44.375 
Q 74.3125 48.1875 68.609375 48.1875 
Q 61.625 48.1875 57.5625 43.546875 
Q 53.515625 38.921875 53.515625 30.90625 
L 53.515625 0 
L 44.484375 0 
L 44.484375 32.71875 
Q 44.484375 40.625 41.703125 44.40625 
Q 38.921875 48.1875 33.109375 48.1875 
Q 26.21875 48.1875 22.15625 43.53125 
Q 18.109375 38.875 18.109375 30.90625 
L 18.109375 0 
L 9.078125 0 
L 9.078125 54.6875 
L 18.109375 54.6875 
L 18.109375 46.1875 
Q 21.1875 51.21875 25.484375 53.609375 
Q 29.78125 56 35.6875 56 
Q 41.65625 56 45.828125 52.96875 
Q 50 49.953125 52 44.1875 
z
" id="DejaVuSans-109"/>
       <path d="M 34.28125 27.484375 
Q 23.390625 27.484375 19.1875 25 
Q 14.984375 22.515625 14.984375 16.5 
Q 14.984375 11.71875 18.140625 8.90625 
Q 21.296875 6.109375 26.703125 6.109375 
Q 34.1875 6.109375 38.703125 11.40625 
Q 43.21875 16.703125 43.21875 25.484375 
L 43.21875 27.484375 
z
M 52.203125 31.203125 
L 52.203125 0 
L 43.21875 0 
L 43.21875 8.296875 
Q 40.140625 3.328125 35.546875 0.953125 
Q 30.953125 -1.421875 24.3125 -1.421875 
Q 15.921875 -1.421875 10.953125 3.296875 
Q 6 8.015625 6 15.921875 
Q 6 25.140625 12.171875 29.828125 
Q 18.359375 34.515625 30.609375 34.515625 
L 43.21875 34.515625 
L 43.21875 35.40625 
Q 43.21875 41.609375 39.140625 45 
Q 35.0625 48.390625 27.6875 48.390625 
Q 23 48.390625 18.546875 47.265625 
Q 14.109375 46.140625 10.015625 43.890625 
L 10.015625 52.203125 
Q 14.9375 54.109375 19.578125 55.046875 
Q 24.21875 56 28.609375 56 
Q 40.484375 56 46.34375 49.84375 
Q 52.203125 43.703125 52.203125 31.203125 
z
" id="DejaVuSans-97"/>
       <path d="M 2.984375 54.6875 
L 12.5 54.6875 
L 29.59375 8.796875 
L 46.6875 54.6875 
L 56.203125 54.6875 
L 35.6875 0 
L 23.484375 0 
z
" id="DejaVuSans-118"/>
       <path d="M 45.40625 46.390625 
L 45.40625 75.984375 
L 54.390625 75.984375 
L 54.390625 0 
L 45.40625 0 
L 45.40625 8.203125 
Q 42.578125 3.328125 38.25 0.953125 
Q 33.9375 -1.421875 27.875 -1.421875 
Q 17.96875 -1.421875 11.734375 6.484375 
Q 5.515625 14.40625 5.515625 27.296875 
Q 5.515625 40.1875 11.734375 48.09375 
Q 17.96875 56 27.875 56 
Q 33.9375 56 38.25 53.625 
Q 42.578125 51.265625 45.40625 46.390625 
z
M 14.796875 27.296875 
Q 14.796875 17.390625 18.875 11.75 
Q 22.953125 6.109375 30.078125 6.109375 
Q 37.203125 6.109375 41.296875 11.75 
Q 45.40625 17.390625 45.40625 27.296875 
Q 45.40625 37.203125 41.296875 42.84375 
Q 37.203125 48.484375 30.078125 48.484375 
Q 22.953125 48.484375 18.875 42.84375 
Q 14.796875 37.203125 14.796875 27.296875 
z
" id="DejaVuSans-100"/>
       <path d="M 48.6875 27.296875 
Q 48.6875 37.203125 44.609375 42.84375 
Q 40.53125 48.484375 33.40625 48.484375 
Q 26.265625 48.484375 22.1875 42.84375 
Q 18.109375 37.203125 18.109375 27.296875 
Q 18.109375 17.390625 22.1875 11.75 
Q 26.265625 6.109375 33.40625 6.109375 
Q 40.53125 6.109375 44.609375 11.75 
Q 48.6875 17.390625 48.6875 27.296875 
z
M 18.109375 46.390625 
Q 20.953125 51.265625 25.265625 53.625 
Q 29.59375 56 35.59375 56 
Q 45.5625 56 51.78125 48.09375 
Q 58.015625 40.1875 58.015625 27.296875 
Q 58.015625 14.40625 51.78125 6.484375 
Q 45.5625 -1.421875 35.59375 -1.421875 
Q 29.59375 -1.421875 25.265625 0.953125 
Q 20.953125 3.328125 18.109375 8.203125 
L 18.109375 0 
L 9.078125 0 
L 9.078125 75.984375 
L 18.109375 75.984375 
z
" id="DejaVuSans-98"/>
       <path d="M 30.609375 48.390625 
Q 23.390625 48.390625 19.1875 42.75 
Q 14.984375 37.109375 14.984375 27.296875 
Q 14.984375 17.484375 19.15625 11.84375 
Q 23.34375 6.203125 30.609375 6.203125 
Q 37.796875 6.203125 41.984375 11.859375 
Q 46.1875 17.53125 46.1875 27.296875 
Q 46.1875 37.015625 41.984375 42.703125 
Q 37.796875 48.390625 30.609375 48.390625 
z
M 30.609375 56 
Q 42.328125 56 49.015625 48.375 
Q 55.71875 40.765625 55.71875 27.296875 
Q 55.71875 13.875 49.015625 6.21875 
Q 42.328125 -1.421875 30.609375 -1.421875 
Q 18.84375 -1.421875 12.171875 6.21875 
Q 5.515625 13.875 5.515625 27.296875 
Q 5.515625 40.765625 12.171875 48.375 
Q 18.84375 56 30.609375 56 
z
" id="DejaVuSans-111"/>
       <path d="M 54.890625 33.015625 
L 54.890625 0 
L 45.90625 0 
L 45.90625 32.71875 
Q 45.90625 40.484375 42.875 44.328125 
Q 39.84375 48.1875 33.796875 48.1875 
Q 26.515625 48.1875 22.3125 43.546875 
Q 18.109375 38.921875 18.109375 30.90625 
L 18.109375 0 
L 9.078125 0 
L 9.078125 54.6875 
L 18.109375 54.6875 
L 18.109375 46.1875 
Q 21.34375 51.125 25.703125 53.5625 
Q 30.078125 56 35.796875 56 
Q 45.21875 56 50.046875 50.171875 
Q 54.890625 44.34375 54.890625 33.015625 
z
" id="DejaVuSans-110"/>
      </defs>
      <use xlink:href="#DejaVuSans-99"/>
      <use x="54.980469" xlink:href="#DejaVuSans-117"/>
      <use x="118.359375" xlink:href="#DejaVuSans-109"/>
      <use x="215.771484" xlink:href="#DejaVuSans-117"/>
      <use x="279.150391" xlink:href="#DejaVuSans-108"/>
      <use x="306.933594" xlink:href="#DejaVuSans-97"/>
      <use x="368.212891" xlink:href="#DejaVuSans-116"/>
      <use x="407.421875" xlink:href="#DejaVuSans-105"/>
      <use x="435.205078" xlink:href="#DejaVuSans-118"/>
      <use x="494.384766" xlink:href="#DejaVuSans-101"/>
      <use x="555.908203" xlink:href="#DejaVuSans-32"/>
      <use x="587.695312" xlink:href="#DejaVuSans-100"/>
      <use x="651.171875" xlink:href="#DejaVuSans-105"/>
      <use x="678.955078" xlink:href="#DejaVuSans-115"/>
      <use x="731.054688" xlink:href="#DejaVuSans-116"/>
      <use x="770.263672" xlink:href="#DejaVuSans-114"/>
      <use x="811.376953" xlink:href="#DejaVuSans-105"/>
      <use x="839.160156" xlink:href="#DejaVuSans-98"/>
      <use x="902.636719" xlink:href="#DejaVuSans-117"/>
      <use x="966.015625" xlink:href="#DejaVuSans-116"/>
      <use x="1005.224609" xlink:href="#DejaVuSans-105"/>
      <use x="1033.007812" xlink:href="#DejaVuSans-111"/>
      <use x="1094.189453" xlink:href="#DejaVuSans-110"/>
     </g>
     <!-- function[%] -->
     <g transform="translate(45.759062 285.133812)rotate(-90)scale(0.18 -0.18)">
      <defs>
       <path d="M 37.109375 75.984375 
L 37.109375 68.5 
L 28.515625 68.5 
Q 23.6875 68.5 21.796875 66.546875 
Q 19.921875 64.59375 19.921875 59.515625 
L 19.921875 54.6875 
L 34.71875 54.6875 
L 34.71875 47.703125 
L 19.921875 47.703125 
L 19.921875 0 
L 10.890625 0 
L 10.890625 47.703125 
L 2.296875 47.703125 
L 2.296875 54.6875 
L 10.890625 54.6875 
L 10.890625 58.5 
Q 10.890625 67.625 15.140625 71.796875 
Q 19.390625 75.984375 28.609375 75.984375 
z
" id="DejaVuSans-102"/>
       <path d="M 8.59375 75.984375 
L 29.296875 75.984375 
L 29.296875 69 
L 17.578125 69 
L 17.578125 -6.203125 
L 29.296875 -6.203125 
L 29.296875 -13.1875 
L 8.59375 -13.1875 
z
" id="DejaVuSans-91"/>
       <path d="M 72.703125 32.078125 
Q 68.453125 32.078125 66.03125 28.46875 
Q 63.625 24.859375 63.625 18.40625 
Q 63.625 12.0625 66.03125 8.421875 
Q 68.453125 4.78125 72.703125 4.78125 
Q 76.859375 4.78125 79.265625 8.421875 
Q 81.6875 12.0625 81.6875 18.40625 
Q 81.6875 24.8125 79.265625 28.4375 
Q 76.859375 32.078125 72.703125 32.078125 
z
M 72.703125 38.28125 
Q 80.421875 38.28125 84.953125 32.90625 
Q 89.5 27.546875 89.5 18.40625 
Q 89.5 9.28125 84.9375 3.921875 
Q 80.375 -1.421875 72.703125 -1.421875 
Q 64.890625 -1.421875 60.34375 3.921875 
Q 55.8125 9.28125 55.8125 18.40625 
Q 55.8125 27.59375 60.375 32.9375 
Q 64.9375 38.28125 72.703125 38.28125 
z
M 22.3125 68.015625 
Q 18.109375 68.015625 15.6875 64.375 
Q 13.28125 60.75 13.28125 54.390625 
Q 13.28125 47.953125 15.671875 44.328125 
Q 18.0625 40.71875 22.3125 40.71875 
Q 26.5625 40.71875 28.96875 44.328125 
Q 31.390625 47.953125 31.390625 54.390625 
Q 31.390625 60.6875 28.953125 64.34375 
Q 26.515625 68.015625 22.3125 68.015625 
z
M 66.40625 74.21875 
L 74.21875 74.21875 
L 28.609375 -1.421875 
L 20.796875 -1.421875 
z
M 22.3125 74.21875 
Q 30.03125 74.21875 34.609375 68.875 
Q 39.203125 63.53125 39.203125 54.390625 
Q 39.203125 45.171875 34.640625 39.84375 
Q 30.078125 34.515625 22.3125 34.515625 
Q 14.546875 34.515625 10.03125 39.859375 
Q 5.515625 45.21875 5.515625 54.390625 
Q 5.515625 63.484375 10.046875 68.84375 
Q 14.59375 74.21875 22.3125 74.21875 
z
" id="DejaVuSans-37"/>
       <path d="M 30.421875 75.984375 
L 30.421875 -13.1875 
L 9.71875 -13.1875 
L 9.71875 -6.203125 
L 21.390625 -6.203125 
L 21.390625 69 
L 9.71875 69 
L 9.71875 75.984375 
z
" id="DejaVuSans-93"/>
      </defs>
      <use xlink:href="#DejaVuSans-102"/>
      <use x="35.205078" xlink:href="#DejaVuSans-117"/>
      <use x="98.583984" xlink:href="#DejaVuSans-110"/>
      <use x="161.962891" xlink:href="#DejaVuSans-99"/>
      <use x="216.943359" xlink:href="#DejaVuSans-116"/>
      <use x="256.152344" xlink:href="#DejaVuSans-105"/>
      <use x="283.935547" xlink:href="#DejaVuSans-111"/>
      <use x="345.117188" xlink:href="#DejaVuSans-110"/>
      <use x="408.496094" xlink:href="#DejaVuSans-91"/>
      <use x="447.509766" xlink:href="#DejaVuSans-37"/>
      <use x="542.529297" xlink:href="#DejaVuSans-93"/>
     </g>
    </g>
   </g>
   <g id="patch_98">
    <path d="M 87.225 342.2 
L 87.225 123.392 
" style="fill:none;stroke:#000000;stroke-linecap:square;stroke-linejoin:miter;stroke-width:0.8;"/>
   </g>
   <g id="patch_99">
    <path d="M 87.225 342.2 
L 853.2 342.2 
" style="fill:none;stroke:#000000;stroke-linecap:square;stroke-linejoin:miter;stroke-width:0.8;"/>
   </g>
   <g id="legend_1">
    <g id="patch_100">
     <path d="M 311.981875 108.716925 
L 628.443125 108.716925 
Q 631.243125 108.716925 631.243125 105.916925 
L 631.243125 45.6688 
Q 631.243125 42.8688 628.443125 42.8688 
L 311.981875 42.8688 
Q 309.181875 42.8688 309.181875 45.6688 
L 309.181875 105.916925 
Q 309.181875 108.716925 311.981875 108.716925 
z
" style="fill:#ffffff;opacity:0.8;stroke:#cccccc;stroke-linejoin:miter;"/>
    </g>
    <g id="patch_101">
     <path d="M 314.781875 59.106613 
L 342.781875 59.106613 
L 342.781875 49.306613 
L 314.781875 49.306613 
z
" style="fill:#2471a3;"/>
    </g>
    <g id="text_19">
     <!-- primary -->
     <g transform="translate(353.981875 59.106613)scale(0.14 -0.14)">
      <defs>
       <path d="M 18.109375 8.203125 
L 18.109375 -20.796875 
L 9.078125 -20.796875 
L 9.078125 54.6875 
L 18.109375 54.6875 
L 18.109375 46.390625 
Q 20.953125 51.265625 25.265625 53.625 
Q 29.59375 56 35.59375 56 
Q 45.5625 56 51.78125 48.09375 
Q 58.015625 40.1875 58.015625 27.296875 
Q 58.015625 14.40625 51.78125 6.484375 
Q 45.5625 -1.421875 35.59375 -1.421875 
Q 29.59375 -1.421875 25.265625 0.953125 
Q 20.953125 3.328125 18.109375 8.203125 
z
M 48.6875 27.296875 
Q 48.6875 37.203125 44.609375 42.84375 
Q 40.53125 48.484375 33.40625 48.484375 
Q 26.265625 48.484375 22.1875 42.84375 
Q 18.109375 37.203125 18.109375 27.296875 
Q 18.109375 17.390625 22.1875 11.75 
Q 26.265625 6.109375 33.40625 6.109375 
Q 40.53125 6.109375 44.609375 11.75 
Q 48.6875 17.390625 48.6875 27.296875 
z
" id="DejaVuSans-112"/>
       <path d="M 32.171875 -5.078125 
Q 28.375 -14.84375 24.75 -17.8125 
Q 21.140625 -20.796875 15.09375 -20.796875 
L 7.90625 -20.796875 
L 7.90625 -13.28125 
L 13.1875 -13.28125 
Q 16.890625 -13.28125 18.9375 -11.515625 
Q 21 -9.765625 23.484375 -3.21875 
L 25.09375 0.875 
L 2.984375 54.6875 
L 12.5 54.6875 
L 29.59375 11.921875 
L 46.6875 54.6875 
L 56.203125 54.6875 
z
" id="DejaVuSans-121"/>
      </defs>
      <use xlink:href="#DejaVuSans-112"/>
      <use x="63.476562" xlink:href="#DejaVuSans-114"/>
      <use x="104.589844" xlink:href="#DejaVuSans-105"/>
      <use x="132.373047" xlink:href="#DejaVuSans-109"/>
      <use x="229.785156" xlink:href="#DejaVuSans-97"/>
      <use x="291.064453" xlink:href="#DejaVuSans-114"/>
      <use x="332.177734" xlink:href="#DejaVuSans-121"/>
     </g>
    </g>
    <g id="patch_102">
     <path d="M 314.781875 79.655988 
L 342.781875 79.655988 
L 342.781875 69.855988 
L 314.781875 69.855988 
z
" style="fill:#c0392b;"/>
    </g>
    <g id="text_20">
     <!-- lower secondary -->
     <g transform="translate(353.981875 79.655988)scale(0.14 -0.14)">
      <defs>
       <path d="M 4.203125 54.6875 
L 13.1875 54.6875 
L 24.421875 12.015625 
L 35.59375 54.6875 
L 46.1875 54.6875 
L 57.421875 12.015625 
L 68.609375 54.6875 
L 77.59375 54.6875 
L 63.28125 0 
L 52.6875 0 
L 40.921875 44.828125 
L 29.109375 0 
L 18.5 0 
z
" id="DejaVuSans-119"/>
      </defs>
      <use xlink:href="#DejaVuSans-108"/>
      <use x="27.783203" xlink:href="#DejaVuSans-111"/>
      <use x="88.964844" xlink:href="#DejaVuSans-119"/>
      <use x="170.751953" xlink:href="#DejaVuSans-101"/>
      <use x="232.275391" xlink:href="#DejaVuSans-114"/>
      <use x="273.388672" xlink:href="#DejaVuSans-32"/>
      <use x="305.175781" xlink:href="#DejaVuSans-115"/>
      <use x="357.275391" xlink:href="#DejaVuSans-101"/>
      <use x="418.798828" xlink:href="#DejaVuSans-99"/>
      <use x="473.779297" xlink:href="#DejaVuSans-111"/>
      <use x="534.960938" xlink:href="#DejaVuSans-110"/>
      <use x="598.339844" xlink:href="#DejaVuSans-100"/>
      <use x="661.816406" xlink:href="#DejaVuSans-97"/>
      <use x="723.095703" xlink:href="#DejaVuSans-114"/>
      <use x="764.208984" xlink:href="#DejaVuSans-121"/>
     </g>
    </g>
    <g id="patch_103">
     <path d="M 314.781875 100.205363 
L 342.781875 100.205363 
L 342.781875 90.405363 
L 314.781875 90.405363 
z
" style="fill:#7d3c98;"/>
    </g>
    <g id="text_21">
     <!-- upper secondary -->
     <g transform="translate(353.981875 100.205363)scale(0.14 -0.14)">
      <use xlink:href="#DejaVuSans-117"/>
      <use x="63.378906" xlink:href="#DejaVuSans-112"/>
      <use x="126.855469" xlink:href="#DejaVuSans-112"/>
      <use x="190.332031" xlink:href="#DejaVuSans-101"/>
      <use x="251.855469" xlink:href="#DejaVuSans-114"/>
      <use x="292.96875" xlink:href="#DejaVuSans-32"/>
      <use x="324.755859" xlink:href="#DejaVuSans-115"/>
      <use x="376.855469" xlink:href="#DejaVuSans-101"/>
      <use x="438.378906" xlink:href="#DejaVuSans-99"/>
      <use x="493.359375" xlink:href="#DejaVuSans-111"/>
      <use x="554.541016" xlink:href="#DejaVuSans-110"/>
      <use x="617.919922" xlink:href="#DejaVuSans-100"/>
      <use x="681.396484" xlink:href="#DejaVuSans-97"/>
      <use x="742.675781" xlink:href="#DejaVuSans-114"/>
      <use x="783.789062" xlink:href="#DejaVuSans-121"/>
     </g>
    </g>
    <g id="patch_104">
     <path d="M 500.001875 59.106613 
L 528.001875 59.106613 
L 528.001875 49.306613 
L 500.001875 49.306613 
z
" style="fill:#17a589;"/>
    </g>
    <g id="text_22">
     <!-- secondary -->
     <g transform="translate(539.201875 59.106613)scale(0.14 -0.14)">
      <use xlink:href="#DejaVuSans-115"/>
      <use x="52.099609" xlink:href="#DejaVuSans-101"/>
      <use x="113.623047" xlink:href="#DejaVuSans-99"/>
      <use x="168.603516" xlink:href="#DejaVuSans-111"/>
      <use x="229.785156" xlink:href="#DejaVuSans-110"/>
      <use x="293.164062" xlink:href="#DejaVuSans-100"/>
      <use x="356.640625" xlink:href="#DejaVuSans-97"/>
      <use x="417.919922" xlink:href="#DejaVuSans-114"/>
      <use x="459.033203" xlink:href="#DejaVuSans-121"/>
     </g>
    </g>
    <g id="patch_105">
     <path d="M 500.001875 79.655988 
L 528.001875 79.655988 
L 528.001875 69.855988 
L 500.001875 69.855988 
z
" style="fill:#839192;"/>
    </g>
    <g id="text_23">
     <!-- inconclusive -->
     <g transform="translate(539.201875 79.655988)scale(0.14 -0.14)">
      <use xlink:href="#DejaVuSans-105"/>
      <use x="27.783203" xlink:href="#DejaVuSans-110"/>
      <use x="91.162109" xlink:href="#DejaVuSans-99"/>
      <use x="146.142578" xlink:href="#DejaVuSans-111"/>
      <use x="207.324219" xlink:href="#DejaVuSans-110"/>
      <use x="270.703125" xlink:href="#DejaVuSans-99"/>
      <use x="325.683594" xlink:href="#DejaVuSans-108"/>
      <use x="353.466797" xlink:href="#DejaVuSans-117"/>
      <use x="416.845703" xlink:href="#DejaVuSans-115"/>
      <use x="468.945312" xlink:href="#DejaVuSans-105"/>
      <use x="496.728516" xlink:href="#DejaVuSans-118"/>
      <use x="555.908203" xlink:href="#DejaVuSans-101"/>
     </g>
    </g>
   </g>
  </g>
 </g>
 <defs>
  <clipPath id="ped341963d1">
   <rect height="218.808" width="765.975" x="87.225" y="123.392"/>
  </clipPath>
 </defs>
</svg>
