<?xml version="1.0" encoding="UTF-8" standalone="no"?>
<!-- Created with Inkscape (http://www.inkscape.org/) -->

<svg
   version="1.1"
   id="svg2"
   xml:space="preserve"
   width="806.31879"
   height="282.84955"
   viewBox="0 0 806.31879 282.84955"
   sodipodi:docname="nursing_home_results_3.svg"
   inkscape:version="1.1.1 (3bf5ae0d25, 2021-09-20)"
   xmlns:inkscape="http://www.inkscape.org/namespaces/inkscape"
   xmlns:sodipodi="http://sodipodi.sourceforge.net/DTD/sodipodi-0.dtd"
   xmlns="http://www.w3.org/2000/svg"
   xmlns:svg="http://www.w3.org/2000/svg"><defs
     id="defs6"><clipPath
       clipPathUnits="userSpaceOnUse"
       id="clipPath16"><path
         d="M 90,305.325 H 355.71429 V 475.2 H 90 Z"
         id="path14" /></clipPath><clipPath
       clipPathUnits="userSpaceOnUse"
       id="clipPath26"><path
         d="M 90,305.325 H 355.71429 V 475.2 H 90 Z"
         id="path24" /></clipPath><clipPath
       clipPathUnits="userSpaceOnUse"
       id="clipPath36"><path
         d="M 90,305.325 H 355.71429 V 475.2 H 90 Z"
         id="path34" /></clipPath><clipPath
       clipPathUnits="userSpaceOnUse"
       id="clipPath46"><path
         d="M 90,305.325 H 355.71429 V 475.2 H 90 Z"
         id="path44" /></clipPath><clipPath
       clipPathUnits="userSpaceOnUse"
       id="clipPath56"><path
         d="M 90,305.325 H 355.71429 V 475.2 H 90 Z"
         id="path54" /></clipPath><clipPath
       clipPathUnits="userSpaceOnUse"
       id="clipPath66"><path
         d="M 90,305.325 H 355.71429 V 475.2 H 90 Z"
         id="path64" /></clipPath><clipPath
       clipPathUnits="userSpaceOnUse"
       id="clipPath76"><path
         d="M 90,305.325 H 355.71429 V 475.2 H 90 Z"
         id="path74" /></clipPath><clipPath
       clipPathUnits="userSpaceOnUse"
       id="clipPath86"><path
         d="M 90,305.325 H 355.71429 V 475.2 H 90 Z"
         id="path84" /></clipPath><clipPath
       clipPathUnits="userSpaceOnUse"
       id="clipPath96"><path
         d="M 90,305.325 H 355.71429 V 475.2 H 90 Z"
         id="path94" /></clipPath><clipPath
       clipPathUnits="userSpaceOnUse"
       id="clipPath106"><path
         d="M 90,305.325 H 355.71429 V 475.2 H 90 Z"
         id="path104" /></clipPath><clipPath
       clipPathUnits="userSpaceOnUse"
       id="clipPath168"><path
         d="M -1021,-463 H 1794 V 1233 H -1021 Z"
         id="path166" /></clipPath><clipPath
       clipPathUnits="userSpaceOnUse"
       id="clipPath230"><path
         d="M 90,305.325 H 355.71429 V 475.2 H 90 Z"
         id="path228" /></clipPath><clipPath
       clipPathUnits="userSpaceOnUse"
       id="clipPath240"><path
         d="M 90,305.325 H 355.71429 V 475.2 H 90 Z"
         id="path238" /></clipPath><clipPath
       clipPathUnits="userSpaceOnUse"
       id="clipPath250"><path
         d="M 90,305.325 H 355.71429 V 475.2 H 90 Z"
         id="path248" /></clipPath><clipPath
       clipPathUnits="userSpaceOnUse"
       id="clipPath260"><path
         d="M 90,305.325 H 355.71429 V 475.2 H 90 Z"
         id="path258" /></clipPath><clipPath
       clipPathUnits="userSpaceOnUse"
       id="clipPath270"><path
         d="M 90,305.325 H 355.71429 V 475.2 H 90 Z"
         id="path268" /></clipPath><clipPath
       clipPathUnits="userSpaceOnUse"
       id="clipPath280"><path
         d="M 90,305.325 H 355.71429 V 475.2 H 90 Z"
         id="path278" /></clipPath><clipPath
       clipPathUnits="userSpaceOnUse"
       id="clipPath290"><path
         d="M 90,305.325 H 355.71429 V 475.2 H 90 Z"
         id="path288" /></clipPath><clipPath
       clipPathUnits="userSpaceOnUse"
       id="clipPath300"><path
         d="M 90,305.325 H 355.71429 V 475.2 H 90 Z"
         id="path298" /></clipPath><clipPath
       clipPathUnits="userSpaceOnUse"
       id="clipPath316"><path
         d="M 90,305.325 H 355.71429 V 475.2 H 90 Z"
         id="path314" /></clipPath><clipPath
       clipPathUnits="userSpaceOnUse"
       id="clipPath326"><path
         d="M 90,305.325 H 355.71429 V 475.2 H 90 Z"
         id="path324" /></clipPath><clipPath
       clipPathUnits="userSpaceOnUse"
       id="clipPath336"><path
         d="M 90,305.325 H 355.71429 V 475.2 H 90 Z"
         id="path334" /></clipPath><clipPath
       clipPathUnits="userSpaceOnUse"
       id="clipPath346"><path
         d="M 90,305.325 H 355.71429 V 475.2 H 90 Z"
         id="path344" /></clipPath><clipPath
       clipPathUnits="userSpaceOnUse"
       id="clipPath366"><path
         d="M 382.28571,305.325 H 648 V 475.2 H 382.28571 Z"
         id="path364" /></clipPath><clipPath
       clipPathUnits="userSpaceOnUse"
       id="clipPath376"><path
         d="M 382.28571,305.325 H 648 V 475.2 H 382.28571 Z"
         id="path374" /></clipPath><clipPath
       clipPathUnits="userSpaceOnUse"
       id="clipPath386"><path
         d="M 382.28571,305.325 H 648 V 475.2 H 382.28571 Z"
         id="path384" /></clipPath><clipPath
       clipPathUnits="userSpaceOnUse"
       id="clipPath396"><path
         d="M 382.28571,305.325 H 648 V 475.2 H 382.28571 Z"
         id="path394" /></clipPath><clipPath
       clipPathUnits="userSpaceOnUse"
       id="clipPath406"><path
         d="M 382.28571,305.325 H 648 V 475.2 H 382.28571 Z"
         id="path404" /></clipPath><clipPath
       clipPathUnits="userSpaceOnUse"
       id="clipPath416"><path
         d="M 382.28571,305.325 H 648 V 475.2 H 382.28571 Z"
         id="path414" /></clipPath><clipPath
       clipPathUnits="userSpaceOnUse"
       id="clipPath426"><path
         d="M 382.28571,305.325 H 648 V 475.2 H 382.28571 Z"
         id="path424" /></clipPath><clipPath
       clipPathUnits="userSpaceOnUse"
       id="clipPath436"><path
         d="M 382.28571,305.325 H 648 V 475.2 H 382.28571 Z"
         id="path434" /></clipPath><clipPath
       clipPathUnits="userSpaceOnUse"
       id="clipPath446"><path
         d="M 382.28571,305.325 H 648 V 475.2 H 382.28571 Z"
         id="path444" /></clipPath><clipPath
       clipPathUnits="userSpaceOnUse"
       id="clipPath456"><path
         d="M 382.28571,305.325 H 648 V 475.2 H 382.28571 Z"
         id="path454" /></clipPath><clipPath
       clipPathUnits="userSpaceOnUse"
       id="clipPath508"><path
         d="M 382.28571,305.325 H 648 V 475.2 H 382.28571 Z"
         id="path506" /></clipPath><clipPath
       clipPathUnits="userSpaceOnUse"
       id="clipPath518"><path
         d="M 382.28571,305.325 H 648 V 475.2 H 382.28571 Z"
         id="path516" /></clipPath><clipPath
       clipPathUnits="userSpaceOnUse"
       id="clipPath528"><path
         d="M 382.28571,305.325 H 648 V 475.2 H 382.28571 Z"
         id="path526" /></clipPath><clipPath
       clipPathUnits="userSpaceOnUse"
       id="clipPath538"><path
         d="M 382.28571,305.325 H 648 V 475.2 H 382.28571 Z"
         id="path536" /></clipPath><clipPath
       clipPathUnits="userSpaceOnUse"
       id="clipPath548"><path
         d="M 382.28571,305.325 H 648 V 475.2 H 382.28571 Z"
         id="path546" /></clipPath><clipPath
       clipPathUnits="userSpaceOnUse"
       id="clipPath558"><path
         d="M 382.28571,305.325 H 648 V 475.2 H 382.28571 Z"
         id="path556" /></clipPath><clipPath
       clipPathUnits="userSpaceOnUse"
       id="clipPath568"><path
         d="M 382.28571,305.325 H 648 V 475.2 H 382.28571 Z"
         id="path566" /></clipPath><clipPath
       clipPathUnits="userSpaceOnUse"
       id="clipPath578"><path
         d="M 382.28571,305.325 H 648 V 475.2 H 382.28571 Z"
         id="path576" /></clipPath><clipPath
       clipPathUnits="userSpaceOnUse"
       id="clipPath592"><path
         d="M 382.28571,305.325 H 648 V 475.2 H 382.28571 Z"
         id="path590" /></clipPath><clipPath
       clipPathUnits="userSpaceOnUse"
       id="clipPath602"><path
         d="M 382.28571,305.325 H 648 V 475.2 H 382.28571 Z"
         id="path600" /></clipPath><clipPath
       clipPathUnits="userSpaceOnUse"
       id="clipPath612"><path
         d="M 382.28571,305.325 H 648 V 475.2 H 382.28571 Z"
         id="path610" /></clipPath><clipPath
       clipPathUnits="userSpaceOnUse"
       id="clipPath622"><path
         d="M 382.28571,305.325 H 648 V 475.2 H 382.28571 Z"
         id="path620" /></clipPath><clipPath
       clipPathUnits="userSpaceOnUse"
       id="clipPath660"><path
         d="M 90,67.5 H 355.71429 V 237.375 H 90 Z"
         id="path658" /></clipPath><clipPath
       clipPathUnits="userSpaceOnUse"
       id="clipPath670"><path
         d="M 90,67.5 H 355.71429 V 237.375 H 90 Z"
         id="path668" /></clipPath><clipPath
       clipPathUnits="userSpaceOnUse"
       id="clipPath680"><path
         d="M 90,67.5 H 355.71429 V 237.375 H 90 Z"
         id="path678" /></clipPath><clipPath
       clipPathUnits="userSpaceOnUse"
       id="clipPath690"><path
         d="M 90,67.5 H 355.71429 V 237.375 H 90 Z"
         id="path688" /></clipPath><clipPath
       clipPathUnits="userSpaceOnUse"
       id="clipPath700"><path
         d="M 90,67.5 H 355.71429 V 237.375 H 90 Z"
         id="path698" /></clipPath><clipPath
       clipPathUnits="userSpaceOnUse"
       id="clipPath710"><path
         d="M 90,67.5 H 355.71429 V 237.375 H 90 Z"
         id="path708" /></clipPath><clipPath
       clipPathUnits="userSpaceOnUse"
       id="clipPath720"><path
         d="M 90,67.5 H 355.71429 V 237.375 H 90 Z"
         id="path718" /></clipPath><clipPath
       clipPathUnits="userSpaceOnUse"
       id="clipPath730"><path
         d="M 90,67.5 H 355.71429 V 237.375 H 90 Z"
         id="path728" /></clipPath><clipPath
       clipPathUnits="userSpaceOnUse"
       id="clipPath740"><path
         d="M 90,67.5 H 355.71429 V 237.375 H 90 Z"
         id="path738" /></clipPath><clipPath
       clipPathUnits="userSpaceOnUse"
       id="clipPath750"><path
         d="M 90,67.5 H 355.71429 V 237.375 H 90 Z"
         id="path748" /></clipPath><clipPath
       clipPathUnits="userSpaceOnUse"
       id="clipPath812"><path
         d="M -1021,-463 H 1794 V 1233 H -1021 Z"
         id="path810" /></clipPath><clipPath
       clipPathUnits="userSpaceOnUse"
       id="clipPath874"><path
         d="M 90,67.5 H 355.71429 V 237.375 H 90 Z"
         id="path872" /></clipPath><clipPath
       clipPathUnits="userSpaceOnUse"
       id="clipPath884"><path
         d="M 90,67.5 H 355.71429 V 237.375 H 90 Z"
         id="path882" /></clipPath><clipPath
       clipPathUnits="userSpaceOnUse"
       id="clipPath894"><path
         d="M 90,67.5 H 355.71429 V 237.375 H 90 Z"
         id="path892" /></clipPath><clipPath
       clipPathUnits="userSpaceOnUse"
       id="clipPath904"><path
         d="M 90,67.5 H 355.71429 V 237.375 H 90 Z"
         id="path902" /></clipPath><clipPath
       clipPathUnits="userSpaceOnUse"
       id="clipPath914"><path
         d="M 90,67.5 H 355.71429 V 237.375 H 90 Z"
         id="path912" /></clipPath><clipPath
       clipPathUnits="userSpaceOnUse"
       id="clipPath924"><path
         d="M 90,67.5 H 355.71429 V 237.375 H 90 Z"
         id="path922" /></clipPath><clipPath
       clipPathUnits="userSpaceOnUse"
       id="clipPath934"><path
         d="M 90,67.5 H 355.71429 V 237.375 H 90 Z"
         id="path932" /></clipPath><clipPath
       clipPathUnits="userSpaceOnUse"
       id="clipPath944"><path
         d="M 90,67.5 H 355.71429 V 237.375 H 90 Z"
         id="path942" /></clipPath><clipPath
       clipPathUnits="userSpaceOnUse"
       id="clipPath960"><path
         d="M 90,67.5 H 355.71429 V 237.375 H 90 Z"
         id="path958" /></clipPath><clipPath
       clipPathUnits="userSpaceOnUse"
       id="clipPath970"><path
         d="M 90,67.5 H 355.71429 V 237.375 H 90 Z"
         id="path968" /></clipPath><clipPath
       clipPathUnits="userSpaceOnUse"
       id="clipPath980"><path
         d="M 90,67.5 H 355.71429 V 237.375 H 90 Z"
         id="path978" /></clipPath><clipPath
       clipPathUnits="userSpaceOnUse"
       id="clipPath990"><path
         d="M 90,67.5 H 355.71429 V 237.375 H 90 Z"
         id="path988" /></clipPath><clipPath
       clipPathUnits="userSpaceOnUse"
       id="clipPath1010"><path
         d="M 382.28571,67.5 H 648 V 237.375 H 382.28571 Z"
         id="path1008" /></clipPath><clipPath
       clipPathUnits="userSpaceOnUse"
       id="clipPath1020"><path
         d="M 382.28571,67.5 H 648 V 237.375 H 382.28571 Z"
         id="path1018" /></clipPath><clipPath
       clipPathUnits="userSpaceOnUse"
       id="clipPath1030"><path
         d="M 382.28571,67.5 H 648 V 237.375 H 382.28571 Z"
         id="path1028" /></clipPath><clipPath
       clipPathUnits="userSpaceOnUse"
       id="clipPath1040"><path
         d="M 382.28571,67.5 H 648 V 237.375 H 382.28571 Z"
         id="path1038" /></clipPath><clipPath
       clipPathUnits="userSpaceOnUse"
       id="clipPath1050"><path
         d="M 382.28571,67.5 H 648 V 237.375 H 382.28571 Z"
         id="path1048" /></clipPath><clipPath
       clipPathUnits="userSpaceOnUse"
       id="clipPath1060"><path
         d="M 382.28571,67.5 H 648 V 237.375 H 382.28571 Z"
         id="path1058" /></clipPath><clipPath
       clipPathUnits="userSpaceOnUse"
       id="clipPath1070"><path
         d="M 382.28571,67.5 H 648 V 237.375 H 382.28571 Z"
         id="path1068" /></clipPath><clipPath
       clipPathUnits="userSpaceOnUse"
       id="clipPath1080"><path
         d="M 382.28571,67.5 H 648 V 237.375 H 382.28571 Z"
         id="path1078" /></clipPath><clipPath
       clipPathUnits="userSpaceOnUse"
       id="clipPath1090"><path
         d="M 382.28571,67.5 H 648 V 237.375 H 382.28571 Z"
         id="path1088" /></clipPath><clipPath
       clipPathUnits="userSpaceOnUse"
       id="clipPath1100"><path
         d="M 382.28571,67.5 H 648 V 237.375 H 382.28571 Z"
         id="path1098" /></clipPath><clipPath
       clipPathUnits="userSpaceOnUse"
       id="clipPath1152"><path
         d="M 382.28571,67.5 H 648 V 237.375 H 382.28571 Z"
         id="path1150" /></clipPath><clipPath
       clipPathUnits="userSpaceOnUse"
       id="clipPath1162"><path
         d="M 382.28571,67.5 H 648 V 237.375 H 382.28571 Z"
         id="path1160" /></clipPath><clipPath
       clipPathUnits="userSpaceOnUse"
       id="clipPath1172"><path
         d="M 382.28571,67.5 H 648 V 237.375 H 382.28571 Z"
         id="path1170" /></clipPath><clipPath
       clipPathUnits="userSpaceOnUse"
       id="clipPath1182"><path
         d="M 382.28571,67.5 H 648 V 237.375 H 382.28571 Z"
         id="path1180" /></clipPath><clipPath
       clipPathUnits="userSpaceOnUse"
       id="clipPath1192"><path
         d="M 382.28571,67.5 H 648 V 237.375 H 382.28571 Z"
         id="path1190" /></clipPath><clipPath
       clipPathUnits="userSpaceOnUse"
       id="clipPath1202"><path
         d="M 382.28571,67.5 H 648 V 237.375 H 382.28571 Z"
         id="path1200" /></clipPath><clipPath
       clipPathUnits="userSpaceOnUse"
       id="clipPath1212"><path
         d="M 382.28571,67.5 H 648 V 237.375 H 382.28571 Z"
         id="path1210" /></clipPath><clipPath
       clipPathUnits="userSpaceOnUse"
       id="clipPath1222"><path
         d="M 382.28571,67.5 H 648 V 237.375 H 382.28571 Z"
         id="path1220" /></clipPath><clipPath
       clipPathUnits="userSpaceOnUse"
       id="clipPath1236"><path
         d="M 382.28571,67.5 H 648 V 237.375 H 382.28571 Z"
         id="path1234" /></clipPath><clipPath
       clipPathUnits="userSpaceOnUse"
       id="clipPath1246"><path
         d="M 382.28571,67.5 H 648 V 237.375 H 382.28571 Z"
         id="path1244" /></clipPath><clipPath
       clipPathUnits="userSpaceOnUse"
       id="clipPath1256"><path
         d="M 382.28571,67.5 H 648 V 237.375 H 382.28571 Z"
         id="path1254" /></clipPath><clipPath
       clipPathUnits="userSpaceOnUse"
       id="clipPath1266"><path
         d="M 382.28571,67.5 H 648 V 237.375 H 382.28571 Z"
         id="path1264" /></clipPath></defs><sodipodi:namedview
     id="namedview4"
     pagecolor="#ffffff"
     bordercolor="#666666"
     borderopacity="1.0"
     inkscape:pageshadow="2"
     inkscape:pageopacity="0.0"
     inkscape:pagecheckerboard="0"
     showgrid="false"
     fit-margin-top="0"
     fit-margin-left="0"
     fit-margin-right="0"
     fit-margin-bottom="0"
     inkscape:zoom="1.7618743"
     inkscape:cx="469.95406"
     inkscape:cy="212.55772"
     inkscape:window-width="2560"
     inkscape:window-height="1440"
     inkscape:window-x="2560"
     inkscape:window-y="0"
     inkscape:window-maximized="1"
     inkscape:current-layer="g8" /><g
     id="g8"
     inkscape:groupmode="layer"
     inkscape:label="nursing_home_results_2"
     transform="matrix(1.3333333,0,0,-1.3333333,-72.786457,639.11298)"><g
       id="g360"
       transform="translate(-292.28572)"><g
         id="g362"
         clip-path="url(#clipPath366)"><path
           d="m 415.5,324.6517 h -3.60245 l -13.02401,0.98228 -9.94497,0.98229 11.86555,0.98229 11.85713,0.98229 2.45929,0.98229 -0.0709,0.98229 0.10446,0.98229 0.25413,0.98229 0.0402,0.98229 -0.10557,0.98228 -0.0163,0.98229 0.11219,0.98229 0.0436,0.98229 -0.0552,0.98229 -0.0448,0.98229 0.0589,0.98229 0.0509,0.98229 -0.0152,0.98229 -0.0373,0.98229 0.0171,0.98228 0.0376,0.98229 -9.7e-4,0.98229 -0.0306,0.98229 -0.003,0.98229 0.0309,0.98229 0.007,0.98229 -0.0318,0.98229 -0.022,0.98229 0.0317,0.98229 0.0259,0.98228 -0.007,0.98229 -0.0168,0.98229 0.009,0.98229 0.0168,0.98229 -0.003,0.98229 -0.0186,0.98229 -9.1e-4,0.98229 0.0188,0.98229 0.006,0.98229 -0.0103,0.98228 -0.007,0.98229 0.0109,0.98229 0.008,0.98229 -0.005,0.98229 -0.008,0.98229 0.005,0.98229 0.008,0.98229 -0.006,0.98229 -0.0189,0.98229 1e-5,0.98228 0.019,0.98229 0.008,0.98229 -0.002,0.98229 -0.002,0.98229 0.003,0.98229 8.6e-4,0.98229 -0.006,0.98229 -0.008,0.98229 0.005,0.98228 0.008,0.98229 -0.004,0.98229 -0.0125,0.98229 6.1e-4,0.98229 0.0126,0.98229 0.004,0.98229 -0.005,0.98229 -0.003,0.98229 0.006,0.98229 0.003,0.98228 -0.004,0.98229 -0.005,0.98229 0.004,0.98229 0.006,0.98229 0.002,0.98229 1.4e-4,0.98229 -1e-5,0.98229 -1.8e-4,0.98229 -0.002,0.98229 -0.006,0.98228 -0.003,0.98229 0.006,0.98229 0.004,0.98229 7.5e-4,0.98229 4e-5,0.98229 -1e-5,0.98229 -2.5e-4,0.98229 -0.002,0.98229 -0.003,0.98229 4.6e-4,0.98228 0.003,0.98229 10e-4,0.98229 1.5e-4,0.98229 10e-6,0.98229 -8e-5,0.98229 -10e-4,0.98229 -0.005,0.98229 -0.005,0.98229 0.004,0.98229 0.005,0.98228 h 0.002 v 0 -0.98228 -0.98229 -0.98229 -0.98229 -0.98229 -0.98229 -0.98229 -0.98229 -0.98229 -0.98229 -0.98228 -0.98229 -0.98229 -0.98229 -0.98229 -0.98229 -0.98229 -0.98229 -0.98229 -0.98229 -0.98228 -0.98229 -0.98229 -0.98229 -0.98229 -0.98229 -0.98229 -0.98229 -0.98229 -0.98229 -0.98228 -0.98229 -0.98229 -0.98229 -0.98229 -0.98229 -0.98229 -0.98229 -0.98229 -0.98229 -0.98228 -0.98229 -0.98229 -0.98229 -0.98229 -0.98229 -0.98229 -0.98229 -0.98229 -0.98228 -0.98229 -0.98229 -0.98229 -0.98229 -0.98229 -0.98229 -0.98229 -0.98229 -0.98229 -0.98228 -0.98229 -0.98229 -0.98229 -0.98229 -0.98229 -0.98229 -0.98229 -0.98229 -0.98229 -0.98228 -0.98229 -0.98229 -0.98229 -0.98229 -0.98229 -0.98229 -0.98229 -0.98229 -0.98229 -0.98228 -0.98229 -0.98229 -0.98229 -0.98229 -0.98229 -0.98229 -0.98229 -0.98229 -0.98229 -0.98228 -0.98229 -0.98229 -0.98229 -0.98229 -0.98229 -0.98229 -0.98229 -0.98229 -0.98228 z"
           style="fill:#a03434;fill-opacity:0.7;fill-rule:nonzero;stroke:#2a2a2a;stroke-width:1.5;stroke-linecap:butt;stroke-linejoin:round;stroke-miterlimit:10;stroke-dasharray:none;stroke-opacity:0.7"
           id="path368" /></g></g><g
       id="g370"
       transform="translate(-292.28572)"><g
         id="g372"
         clip-path="url(#clipPath376)"><path
           d="M 416.09095,320.71138 H 415.5 v 1.19058 1.19058 1.19059 1.19058 1.19059 1.19058 1.19059 1.19058 1.19059 1.19058 1.19059 1.19058 1.19058 1.19059 1.19058 1.19059 1.19058 1.19059 1.19058 1.19059 1.19058 1.19059 1.19058 1.19059 1.19058 1.19058 1.19059 1.19058 1.19059 1.19058 1.19059 1.19058 1.19059 1.19058 1.19059 1.19058 1.19058 1.19059 1.19058 1.19059 1.19058 1.19059 1.19058 1.19059 1.19058 1.19059 1.19058 1.19059 1.19058 1.19059 1.19058 1.19058 1.19059 1.19058 1.19059 1.19058 1.19059 1.19058 1.19059 1.19058 1.19058 1.19059 1.19058 1.19059 1.19058 1.19059 1.19058 1.19059 1.19058 1.19059 1.19058 1.19059 1.19058 1.19058 1.19059 1.19058 1.19059 1.19058 1.19059 1.19058 1.19059 1.19058 1.19059 1.19058 1.19058 1.19059 1.19058 1.19059 1.19058 1.19059 1.19058 1.19059 1.19058 1.19059 1.19058 1.19059 1.19058 1.19058 1.19059 h 2.5e-4 v 0 l 2.6e-4,-1.19059 3.9e-4,-1.19058 4.4e-4,-1.19058 3.6e-4,-1.19059 1.2e-4,-1.19058 -1.7e-4,-1.19059 -3.7e-4,-1.19058 -3.8e-4,-1.19059 -2e-4,-1.19058 1.8e-4,-1.19059 7.8e-4,-1.19058 0.002,-1.19059 0.002,-1.19058 0.003,-1.19059 0.002,-1.19058 0.001,-1.19058 5.5e-4,-1.19059 1.1e-4,-1.19058 2.4e-4,-1.19059 7.6e-4,-1.19058 10e-4,-1.19059 10e-4,-1.19058 0.001,-1.19059 10e-4,-1.19058 0.001,-1.19059 10e-4,-1.19058 0.002,-1.19058 0.002,-1.19059 0.003,-1.19058 0.003,-1.19059 0.003,-1.19058 0.003,-1.19059 0.005,-1.19058 0.007,-1.19059 0.009,-1.19058 0.009,-1.19059 0.008,-1.19058 0.007,-1.19059 0.005,-1.19058 0.004,-1.19058 0.004,-1.19059 0.005,-1.19058 0.006,-1.19059 0.008,-1.19058 0.009,-1.19059 0.009,-1.19058 0.008,-1.19059 0.006,-1.19058 0.004,-1.19058 0.003,-1.19059 0.004,-1.19058 0.006,-1.19059 0.009,-1.19058 0.0106,-1.19059 0.0117,-1.19058 0.0119,-1.19059 0.0116,-1.19058 0.0104,-1.19059 0.008,-1.19058 0.006,-1.19059 0.003,-1.19058 -1.1e-4,-1.19059 -0.003,-1.19058 -0.003,-1.19058 6.3e-4,-1.19059 0.007,-1.19058 0.0139,-1.19059 0.0209,-1.19058 0.0266,-1.19059 0.0307,-1.19058 0.0328,-1.19059 0.0321,-1.19058 0.0292,-1.19059 0.0264,-1.19058 0.0262,-1.19058 0.0293,-1.19059 0.035,-1.19058 0.0423,-1.19059 0.0499,-1.19058 0.0575,-1.19059 0.0662,-1.19058 0.0774,-1.19059 0.0916,-1.19058 0.10945,-1.19059 0.13263,-1.19058 0.16382,-1.19059 0.20975,-1.19058 0.28453,-1.19058 0.40295,-1.19059 0.56107,-1.19058 0.70989,-1.19059 0.74222,-1.19058 0.5353,-1.19059 0.0602,-1.19058 -0.53526,-1.19059 -0.99247,-1.19058 -1.12803,-1.19059 -0.95727,-1.19058 -0.64298,-1.19058 z"
           style="fill:#11117a;fill-opacity:0.7;fill-rule:nonzero;stroke:#2a2a2a;stroke-width:1.5;stroke-linecap:butt;stroke-linejoin:round;stroke-miterlimit:10;stroke-dasharray:none;stroke-opacity:0.7"
           id="path378" /></g></g><g
       id="g380"
       transform="translate(-292.28572)"><g
         id="g382"
         clip-path="url(#clipPath386)"><path
           d="m 481.92857,324.4767 h -3.59708 l -12.32862,1.02872 -10.64573,1.02872 9.85737,1.02873 12.65674,1.02872 3.208,1.02872 -0.10031,1.02872 0.27904,1.02872 0.45736,1.02872 0.003,1.02873 -0.20219,1.02872 0.079,1.02872 0.21693,1.02872 0.006,1.02873 -0.12998,1.02872 0.0205,1.02872 0.13787,1.02872 0.0265,1.02872 -0.0706,1.02872 -0.004,1.02873 0.0757,1.02872 0.0159,1.02872 -0.0594,1.02872 -0.0169,1.02872 0.062,1.02873 0.0242,1.02872 -0.0439,1.02872 -0.0236,1.02872 0.0471,1.02872 0.0306,1.02873 -0.0202,1.02872 -0.0189,1.02872 0.0243,1.02872 0.0197,1.02872 -0.0172,1.02873 -0.0211,1.02872 0.018,1.02872 0.0191,1.02872 -0.021,1.02872 -0.0324,1.02873 0.0182,1.02872 0.0334,1.02872 -0.002,1.02872 -0.0197,1.02872 0.007,1.02873 0.0205,1.02872 -1.5e-4,1.02872 -0.0147,1.02872 0.002,1.02872 0.0155,1.02873 0.005,1.02872 -0.005,1.02872 -6e-4,1.02872 0.006,1.02872 -2e-4,1.02873 -0.009,1.02872 -0.003,1.02872 0.009,1.02872 0.005,1.02872 -0.002,1.02873 -10e-4,1.02872 0.002,1.02872 -9.2e-4,1.02872 -0.0108,1.02872 -0.008,1.02873 0.01,1.02872 0.009,1.02872 -0.002,1.02872 -0.005,1.02872 0.004,1.02873 0.006,1.02872 0.002,1.02872 1.7e-4,1.02872 1e-5,1.02872 v 1.02873 1.02872 1.02872 l -2e-5,1.02872 -2.8e-4,1.02872 -0.002,1.02873 -0.003,1.02872 1.8e-4,1.02872 0.003,1.02872 1.1e-4,1.02872 -0.003,1.02873 -4.4e-4,1.02872 0.003,1.02872 0.002,1.02872 3.2e-4,1.02872 2e-5,1.02873 v 1.02872 1.02872 1.02872 1.02872 l -8e-5,1.02872 -7.8e-4,1.02873 -0.003,1.02872 -0.002,1.02872 0.002,1.02872 0.003,1.02872 h 7.8e-4 v 0 -1.02872 -1.02872 -1.02872 -1.02872 -1.02873 -1.02872 -1.02872 -1.02872 -1.02872 -1.02872 -1.02873 -1.02872 -1.02872 -1.02872 -1.02872 -1.02873 -1.02872 -1.02872 -1.02872 -1.02872 -1.02873 -1.02872 -1.02872 -1.02872 -1.02872 -1.02873 -1.02872 -1.02872 -1.02872 -1.02872 -1.02873 -1.02872 -1.02872 -1.02872 -1.02872 -1.02873 -1.02872 -1.02872 -1.02872 -1.02872 -1.02873 -1.02872 -1.02872 -1.02872 -1.02872 -1.02873 -1.02872 -1.02872 -1.02872 -1.02872 -1.02873 -1.02872 -1.02872 -1.02872 -1.02872 -1.02873 -1.02872 -1.02872 -1.02872 -1.02872 -1.02873 -1.02872 -1.02872 -1.02872 -1.02872 -1.02873 -1.02872 -1.02872 -1.02872 -1.02872 -1.02873 -1.02872 -1.02872 -1.02872 -1.02872 -1.02873 -1.02872 -1.02872 -1.02872 -1.02872 -1.02873 -1.02872 -1.02872 -1.02872 -1.02872 -1.02872 -1.02873 -1.02872 -1.02872 -1.02872 -1.02873 -1.02872 -1.02872 -1.02872 -1.02872 -1.02872 -1.02873 -1.02872 -1.02872 z"
           style="fill:#a03434;fill-opacity:0.7;fill-rule:nonzero;stroke:#2a2a2a;stroke-width:1.5;stroke-linecap:butt;stroke-linejoin:round;stroke-miterlimit:10;stroke-dasharray:none;stroke-opacity:0.7"
           id="path388" /></g></g><g
       id="g390"
       transform="translate(-292.28572)"><g
         id="g392"
         clip-path="url(#clipPath396)"><path
           d="m 482.66854,321.24337 h -0.73997 v 1.09404 1.09404 1.09405 1.09404 1.09404 1.09404 1.09404 1.09405 1.09404 1.09404 1.09404 1.09404 1.09404 1.09405 1.09404 1.09404 1.09404 1.09404 1.09404 1.09405 1.09404 1.09404 1.09404 1.09404 1.09404 1.09405 1.09404 1.09404 1.09404 1.09404 1.09405 1.09404 1.09404 1.09404 1.09404 1.09404 1.09405 1.09404 1.09404 1.09404 1.09404 1.09404 1.09405 1.09404 1.09404 1.09404 1.09404 1.09404 1.09405 1.09404 1.09404 1.09404 1.09404 1.09404 1.09405 1.09404 1.09404 1.09404 1.09404 1.09405 1.09404 1.09404 1.09404 1.09404 1.09404 1.09405 1.09404 1.09404 1.09404 1.09404 1.09404 1.09405 1.09404 1.09404 1.09404 1.09404 1.09404 1.09405 1.09404 1.09404 1.09404 1.09404 1.09405 1.09404 1.09404 1.09404 1.09404 1.09404 1.09405 1.09404 1.09404 1.09404 1.09404 1.09404 1.09405 1.09404 1.09404 1.09404 1.09404 h 3.1e-4 v 0 l 3.6e-4,-1.09404 5.6e-4,-1.09404 7.4e-4,-1.09404 8.4e-4,-1.09404 8.7e-4,-1.09405 8.6e-4,-1.09404 8.2e-4,-1.09404 7e-4,-1.09404 4.9e-4,-1.09404 2.5e-4,-1.09404 4e-5,-1.09405 -1.3e-4,-1.09404 -2.9e-4,-1.09404 -2.9e-4,-1.09404 8e-5,-1.09404 9.3e-4,-1.09404 0.002,-1.09405 0.003,-1.09404 0.004,-1.09404 0.003,-1.09404 0.002,-1.09404 0.001,-1.09405 9.3e-4,-1.09404 0.002,-1.09404 0.003,-1.09404 0.004,-1.09404 0.004,-1.09404 0.004,-1.09405 0.003,-1.09404 0.003,-1.09404 0.002,-1.09404 0.002,-1.09404 0.002,-1.09404 0.003,-1.09405 0.004,-1.09404 0.005,-1.09404 0.007,-1.09404 0.009,-1.09404 0.01,-1.09404 0.01,-1.09405 0.01,-1.09404 0.01,-1.09404 0.008,-1.09404 0.006,-1.09404 0.004,-1.09405 0.003,-1.09404 0.004,-1.09404 0.005,-1.09404 0.007,-1.09404 0.008,-1.09404 0.008,-1.09405 0.006,-1.09404 0.005,-1.09404 0.006,-1.09404 0.009,-1.09404 0.0124,-1.09404 0.0161,-1.09405 0.0184,-1.09404 0.0181,-1.09404 0.0162,-1.09404 0.0148,-1.09404 0.0145,-1.09404 0.0143,-1.09405 0.0143,-1.09404 0.0158,-1.09404 0.0189,-1.09404 0.0223,-1.09404 0.0259,-1.09404 0.0298,-1.09405 0.0325,-1.09404 0.0324,-1.09404 0.0312,-1.09404 0.0311,-1.09404 0.0304,-1.09405 0.0279,-1.09404 0.0266,-1.09404 0.0307,-1.09404 0.0402,-1.09404 0.0529,-1.09404 0.0678,-1.09405 0.0824,-1.09404 0.0929,-1.09404 0.1013,-1.09404 0.11691,-1.09404 0.14725,-1.09404 0.19491,-1.09405 0.26549,-1.09404 0.36906,-1.09404 0.51126,-1.09404 0.68559,-1.09404 0.85377,-1.09404 0.90855,-1.09405 0.69173,-1.09404 0.13152,-1.09404 -0.61455,-1.09404 -1.21515,-1.09404 -1.41301,-1.09405 -1.21044,-1.09404 -0.81419,-1.09404 z"
           style="fill:#11117a;fill-opacity:0.7;fill-rule:nonzero;stroke:#2a2a2a;stroke-width:1.5;stroke-linecap:butt;stroke-linejoin:round;stroke-miterlimit:10;stroke-dasharray:none;stroke-opacity:0.7"
           id="path398" /></g></g><g
       id="g400"
       transform="translate(-292.28572)"><g
         id="g402"
         clip-path="url(#clipPath406)"><path
           d="m 548.35714,325.90212 h -3.6112 l -11.83156,0.31356 -11.12867,0.31356 8.1755,0.31356 13.2715,0.31356 4.55007,0.31357 0.54846,0.31356 0.0254,0.31356 4.7e-4,0.31356 v 0.31356 0.31357 l -4e-5,0.31356 -0.002,0.31356 -0.0302,0.31356 -0.19288,0.31356 -0.41012,0.31357 -0.0864,0.31356 0.39167,0.31356 0.26912,0.31356 0.0562,0.31357 0.004,0.31356 1.3e-4,0.31356 v 0.31356 0.31356 0.31356 l -8e-5,0.31357 -0.002,0.31356 -0.0262,0.31356 -0.10412,0.31356 -0.11473,0.31356 0.0619,0.31357 0.12962,0.31356 0.0492,0.31356 0.006,0.31356 3.3e-4,0.31357 v 0.31356 0.31356 0.31356 0.31356 l -2.4e-4,0.31357 -0.004,0.31356 -0.0299,0.31356 -0.0709,0.31356 -0.0243,0.31356 0.0654,0.31357 0.0514,0.31356 0.0118,0.31356 9.9e-4,0.31356 3e-5,0.31356 v 0.31357 0.31356 0.31356 l -1e-5,0.31356 -3.3e-4,0.31356 -0.004,0.31357 -0.0171,0.31356 -0.0218,0.31356 0.008,0.31356 0.0236,0.31356 0.01,0.31357 10e-4,0.31356 8e-5,0.31356 v 0.31356 0.31356 0.31357 0.31356 l -4e-5,0.31356 -8.6e-4,0.31356 -0.007,0.31356 -0.0173,0.31357 -0.008,0.31356 0.0153,0.31356 0.0139,0.31356 0.003,0.31357 3.2e-4,0.31356 10e-6,0.31356 v 0.31356 0.31356 0.31357 0.31356 l -6e-5,0.31356 -8.2e-4,0.31356 -0.004,0.31356 -0.006,0.31357 10e-4,0.31356 0.006,0.31356 0.003,0.31356 4.5e-4,0.31356 2e-5,0.31357 v 0.31356 0.31356 0.31356 0.31357 0.31356 l -1.2e-4,0.31356 -9.5e-4,0.31356 -0.003,0.31356 -0.002,0.31356 0.002,0.31357 0.002,0.31356 h 7.5e-4 v 0 -0.31356 -0.31357 -0.31356 -0.31356 -0.31356 -0.31356 -0.31356 -0.31357 -0.31356 -0.31356 -0.31356 -0.31357 -0.31356 -0.31356 -0.31356 -0.31356 -0.31357 -0.31356 -0.31356 -0.31356 -0.31356 -0.31357 -0.31356 -0.31356 -0.31356 -0.31356 -0.31357 -0.31356 -0.31356 -0.31356 -0.31357 -0.31356 -0.31356 -0.31356 -0.31356 -0.31357 -0.31356 -0.31356 -0.31356 -0.31356 -0.31357 -0.31356 -0.31356 -0.31356 -0.31356 -0.31357 -0.31356 -0.31356 -0.31356 -0.31356 -0.31357 -0.31356 -0.31356 -0.31356 -0.31356 -0.31357 -0.31356 -0.31356 -0.31356 -0.31356 -0.31357 -0.31356 -0.31356 -0.31356 -0.31356 -0.31357 -0.31356 -0.31356 -0.31356 -0.31357 -0.31356 -0.31356 -0.31356 -0.31356 -0.31357 -0.31356 -0.31356 -0.31356 -0.31356 -0.31356 -0.31357 -0.31356 -0.31356 -0.31356 -0.31357 -0.31356 -0.31356 -0.31356 -0.31356 -0.31357 -0.31356 -0.31356 -0.31356 -0.31356 -0.31357 -0.31356 -0.31356 -0.31356 -0.31356 z"
           style="fill:#a03434;fill-opacity:0.7;fill-rule:nonzero;stroke:#2a2a2a;stroke-width:1.5;stroke-linecap:butt;stroke-linejoin:round;stroke-miterlimit:10;stroke-dasharray:none;stroke-opacity:0.7"
           id="path408" /></g></g><g
       id="g410"
       transform="translate(-292.28572)"><g
         id="g412"
         clip-path="url(#clipPath416)"><path
           d="m 549.19182,324.63606 h -0.83468 v 0.46783 0.46784 0.46783 0.46783 0.46783 0.46783 0.46784 0.46783 0.46783 0.46783 0.46783 0.46784 0.46783 0.46783 0.46783 0.46783 0.46784 0.46783 0.46783 0.46783 0.46784 0.46783 0.46783 0.46783 0.46783 0.46784 0.46783 0.46783 0.46783 0.46783 0.46784 0.46783 0.46783 0.46783 0.46783 0.46784 0.46783 0.46783 0.46783 0.46784 0.46783 0.46783 0.46783 0.46783 0.46784 0.46783 0.46783 0.46783 0.46783 0.46784 0.46783 0.46783 0.46783 0.46783 0.46784 0.46783 0.46783 0.46783 0.46783 0.46784 0.46783 0.46783 0.46783 0.46783 0.46784 0.46783 0.46783 0.46783 0.46784 0.46783 0.46783 0.46783 0.46783 0.46784 0.46783 0.46783 0.46783 0.46783 0.46784 0.46783 0.46783 0.46783 0.46783 0.46784 0.46783 0.46783 0.46783 0.46784 0.46783 0.46783 0.46783 0.46783 0.46784 0.46783 0.46783 0.46783 0.46783 0.46784 0.46783 h 0.001 v 0 l 10e-4,-0.46783 0.002,-0.46784 0.002,-0.46783 10e-4,-0.46783 -6.7e-4,-0.46783 -0.002,-0.46783 -0.002,-0.46784 -0.002,-0.46783 -6.7e-4,-0.46783 10e-6,-0.46783 4.1e-4,-0.46783 5.1e-4,-0.46784 2.8e-4,-0.46783 -1.3e-4,-0.46783 -4.4e-4,-0.46783 -4e-4,-0.46784 1.3e-4,-0.46783 10e-4,-0.46783 0.003,-0.46783 0.005,-0.46783 0.005,-0.46784 0.003,-0.46783 -0.001,-0.46783 -0.005,-0.46783 -0.005,-0.46783 -0.004,-0.46784 -5.1e-4,-0.46783 0.003,-0.46783 0.006,-0.46783 0.007,-0.46783 0.004,-0.46784 -8.8e-4,-0.46783 -0.006,-0.46783 -0.007,-0.46783 -0.005,-0.46784 -8e-5,-0.46783 0.006,-0.46783 0.011,-0.46783 0.0131,-0.46783 0.009,-0.46784 -8e-4,-0.46783 -0.01,-0.46783 -0.0127,-0.46783 -0.009,-0.46783 -2.1e-4,-0.46784 0.011,-0.46783 0.0223,-0.46783 0.0274,-0.46783 0.0195,-0.46783 2e-5,-0.46784 -0.0193,-0.46783 -0.0267,-0.46783 -0.0195,-0.46783 -0.003,-0.46783 0.0197,-0.46784 0.0425,-0.46783 0.0542,-0.46783 0.0408,-0.46783 0.003,-0.46783 -0.0359,-0.46784 -0.0525,-0.46783 -0.0398,-0.46783 -0.006,-0.46783 0.0412,-0.46784 0.0915,-0.46783 0.12017,-0.46783 0.0953,-0.46783 0.015,-0.46783 -0.0744,-0.46784 -0.11662,-0.46783 -0.0937,-0.46783 -0.0234,-0.46783 0.0745,-0.46783 0.18031,-0.46784 0.24592,-0.46783 0.20482,-0.46783 0.0461,-0.46783 -0.14123,-0.46783 -0.23858,-0.46784 -0.20183,-0.46783 -0.0653,-0.46783 0.12805,-0.46783 0.34015,-0.46784 0.4816,-0.46783 0.42027,-0.46783 0.12101,-0.46783 -0.2526,-0.46783 -0.45766,-0.46784 -0.37685,-0.46783 -0.0359,-0.46783 0.52196,-0.46783 1.2149,-0.46783 1.73156,-0.46784 1.57041,-0.46783 0.54097,-0.46783 -0.82937,-0.46783 -1.68951,-0.46783 -1.67776,-0.46784 -1.12726,-0.46783 z"
           style="fill:#11117a;fill-opacity:0.7;fill-rule:nonzero;stroke:#2a2a2a;stroke-width:1.5;stroke-linecap:butt;stroke-linejoin:round;stroke-miterlimit:10;stroke-dasharray:none;stroke-opacity:0.7"
           id="path418" /></g></g><g
       id="g420"
       transform="translate(-292.28572)"><g
         id="g422"
         clip-path="url(#clipPath426)"><path
           d="m 614.78571,326.40858 h -3.6496 l -6.60442,0.0459 -9.61993,0.046 -6.69747,0.0459 2.06463,0.0459 8.9149,0.046 8.7488,0.0459 4.7713,0.046 1.6391,0.0459 0.37036,0.046 0.0561,0.0459 0.006,0.0459 4e-4,0.046 2e-5,0.0459 v 0.046 0.0459 0.046 0.0459 0.0459 0.046 0.0459 0.0459 0.046 0.0459 0.046 0.0459 0.046 0.0459 0.0459 0.0459 0.0459 0.046 0.0459 0.0459 0.046 0.0459 0.046 0.0459 0.0459 0.0459 0.0459 0.046 0.0459 0.046 0.0459 0.0459 0.046 0.0459 0.046 0.0459 0.0459 0.046 0.0459 0.046 0.0459 0.0459 0.046 0.0459 0.0459 0.0459 0.046 0.0459 0.0459 0.046 0.0459 0.046 0.0459 0.0459 0.046 0.0459 0.046 0.0459 0.0459 0.046 0.0459 0.046 0.0459 0.046 0.0459 0.0459 0.046 0.0459 0.046 0.0459 0.0459 0.046 0.0459 0.0459 0.0459 l -6e-5,0.0459 -5.4e-4,0.046 -0.004,0.0459 -0.0159,0.046 -0.0462,0.0459 -0.0848,0.0459 -0.0864,0.046 -0.02,0.0459 0.0649,0.046 0.0932,0.0459 0.064,0.046 h 0.0354 v 0 -0.046 -0.0459 -0.046 -0.0459 -0.046 -0.0459 -0.0459 -0.046 -0.0459 -0.046 -0.0459 -0.0459 -0.0459 -0.0459 -0.046 -0.0459 -0.0459 -0.046 -0.0459 -0.046 -0.0459 -0.0459 -0.046 -0.0459 -0.046 -0.0459 -0.046 -0.0459 -0.0459 -0.046 -0.0459 -0.046 -0.0459 -0.0459 -0.046 -0.0459 -0.046 -0.0459 -0.0459 -0.046 -0.0459 -0.0459 -0.0459 -0.046 -0.0459 -0.0459 -0.046 -0.0459 -0.046 -0.0459 -0.0459 -0.046 -0.0459 -0.046 -0.0459 -0.0459 -0.046 -0.0459 -0.046 -0.0459 -0.0459 -0.0459 -0.0459 -0.046 -0.0459 -0.046 -0.0459 -0.0459 -0.046 -0.0459 -0.0459 -0.0459 -0.0459 -0.046 -0.0459 -0.046 -0.0459 -0.046 -0.0459 -0.0459 -0.046 -0.0459 -0.0459 -0.046 -0.0459 -0.046 -0.0459 -0.046 -0.0459 -0.0459 -0.046 -0.0459 -0.046 -0.0459 -0.046 -0.0459 -0.0459 -0.046 -0.0459 z"
           style="fill:#a03434;fill-opacity:0.7;fill-rule:nonzero;stroke:#2a2a2a;stroke-width:1.5;stroke-linecap:butt;stroke-linejoin:round;stroke-miterlimit:10;stroke-dasharray:none;stroke-opacity:0.7"
           id="path428" /></g></g><g
       id="g430"
       transform="translate(-292.28572)"><g
         id="g432"
         clip-path="url(#clipPath436)"><path
           d="m 615.83492,326.07276 h -1.04921 v 0.13853 0.13852 0.13852 0.13853 0.13852 0.13852 0.13853 0.13852 0.13853 0.13852 0.13852 0.13853 0.13852 0.13852 0.13853 0.13852 0.13853 0.13852 0.13852 0.13853 0.13852 0.13853 0.13852 0.13852 0.13853 0.13852 0.13852 0.13853 0.13852 0.13852 0.13853 0.13852 0.13853 0.13852 0.13852 0.13853 0.13852 0.13852 0.13853 0.13852 0.13853 0.13852 0.13852 0.13853 0.13852 0.13852 0.13853 0.13852 0.13853 0.13852 0.13852 0.13853 0.13852 0.13852 0.13853 0.13852 0.13853 0.13852 0.13852 0.13853 0.13852 0.13852 0.13853 0.13852 0.13852 0.13853 0.13852 0.13853 0.13852 0.13852 0.13853 0.13852 0.13853 0.13852 0.13852 0.13853 0.13852 0.13852 0.13853 0.13852 0.13852 0.13853 0.13852 0.13853 0.13852 0.13852 0.13853 0.13852 0.13852 0.13853 0.13852 0.13853 0.13852 0.13852 0.13853 0.13852 0.13852 0.13853 0.13852 h 6.9e-4 v 0 l 0.001,-0.13852 0.002,-0.13853 10e-4,-0.13852 2e-5,-0.13852 -0.001,-0.13853 -0.002,-0.13852 -10e-4,-0.13852 -5.1e-4,-0.13853 -1.6e-4,-0.13852 -3e-5,-0.13853 v -0.13852 l -10e-6,-0.13852 v -0.13853 -0.13852 -0.13852 -0.13853 -0.13852 -0.13853 -0.13852 -0.13852 -0.13853 -0.13852 -0.13852 -0.13853 -0.13852 l 10e-6,-0.13852 10e-6,-0.13853 1.1e-4,-0.13852 6.5e-4,-0.13853 0.003,-0.13852 0.008,-0.13852 0.0159,-0.13853 0.0198,-0.13852 0.0115,-0.13853 -0.006,-0.13852 -0.0185,-0.13852 -0.0182,-0.13853 -0.0107,-0.13852 -0.004,-0.13852 -10e-4,-0.13853 -2e-4,-0.13852 -3e-5,-0.13852 -10e-6,-0.13853 v -0.13852 -0.13853 -0.13852 -0.13852 -0.13853 -0.13852 -0.13852 -0.13853 -0.13852 -0.13853 -0.13852 -0.13852 l 10e-6,-0.13853 2e-5,-0.13852 3e-4,-0.13852 0.002,-0.13853 0.0117,-0.13852 0.0435,-0.13853 0.11203,-0.13852 0.19138,-0.13852 0.19445,-0.13853 0.0625,-0.13852 -0.12081,-0.13852 -0.20796,-0.13853 -0.16759,-0.13852 -0.0847,-0.13853 -0.0289,-0.13852 -0.007,-0.13852 -10e-4,-0.13853 -1.3e-4,-0.13852 -10e-6,-0.13852 -10e-6,-0.13853 v -0.13852 -0.13852 -0.13853 -0.13852 -0.13853 -0.13852 -0.13852 -0.13853 -0.13852 -0.13853 l 10e-6,-0.13852 6e-5,-0.13852 8.1e-4,-0.13853 0.008,-0.13852 0.0504,-0.13852 0.23773,-0.13853 0.7836,-0.13852 1.76447,-0.13853 2.57256,-0.13852 2.04287,-0.13852 -0.031,-0.13853 -2.07912,-0.13852 -2.56392,-0.13852 -1.73689,-0.13853 z"
           style="fill:#11117a;fill-opacity:0.7;fill-rule:nonzero;stroke:#2a2a2a;stroke-width:1.5;stroke-linecap:butt;stroke-linejoin:round;stroke-miterlimit:10;stroke-dasharray:none;stroke-opacity:0.7"
           id="path438" /></g></g><g
       id="g440"
       transform="translate(-292.28572)"><g
         id="g442"
         clip-path="url(#clipPath446)"><path
           d="M 415.5,326.55937 Z"
           style="fill:#a03434;fill-opacity:1;fill-rule:nonzero;stroke:#2a2a2a;stroke-width:0.75;stroke-linecap:butt;stroke-linejoin:miter;stroke-miterlimit:10;stroke-dasharray:none;stroke-opacity:1"
           id="path448" /></g></g><g
       id="g450"
       transform="translate(-292.28572)"><g
         id="g452"
         clip-path="url(#clipPath456)"><path
           d="M 415.5,326.55937 Z"
           style="fill:#11117a;fill-opacity:1;fill-rule:nonzero;stroke:#2a2a2a;stroke-width:0.75;stroke-linecap:butt;stroke-linejoin:miter;stroke-miterlimit:10;stroke-dasharray:none;stroke-opacity:1"
           id="path458" /></g></g><g
       id="g460"
       transform="translate(-292.28572)"><path
         d="m 415.5,305.325 v -3.5"
         style="fill:#000000;fill-opacity:1;fill-rule:nonzero;stroke:#000000;stroke-width:0.8;stroke-linecap:butt;stroke-linejoin:round;stroke-miterlimit:10;stroke-dasharray:none;stroke-opacity:1"
         id="path462" /><text
         transform="matrix(1,0,0,-1,409.26562,290.73125)"
         style="font-variant:normal;font-weight:normal;font-size:10px;font-family:'DejaVu Sans';-inkscape-font-specification:DejaVuSans;writing-mode:lr-tb;fill:#000000;fill-opacity:1;fill-rule:nonzero;stroke:none"
         id="text466"><tspan
           x="0 6.3400002"
           y="0"
           sodipodi:role="line"
           id="tspan464">no</tspan></text><text
         transform="matrix(1,0,0,-1,386.76562,279.54063)"
         style="font-variant:normal;font-weight:normal;font-size:10px;font-family:'DejaVu Sans';-inkscape-font-specification:DejaVuSans;writing-mode:lr-tb;fill:#000000;fill-opacity:1;fill-rule:nonzero;stroke:none"
         id="text470"><tspan
           x="0 5.9200001 12.05 17.549999 23.049999 25.83 32.169998 38.299999 42.220001 45 51.119999"
           y="0"
           sodipodi:role="line"
           id="tspan468">vaccination</tspan></text><path
         d="m 481.92857,305.325 v -3.5"
         style="fill:#000000;fill-opacity:1;fill-rule:nonzero;stroke:#000000;stroke-width:0.8;stroke-linecap:butt;stroke-linejoin:round;stroke-miterlimit:10;stroke-dasharray:none;stroke-opacity:1"
         id="path472" /><text
         transform="matrix(1,0,0,-1,456.5067,290.73125)"
         style="font-variant:normal;font-weight:normal;font-size:10px;font-family:'DejaVu Sans';-inkscape-font-specification:DejaVuSans;writing-mode:lr-tb;fill:#000000;fill-opacity:1;fill-rule:nonzero;stroke:none"
         id="text476"><tspan
           x="0 6.1500001 15.89 22.24 25.42 28.6 34.959999 41.32"
           y="0"
           sodipodi:role="line"
           id="tspan474">emp. 50%</tspan></text><text
         transform="matrix(1,0,0,-1,463.1942,279.54063)"
         style="font-variant:normal;font-weight:normal;font-size:10px;font-family:'DejaVu Sans';-inkscape-font-specification:DejaVuSans;writing-mode:lr-tb;fill:#000000;fill-opacity:1;fill-rule:nonzero;stroke:none"
         id="text480"><tspan
           x="0 4.1100001 10.26 15.47 18.65 21.83 28.190001"
           y="0"
           sodipodi:role="line"
           id="tspan478">res. 0%</tspan></text><path
         d="m 548.35714,305.325 v -3.5"
         style="fill:#000000;fill-opacity:1;fill-rule:nonzero;stroke:#000000;stroke-width:0.8;stroke-linecap:butt;stroke-linejoin:round;stroke-miterlimit:10;stroke-dasharray:none;stroke-opacity:1"
         id="path482" /><text
         transform="matrix(1,0,0,-1,526.11496,290.73125)"
         style="font-variant:normal;font-weight:normal;font-size:10px;font-family:'DejaVu Sans';-inkscape-font-specification:DejaVuSans;writing-mode:lr-tb;fill:#000000;fill-opacity:1;fill-rule:nonzero;stroke:none"
         id="text486"><tspan
           x="0 6.1500001 15.89 22.24 25.42 28.6 34.959999"
           y="0"
           sodipodi:role="line"
           id="tspan484">emp. 0%</tspan></text><text
         transform="matrix(1,0,0,-1,526.44308,279.54063)"
         style="font-variant:normal;font-weight:normal;font-size:10px;font-family:'DejaVu Sans';-inkscape-font-specification:DejaVuSans;writing-mode:lr-tb;fill:#000000;fill-opacity:1;fill-rule:nonzero;stroke:none"
         id="text490"><tspan
           x="0 4.1100001 10.26 15.47 18.65 21.83 28.190001 34.549999"
           y="0"
           sodipodi:role="line"
           id="tspan488">res. 50%</tspan></text><path
         d="m 614.78571,305.325 v -3.5"
         style="fill:#000000;fill-opacity:1;fill-rule:nonzero;stroke:#000000;stroke-width:0.8;stroke-linecap:butt;stroke-linejoin:round;stroke-miterlimit:10;stroke-dasharray:none;stroke-opacity:1"
         id="path492" /><text
         transform="matrix(1,0,0,-1,589.36384,290.73125)"
         style="font-variant:normal;font-weight:normal;font-size:10px;font-family:'DejaVu Sans';-inkscape-font-specification:DejaVuSans;writing-mode:lr-tb;fill:#000000;fill-opacity:1;fill-rule:nonzero;stroke:none"
         id="text496"><tspan
           x="0 6.1500001 15.89 22.24 25.42 28.6 34.959999 41.32"
           y="0"
           sodipodi:role="line"
           id="tspan494">emp. 50%</tspan></text><text
         transform="matrix(1,0,0,-1,592.87165,279.54063)"
         style="font-variant:normal;font-weight:normal;font-size:10px;font-family:'DejaVu Sans';-inkscape-font-specification:DejaVuSans;writing-mode:lr-tb;fill:#000000;fill-opacity:1;fill-rule:nonzero;stroke:none"
         id="text500"><tspan
           x="0 4.1100001 10.26 15.47 18.65 21.83 28.190001 34.549999"
           y="0"
           sodipodi:role="line"
           id="tspan498">res. 90%</tspan></text></g><g
       id="g502"
       transform="translate(-292.28572)"><g
         id="g504"
         clip-path="url(#clipPath508)"><path
           d="m 415.5,326.55937 v 8.49375"
           style="fill:none;stroke:#2a2a2a;stroke-width:1.5;stroke-linecap:square;stroke-linejoin:round;stroke-miterlimit:10;stroke-dasharray:none;stroke-opacity:1"
           id="path510" /></g></g><g
       id="g512"
       transform="translate(-292.28572)"><g
         id="g514"
         clip-path="url(#clipPath518)"><path
           d="m 415.5,326.55937 v 4.24688"
           style="fill:none;stroke:#2a2a2a;stroke-width:4.5;stroke-linecap:square;stroke-linejoin:round;stroke-miterlimit:10;stroke-dasharray:none;stroke-opacity:1"
           id="path520" /></g></g><g
       id="g522"
       transform="translate(-292.28572)"><g
         id="g524"
         clip-path="url(#clipPath528)"><path
           d="m 481.92857,326.55937 v 8.49375"
           style="fill:none;stroke:#2a2a2a;stroke-width:1.5;stroke-linecap:square;stroke-linejoin:round;stroke-miterlimit:10;stroke-dasharray:none;stroke-opacity:1"
           id="path530" /></g></g><g
       id="g532"
       transform="translate(-292.28572)"><g
         id="g534"
         clip-path="url(#clipPath538)"><path
           d="m 481.92857,326.55937 v 4.24688"
           style="fill:none;stroke:#2a2a2a;stroke-width:4.5;stroke-linecap:square;stroke-linejoin:round;stroke-miterlimit:10;stroke-dasharray:none;stroke-opacity:1"
           id="path540" /></g></g><g
       id="g542"
       transform="translate(-292.28572)"><g
         id="g544"
         clip-path="url(#clipPath548)"><path
           d="m 548.35714,326.55937 v 0"
           style="fill:none;stroke:#2a2a2a;stroke-width:1.5;stroke-linecap:square;stroke-linejoin:round;stroke-miterlimit:10;stroke-dasharray:none;stroke-opacity:1"
           id="path550" /></g></g><g
       id="g552"
       transform="translate(-292.28572)"><g
         id="g554"
         clip-path="url(#clipPath558)"><path
           d="m 548.35714,326.55937 v 0"
           style="fill:none;stroke:#2a2a2a;stroke-width:4.5;stroke-linecap:square;stroke-linejoin:round;stroke-miterlimit:10;stroke-dasharray:none;stroke-opacity:1"
           id="path560" /></g></g><g
       id="g562"
       transform="translate(-292.28572)"><g
         id="g564"
         clip-path="url(#clipPath568)"><path
           d="m 614.78571,326.55937 v 0"
           style="fill:none;stroke:#2a2a2a;stroke-width:1.5;stroke-linecap:square;stroke-linejoin:round;stroke-miterlimit:10;stroke-dasharray:none;stroke-opacity:1"
           id="path570" /></g></g><g
       id="g572"
       transform="translate(-292.28572)"><g
         id="g574"
         clip-path="url(#clipPath578)"><path
           d="m 614.78571,326.55937 v 0"
           style="fill:none;stroke:#2a2a2a;stroke-width:4.5;stroke-linecap:square;stroke-linejoin:round;stroke-miterlimit:10;stroke-dasharray:none;stroke-opacity:1"
           id="path580" /></g></g><g
       id="g582"
       transform="translate(-292.28572)"><path
         d="M 382.28571,305.325 H 648"
         style="fill:none;stroke:#000000;stroke-width:0.8;stroke-linecap:square;stroke-linejoin:miter;stroke-miterlimit:10;stroke-dasharray:none;stroke-opacity:1"
         id="path584" /></g><g
       id="g586"
       transform="translate(-292.28572)"><g
         id="g588"
         clip-path="url(#clipPath592)"><path
           d="m 415.5,325.05937 c 0.3978,0 0.77937,0.15805 1.06066,0.43934 0.28129,0.28129 0.43934,0.66286 0.43934,1.06066 0,0.39781 -0.15805,0.77937 -0.43934,1.06066 -0.28129,0.2813 -0.66286,0.43934 -1.06066,0.43934 -0.39781,0 -0.77937,-0.15804 -1.06066,-0.43934 C 414.15805,327.33874 414,326.95718 414,326.55937 c 0,-0.3978 0.15805,-0.77937 0.43934,-1.06066 0.28129,-0.28129 0.66285,-0.43934 1.06066,-0.43934 z"
           style="fill:#ffffff;fill-opacity:0.7;fill-rule:nonzero;stroke:#2a2a2a;stroke-width:1;stroke-linecap:butt;stroke-linejoin:round;stroke-miterlimit:10;stroke-dasharray:none;stroke-opacity:0.7"
           id="path594" /></g></g><g
       id="g596"
       transform="translate(-292.28572)"><g
         id="g598"
         clip-path="url(#clipPath602)"><path
           d="m 481.92857,325.05937 c 0.39781,0 0.77937,0.15805 1.06066,0.43934 0.28129,0.28129 0.43934,0.66286 0.43934,1.06066 0,0.39781 -0.15805,0.77937 -0.43934,1.06066 -0.28129,0.2813 -0.66285,0.43934 -1.06066,0.43934 -0.3978,0 -0.77937,-0.15804 -1.06066,-0.43934 -0.28129,-0.28129 -0.43934,-0.66285 -0.43934,-1.06066 0,-0.3978 0.15805,-0.77937 0.43934,-1.06066 0.28129,-0.28129 0.66286,-0.43934 1.06066,-0.43934 z"
           style="fill:#ffffff;fill-opacity:0.7;fill-rule:nonzero;stroke:#2a2a2a;stroke-width:1;stroke-linecap:butt;stroke-linejoin:round;stroke-miterlimit:10;stroke-dasharray:none;stroke-opacity:0.7"
           id="path604" /></g></g><g
       id="g606"
       transform="translate(-292.28572)"><g
         id="g608"
         clip-path="url(#clipPath612)"><path
           d="m 548.35714,325.05937 c 0.39781,0 0.77937,0.15805 1.06066,0.43934 0.28129,0.28129 0.43934,0.66286 0.43934,1.06066 0,0.39781 -0.15805,0.77937 -0.43934,1.06066 -0.28129,0.2813 -0.66285,0.43934 -1.06066,0.43934 -0.3978,0 -0.77937,-0.15804 -1.06066,-0.43934 -0.28129,-0.28129 -0.43934,-0.66285 -0.43934,-1.06066 0,-0.3978 0.15805,-0.77937 0.43934,-1.06066 0.28129,-0.28129 0.66286,-0.43934 1.06066,-0.43934 z"
           style="fill:#ffffff;fill-opacity:0.7;fill-rule:nonzero;stroke:#2a2a2a;stroke-width:1;stroke-linecap:butt;stroke-linejoin:round;stroke-miterlimit:10;stroke-dasharray:none;stroke-opacity:0.7"
           id="path614" /></g></g><g
       id="g616"
       transform="translate(-292.28572)"><g
         id="g618"
         clip-path="url(#clipPath622)"><path
           d="m 614.78571,325.05937 c 0.39781,0 0.77937,0.15805 1.06066,0.43934 0.28129,0.28129 0.43934,0.66286 0.43934,1.06066 0,0.39781 -0.15805,0.77937 -0.43934,1.06066 -0.28129,0.2813 -0.66285,0.43934 -1.06066,0.43934 -0.3978,0 -0.77937,-0.15804 -1.06066,-0.43934 -0.28129,-0.28129 -0.43934,-0.66285 -0.43934,-1.06066 0,-0.3978 0.15805,-0.77937 0.43934,-1.06066 0.28129,-0.28129 0.66286,-0.43934 1.06066,-0.43934 z"
           style="fill:#ffffff;fill-opacity:0.7;fill-rule:nonzero;stroke:#2a2a2a;stroke-width:1;stroke-linecap:butt;stroke-linejoin:round;stroke-miterlimit:10;stroke-dasharray:none;stroke-opacity:0.7"
           id="path624" /></g></g><text
       transform="scale(1,-1)"
       style="font-variant:normal;font-weight:normal;font-size:12.5788px;font-family:'DejaVu Sans';-inkscape-font-specification:DejaVuSans;writing-mode:lr-tb;fill:#000000;fill-opacity:1;fill-rule:nonzero;stroke:none;stroke-width:1.25788"
       id="text630"
       x="175.93683"
       y="-454.7778"><tspan
         x="175.93683 180.86774 188.60376 195.15729 200.08826 203.58514 211.56012 219.54767 223.54773 231.28375 243.53552 251.52307 255.02002 262.71826 270.16492 277.90094 285.6369 292.19049 296.19055 304.19067 311.63739 315.87646 326.16595 333.90192 341.63788"
         y="-454.7778"
         sodipodi:role="line"
         id="tspan628"
         style="stroke-width:1.25788">testing employees 2x/week</tspan></text><text
       transform="scale(1,-1)"
       style="font-variant:normal;font-weight:normal;font-size:12.5788px;font-family:'DejaVu Sans';-inkscape-font-specification:DejaVuSans;writing-mode:lr-tb;fill:#000000;fill-opacity:1;fill-rule:nonzero;stroke:none;stroke-width:1.25788"
       id="text634"
       x="216.95569"
       y="-440.70126"><tspan
         x="216.95569 223.50922 231.22003 243.4718 251.20782 255.74878 263.73639 271.4472 278.89386 282.89392 290.479 299.25903"
         y="-440.70126"
         sodipodi:role="line"
         id="tspan632"
         style="stroke-width:1.25788">same-day PCR</tspan></text><g
       id="g1546"
       transform="translate(-17.438634,9)"><path
         d="m 274.9074,372.22187 h 81.39062 c 1.33334,0 2,0.66667 2,2 v 43.01563 c 0,1.33333 -0.66666,2 -2,2 H 274.9074 c -1.33334,0 -2,-0.66667 -2,-2 v -43.01563 c 0,-1.33333 0.66666,-2 2,-2 z"
         style="fill:#ffffff;fill-opacity:0.8;fill-rule:nonzero;stroke:#cccccc;stroke-width:1;stroke-linecap:butt;stroke-linejoin:miter;stroke-miterlimit:10;stroke-dasharray:none;stroke-opacity:0.8"
         id="path636" /><text
         transform="scale(1,-1)"
         style="font-variant:normal;font-weight:normal;font-size:10px;font-family:'DejaVu Sans';-inkscape-font-specification:DejaVuSans;writing-mode:lr-tb;fill:#000000;fill-opacity:1;fill-rule:nonzero;stroke:none"
         id="text640"
         x="288.798"
         y="-407.64374"><tspan
           x="288.798 291.578 297.91803 304.26801 310.41803 316.33801 319.51801 325.01801 331.14801 336.35803"
           y="-407.64374"
           sodipodi:role="line"
           id="tspan638">index case</tspan></text><path
         d="m 276.9074,392.97187 h 20 v 7 h -20 z"
         style="fill:#a03434;fill-opacity:1;fill-rule:nonzero;stroke:#2a2a2a;stroke-width:0.75;stroke-linecap:butt;stroke-linejoin:miter;stroke-miterlimit:10;stroke-dasharray:none;stroke-opacity:1"
         id="path642" /><text
         transform="scale(1,-1)"
         style="font-variant:normal;font-weight:normal;font-size:10px;font-family:'DejaVu Sans';-inkscape-font-specification:DejaVuSans;writing-mode:lr-tb;fill:#000000;fill-opacity:1;fill-rule:nonzero;stroke:none"
         id="text646"
         x="304.90741"
         y="-392.97186"><tspan
           x="304.90741 311.0574 320.79739 327.1474 329.9274 336.04739 341.96741 348.1174"
           y="-392.97186"
           sodipodi:role="line"
           id="tspan644">employee</tspan></text><path
         d="m 276.9074,378.3 h 20 v 7 h -20 z"
         style="fill:#11117a;fill-opacity:1;fill-rule:nonzero;stroke:#2a2a2a;stroke-width:0.75;stroke-linecap:butt;stroke-linejoin:miter;stroke-miterlimit:10;stroke-dasharray:none;stroke-opacity:1"
         id="path648" /><text
         transform="scale(1,-1)"
         style="font-variant:normal;font-weight:normal;font-size:10px;font-family:'DejaVu Sans';-inkscape-font-specification:DejaVuSans;writing-mode:lr-tb;fill:#000000;fill-opacity:1;fill-rule:nonzero;stroke:none"
         id="text652"
         x="304.90741"
         y="-378.29999"><tspan
           x="304.90741 309.0174 315.16739 320.37741 323.15741 329.50739 335.65741 341.99741"
           y="-378.29999"
           sodipodi:role="line"
           id="tspan650">resident</tspan></text></g><rect
       style="fill:none;stroke:#ff0000;stroke-width:2.13662;stroke-linecap:round;stroke-linejoin:round;stroke-miterlimit:4;stroke-dasharray:none;stroke-opacity:1"
       id="rect2129"
       width="66.634651"
       height="180.46413"
       x="93.194107"
       y="-448.73001"
       transform="scale(1,-1)"
       ry="0" /><path
       d="m 89.999992,305.325 h -3.5"
       style="fill:#000000;fill-opacity:1;fill-rule:nonzero;stroke:#000000;stroke-width:0.8;stroke-linecap:butt;stroke-linejoin:round;stroke-miterlimit:10;stroke-dasharray:none;stroke-opacity:1"
       id="path1770" /><text
       transform="scale(1,-1)"
       style="font-variant:normal;font-weight:normal;font-size:10px;font-family:'DejaVu Sans';-inkscape-font-specification:DejaVuSans;writing-mode:lr-tb;fill:#000000;fill-opacity:1;fill-rule:nonzero;stroke:none"
       id="text1774"
       x="76.644531"
       y="-301.52811"><tspan
         x="76.644531"
         y="-301.52811"
         id="tspan1772">5</tspan></text><g
       id="g1782"
       transform="matrix(0.01,0,0,0.01,68.265622,301.52812)"><g
         id="g1780"><g
           id="g1778"
           clip-path="url(#clipPath812)"><path
             d="M 106,355 H 732 V 272 H 106 v 83"
             style="fill:#000000;fill-opacity:1;fill-rule:nonzero;stroke:none"
             id="path1776" /></g></g></g><path
       d="m 89.999992,326.55937 h -3.5"
       style="fill:#000000;fill-opacity:1;fill-rule:nonzero;stroke:#000000;stroke-width:0.8;stroke-linecap:butt;stroke-linejoin:round;stroke-miterlimit:10;stroke-dasharray:none;stroke-opacity:1"
       id="path1784" /><text
       transform="scale(1,-1)"
       style="font-variant:normal;font-weight:normal;font-size:10px;font-family:'DejaVu Sans';-inkscape-font-specification:DejaVuSans;writing-mode:lr-tb;fill:#000000;fill-opacity:1;fill-rule:nonzero;stroke:none"
       id="text1788"
       x="76.640625"
       y="-322.76248"><tspan
         x="76.640625"
         y="-322.76248"
         id="tspan1786">0</tspan></text><path
       d="m 89.999992,347.79375 h -3.5"
       style="fill:#000000;fill-opacity:1;fill-rule:nonzero;stroke:#000000;stroke-width:0.8;stroke-linecap:butt;stroke-linejoin:round;stroke-miterlimit:10;stroke-dasharray:none;stroke-opacity:1"
       id="path1790" /><text
       transform="scale(1,-1)"
       style="font-variant:normal;font-weight:normal;font-size:10px;font-family:'DejaVu Sans';-inkscape-font-specification:DejaVuSans;writing-mode:lr-tb;fill:#000000;fill-opacity:1;fill-rule:nonzero;stroke:none"
       id="text1794"
       x="76.640625"
       y="-343.99686"><tspan
         x="76.640625"
         y="-343.99686"
         id="tspan1792">5</tspan></text><path
       d="m 89.999992,369.02812 h -3.5"
       style="fill:#000000;fill-opacity:1;fill-rule:nonzero;stroke:#000000;stroke-width:0.8;stroke-linecap:butt;stroke-linejoin:round;stroke-miterlimit:10;stroke-dasharray:none;stroke-opacity:1"
       id="path1796" /><text
       transform="scale(1,-1)"
       style="font-variant:normal;font-weight:normal;font-size:10px;font-family:'DejaVu Sans';-inkscape-font-specification:DejaVuSans;writing-mode:lr-tb;fill:#000000;fill-opacity:1;fill-rule:nonzero;stroke:none"
       id="text1800"
       x="70.28125"
       y="-365.23123"><tspan
         x="70.28125 76.641235"
         y="-365.23123"
         sodipodi:role="line"
         id="tspan1798">10</tspan></text><path
       d="m 89.999992,390.2625 h -3.5"
       style="fill:#000000;fill-opacity:1;fill-rule:nonzero;stroke:#000000;stroke-width:0.8;stroke-linecap:butt;stroke-linejoin:round;stroke-miterlimit:10;stroke-dasharray:none;stroke-opacity:1"
       id="path1802" /><text
       transform="scale(1,-1)"
       style="font-variant:normal;font-weight:normal;font-size:10px;font-family:'DejaVu Sans';-inkscape-font-specification:DejaVuSans;writing-mode:lr-tb;fill:#000000;fill-opacity:1;fill-rule:nonzero;stroke:none"
       id="text1806"
       x="70.28125"
       y="-386.46561"><tspan
         x="70.28125 76.641235"
         y="-386.46561"
         sodipodi:role="line"
         id="tspan1804">15</tspan></text><path
       d="m 89.999992,411.49687 h -3.5"
       style="fill:#000000;fill-opacity:1;fill-rule:nonzero;stroke:#000000;stroke-width:0.8;stroke-linecap:butt;stroke-linejoin:round;stroke-miterlimit:10;stroke-dasharray:none;stroke-opacity:1"
       id="path1808" /><text
       transform="scale(1,-1)"
       style="font-variant:normal;font-weight:normal;font-size:10px;font-family:'DejaVu Sans';-inkscape-font-specification:DejaVuSans;writing-mode:lr-tb;fill:#000000;fill-opacity:1;fill-rule:nonzero;stroke:none"
       id="text1812"
       x="70.28125"
       y="-407.69998"><tspan
         x="70.28125 76.641235"
         y="-407.69998"
         sodipodi:role="line"
         id="tspan1810">20</tspan></text><path
       d="m 89.999992,432.73125 h -3.5"
       style="fill:#000000;fill-opacity:1;fill-rule:nonzero;stroke:#000000;stroke-width:0.8;stroke-linecap:butt;stroke-linejoin:round;stroke-miterlimit:10;stroke-dasharray:none;stroke-opacity:1"
       id="path1814" /><text
       transform="scale(1,-1)"
       style="font-variant:normal;font-weight:normal;font-size:10px;font-family:'DejaVu Sans';-inkscape-font-specification:DejaVuSans;writing-mode:lr-tb;fill:#000000;fill-opacity:1;fill-rule:nonzero;stroke:none"
       id="text1818"
       x="70.28125"
       y="-428.93436"><tspan
         x="70.28125 76.641235"
         y="-428.93436"
         sodipodi:role="line"
         id="tspan1816">25</tspan></text><path
       d="m 89.999992,453.96562 h -3.5"
       style="fill:#000000;fill-opacity:1;fill-rule:nonzero;stroke:#000000;stroke-width:0.8;stroke-linecap:butt;stroke-linejoin:round;stroke-miterlimit:10;stroke-dasharray:none;stroke-opacity:1"
       id="path1820" /><text
       transform="scale(1,-1)"
       style="font-variant:normal;font-weight:normal;font-size:10px;font-family:'DejaVu Sans';-inkscape-font-specification:DejaVuSans;writing-mode:lr-tb;fill:#000000;fill-opacity:1;fill-rule:nonzero;stroke:none"
       id="text1824"
       x="70.28125"
       y="-450.16873"><tspan
         x="70.28125 76.641235"
         y="-450.16873"
         sodipodi:role="line"
         id="tspan1822">30</tspan></text><path
       d="m 89.999992,475.2 h -3.5"
       style="fill:#000000;fill-opacity:1;fill-rule:nonzero;stroke:#000000;stroke-width:0.8;stroke-linecap:butt;stroke-linejoin:round;stroke-miterlimit:10;stroke-dasharray:none;stroke-opacity:1"
       id="path1826" /><text
       transform="scale(1,-1)"
       style="font-variant:normal;font-weight:normal;font-size:10px;font-family:'DejaVu Sans';-inkscape-font-specification:DejaVuSans;writing-mode:lr-tb;fill:#000000;fill-opacity:1;fill-rule:nonzero;stroke:none"
       id="text1830"
       x="70.28125"
       y="-471.40311"><tspan
         x="70.28125 76.641235"
         y="-471.40311"
         sodipodi:role="line"
         id="tspan1828">35</tspan></text><text
       transform="matrix(0,1,1,0,0,0)"
       style="font-variant:normal;font-weight:normal;font-size:10px;font-family:'DejaVu Sans';-inkscape-font-specification:DejaVuSans;writing-mode:lr-tb;fill:#000000;fill-opacity:1;fill-rule:nonzero;stroke:none"
       id="text1834"
       x="336.09061"
       y="62.1875"><tspan
         x="336.09061 339.61063 342.39062 348.73062 354.86063 357.64062 360.82062 366.94061 373.28061 377.20062 383.55063 387.66061 393.81061 399.94061 405.73062 408.91061 414.12061 416.9006 422.1506 428.30063 431.48062 435.09061 438.27063"
         y="62.1875"
         sodipodi:role="line"
         id="tspan1832">final outbreak size - 1</tspan></text><path
       d="M 89.999992,305.325 V 475.2"
       style="fill:none;stroke:#000000;stroke-width:0.8;stroke-linecap:square;stroke-linejoin:miter;stroke-miterlimit:10;stroke-dasharray:none;stroke-opacity:1"
       id="path1836" /></g></svg>
