<?xml version="1.0" encoding="UTF-8" standalone="no"?>
<!-- Created with Inkscape (http://www.inkscape.org/) -->

<svg
   xmlns:dc="http://purl.org/dc/elements/1.1/"
   xmlns:cc="http://creativecommons.org/ns#"
   xmlns:rdf="http://www.w3.org/1999/02/22-rdf-syntax-ns#"
   xmlns:svg="http://www.w3.org/2000/svg"
   xmlns="http://www.w3.org/2000/svg"
   xmlns:sodipodi="http://sodipodi.sourceforge.net/DTD/sodipodi-0.dtd"
   xmlns:inkscape="http://www.inkscape.org/namespaces/inkscape"
   version="1.1"
   id="svg2"
   xml:space="preserve"
   width="496.12534"
   height="241.88933"
   viewBox="0 0 496.12534 241.88933"
   sodipodi:docname="Hegselmann-1.svg"
   inkscape:version="0.92.5 (2060ec1f9f, 2020-04-08)"><metadata
     id="metadata8"><rdf:RDF><cc:Work
         rdf:about=""><dc:format>image/svg+xml</dc:format><dc:type
           rdf:resource="http://purl.org/dc/dcmitype/StillImage" /><dc:title /></cc:Work></rdf:RDF></metadata><defs
     id="defs6"><clipPath
       clipPathUnits="userSpaceOnUse"
       id="clipPath24"><path
         d="M 2.043,1.503 H 194.28 V 181.417 H 2.043 Z"
         id="path22"
         inkscape:connector-curvature="0" /></clipPath><clipPath
       clipPathUnits="userSpaceOnUse"
       id="clipPath100"><path
         d="M 187.201,1.503 H 372.093 V 181.417 H 187.201 Z"
         id="path98"
         inkscape:connector-curvature="0" /></clipPath><clipPath
       clipPathUnits="userSpaceOnUse"
       id="clipPath120"><path
         d="M 187.201,1.503 H 372.093 V 180.326 H 187.201 Z"
         id="path118"
         inkscape:connector-curvature="0" /></clipPath><clipPath
       clipPathUnits="userSpaceOnUse"
       id="clipPath132"><path
         d="M 187.201,1.503 H 372.093 V 181.417 H 187.201 Z"
         id="path130"
         inkscape:connector-curvature="0" /></clipPath><clipPath
       clipPathUnits="userSpaceOnUse"
       id="clipPath176"><path
         d="M 187.201,1.914 H 372.093 V 181.417 H 187.201 Z"
         id="path174"
         inkscape:connector-curvature="0" /></clipPath></defs><sodipodi:namedview
     pagecolor="#ffffff"
     bordercolor="#666666"
     borderopacity="1"
     objecttolerance="10"
     gridtolerance="10"
     guidetolerance="10"
     inkscape:pageopacity="0"
     inkscape:pageshadow="2"
     inkscape:window-width="2560"
     inkscape:window-height="1343"
     id="namedview4"
     showgrid="false"
     inkscape:zoom="1.8987138"
     inkscape:cx="197.33416"
     inkscape:cy="76.973129"
     inkscape:window-x="0"
     inkscape:window-y="0"
     inkscape:window-maximized="1"
     inkscape:current-layer="g10" /><g
     id="g10"
     inkscape:groupmode="layer"
     inkscape:label="Hegselmann-1"
     transform="matrix(1.3333333,0,0,-1.3333333,0,241.88933)"><g
       id="g12"
       transform="translate(37.8792,177.293)"><path
         d="M 0,0 H -0.024 L -1.383,-0.733 -1.587,0.072 0.12,0.986 H 1.022 V -6.83 H 0 Z"
         style="fill:#000000;fill-opacity:1;fill-rule:nonzero;stroke:none"
         id="path14"
         inkscape:connector-curvature="0" /></g><path
       d="m 35.921,25.264 h 141 v 141 h -141 z M 177.642,24.543 H 35.202 v 142.44 h 142.44 z"
       style="fill:#000000;fill-opacity:1;fill-rule:nonzero;stroke:none"
       id="path16"
       inkscape:connector-curvature="0" /><path
       inkscape:connector-curvature="0"
       id="path28"
       style="fill:#0000ff;fill-opacity:1;fill-rule:nonzero;stroke:none"
       d="m 36.3612,25.2628 c -0.092,0 -0.184,0.035 -0.254,0.105 -0.141,0.141 -0.141,0.37 -10e-4,0.51 l 135.6,135.719 c 0.141,0.141 0.369,0.141 0.51,0.001 0.141,-0.141 0.141,-0.369 0,-0.509 l -135.6,-135.721 c -0.07,-0.07 -0.163,-0.105 -0.255,-0.105" /><path
       inkscape:connector-curvature="0"
       id="path32"
       style="fill:#0000ff;fill-opacity:1;fill-rule:evenodd;stroke:none"
       d="m 174.4812,158.223 2.76,8.28 -8.28,-2.76" /><path
       d="m 34.081,21.663 h 15 v -18 h -15 z"
       style="fill:#ffffff;fill-opacity:1;fill-rule:nonzero;stroke:none"
       id="path34"
       inkscape:connector-curvature="0" /><path
       inkscape:connector-curvature="0"
       id="path38"
       style="fill:#000000;fill-opacity:1;fill-rule:nonzero;stroke:none"
       d="m 40.0121,14.376 c 0,-2.032 0.625,-3.187 1.587,-3.187 1.082,0 1.6,1.263 1.6,3.259 0,1.924 -0.494,3.186 -1.587,3.186 -0.926,0 -1.6,-1.13 -1.6,-3.258 m 4.245,0.12 c 0,-2.657 -0.986,-4.124 -2.718,-4.124 -1.527,0 -2.561,1.431 -2.585,4.016 0,2.621 1.13,4.064 2.718,4.064 1.647,0 2.585,-1.468 2.585,-3.956" /><path
       d="m 172.201,23.223 h 15 v -18 h -15 z"
       style="fill:#ffffff;fill-opacity:1;fill-rule:nonzero;stroke:none"
       id="path40"
       inkscape:connector-curvature="0" /><path
       inkscape:connector-curvature="0"
       id="path44"
       style="fill:#000000;fill-opacity:1;fill-rule:nonzero;stroke:none"
       d="m 179.4789,18.8936 h -0.024 l -1.359,-0.734 -0.205,0.805 1.708,0.914 h 0.901 v -7.815 h -1.021 z" /><path
       inkscape:connector-curvature="0"
       id="path48"
       style="fill:#000000;fill-opacity:1;fill-rule:nonzero;stroke:none"
       d="m 5.3919,100.3644 c -0.538,0.226 -0.865,0.468 -0.982,0.733 -0.125,0.249 -0.125,0.561 0,0.928 0.163,0.483 0.506,0.881 1.013,1.208 0.71,0.437 1.505,0.655 2.402,0.663 0.538,-0.008 0.998,-0.07 1.38,-0.195 0.382,-0.125 0.616,-0.288 0.694,-0.483 0.093,-0.203 0.101,-0.39 0.039,-0.562 -0.047,-0.163 -0.172,-0.319 -0.351,-0.444 -0.179,-0.133 -0.351,-0.203 -0.53,-0.195 -0.289,-0.008 -0.46,0.179 -0.523,0.554 -0.054,0.366 -0.14,0.592 -0.241,0.686 -0.156,0.125 -0.375,0.195 -0.679,0.203 -0.46,-0.008 -0.881,-0.149 -1.247,-0.414 -0.375,-0.28 -0.632,-0.647 -0.796,-1.107 -0.156,-0.46 -0.163,-0.811 -0.015,-1.053 0.148,-0.249 0.421,-0.366 0.818,-0.358 0.133,-0.008 0.289,0 0.453,0.031 0.273,0.023 0.475,0.039 0.616,0.047 0.226,-0.008 0.366,-0.039 0.429,-0.086 0.062,-0.062 0.077,-0.133 0.054,-0.195 -0.023,-0.094 -0.078,-0.156 -0.164,-0.179 -0.117,-0.078 -0.288,-0.117 -0.522,-0.109 -0.055,-0.008 -0.133,0 -0.257,0.023 -0.25,0.031 -0.46,0.054 -0.64,0.062 -0.436,-0.008 -0.842,-0.156 -1.216,-0.436 -0.374,-0.297 -0.639,-0.671 -0.803,-1.123 -0.18,-0.554 -0.18,-0.983 0,-1.287 0.187,-0.304 0.507,-0.452 0.967,-0.444 0.374,-0.008 0.709,0.101 1.021,0.335 0.179,0.117 0.413,0.39 0.694,0.811 0.195,0.257 0.335,0.421 0.413,0.491 0.226,0.164 0.437,0.25 0.616,0.258 0.226,-0.008 0.382,-0.086 0.484,-0.234 0.101,-0.156 0.109,-0.343 0.023,-0.554 -0.117,-0.366 -0.429,-0.702 -0.951,-0.99 -0.733,-0.437 -1.567,-0.655 -2.495,-0.655 -0.975,0 -1.661,0.21 -2.043,0.647 -0.374,0.429 -0.476,0.905 -0.296,1.443 0.124,0.366 0.389,0.717 0.787,1.06 0.398,0.327 1.014,0.639 1.848,0.92" /><path
       d="m 14.743,99.93 h 0.702 v -5.666 h -0.702 z"
       style="fill:#000000;fill-opacity:1;fill-rule:nonzero;stroke:none"
       id="path50"
       inkscape:connector-curvature="0" /><path
       inkscape:connector-curvature="0"
       id="path54"
       style="fill:#000000;fill-opacity:1;fill-rule:nonzero;stroke:none"
       d="m 19.1341,96.5699 c 0.008,0.447 -0.184,1.141 -0.974,1.141 -0.71,0 -1.021,-0.654 -1.077,-1.141 z m -2.059,-0.502 c 0.016,-0.95 0.622,-1.341 1.325,-1.341 0.503,0 0.806,0.088 1.069,0.199 l 0.12,-0.502 c -0.247,-0.112 -0.671,-0.24 -1.285,-0.24 -1.189,0 -1.899,0.782 -1.899,1.947 0,1.166 0.686,2.083 1.811,2.083 1.261,0 1.596,-1.109 1.596,-1.819 0,-0.144 -0.016,-0.256 -0.024,-0.327 z" /><path
       inkscape:connector-curvature="0"
       id="path58"
       style="fill:#000000;fill-opacity:1;fill-rule:nonzero;stroke:none"
       d="m 20.7083,94.2637 v 3.328 h -0.542 v 0.534 h 0.542 v 0.184 c 0,0.543 0.12,1.037 0.447,1.349 0.263,0.255 0.615,0.359 0.942,0.359 0.247,0 0.463,-0.056 0.598,-0.112 l -0.095,-0.542 c -0.104,0.047 -0.248,0.087 -0.448,0.087 -0.598,0 -0.75,-0.526 -0.75,-1.117 v -0.208 h 0.934 v -0.534 h -0.934 v -3.328 z" /><path
       inkscape:connector-curvature="0"
       id="path62"
       style="fill:#000000;fill-opacity:1;fill-rule:nonzero;stroke:none"
       d="m 23.7508,99.2354 v -1.109 h 1.005 v -0.535 h -1.005 v -2.083 c 0,-0.479 0.135,-0.75 0.526,-0.75 0.184,0 0.32,0.024 0.408,0.048 l 0.031,-0.527 c -0.135,-0.056 -0.351,-0.095 -0.622,-0.095 -0.327,0 -0.591,0.103 -0.758,0.295 -0.2,0.207 -0.272,0.55 -0.272,1.006 v 2.106 h -0.598 v 0.535 h 0.598 v 0.925 z" /><path
       d="m 91.201,23.103 h 36.6 v -21.6 h -36.6 z"
       style="fill:#ffffff;fill-opacity:1;fill-rule:nonzero;stroke:none"
       id="path64"
       inkscape:connector-curvature="0" /><path
       inkscape:connector-curvature="0"
       id="path68"
       style="fill:#000000;fill-opacity:1;fill-rule:nonzero;stroke:none"
       d="m 96.3497,13.0039 c -0.538,0.226 -0.865,0.468 -0.982,0.733 -0.125,0.249 -0.125,0.561 0,0.928 0.163,0.483 0.506,0.881 1.013,1.208 0.71,0.437 1.505,0.655 2.402,0.663 0.538,-0.008 0.998,-0.07 1.38,-0.195 0.382,-0.125 0.616,-0.288 0.694,-0.483 0.093,-0.203 0.101,-0.39 0.039,-0.562 -0.047,-0.163 -0.172,-0.319 -0.351,-0.444 -0.179,-0.133 -0.351,-0.203 -0.53,-0.195 -0.289,-0.008 -0.46,0.179 -0.523,0.554 -0.054,0.366 -0.14,0.592 -0.241,0.686 -0.156,0.125 -0.375,0.195 -0.679,0.202 -0.46,-0.007 -0.881,-0.148 -1.247,-0.413 -0.375,-0.28 -0.632,-0.647 -0.796,-1.107 -0.156,-0.46 -0.163,-0.811 -0.015,-1.053 0.148,-0.249 0.421,-0.366 0.818,-0.358 0.133,-0.008 0.289,0 0.453,0.031 0.273,0.023 0.475,0.039 0.616,0.047 0.226,-0.008 0.366,-0.039 0.429,-0.086 0.062,-0.062 0.077,-0.133 0.054,-0.195 -0.023,-0.094 -0.078,-0.156 -0.164,-0.179 -0.117,-0.078 -0.288,-0.117 -0.522,-0.109 -0.055,-0.008 -0.133,0 -0.257,0.023 -0.25,0.031 -0.46,0.054 -0.64,0.062 -0.436,-0.008 -0.842,-0.156 -1.216,-0.436 -0.374,-0.297 -0.639,-0.671 -0.803,-1.123 -0.18,-0.554 -0.18,-0.983 0,-1.287 0.187,-0.304 0.507,-0.452 0.967,-0.444 0.374,-0.008 0.709,0.101 1.021,0.335 0.179,0.117 0.413,0.39 0.694,0.811 0.195,0.257 0.335,0.421 0.413,0.491 0.226,0.164 0.437,0.25 0.616,0.258 0.226,-0.008 0.382,-0.086 0.484,-0.234 0.101,-0.156 0.109,-0.343 0.023,-0.554 -0.117,-0.366 -0.429,-0.702 -0.951,-0.99 -0.733,-0.437 -1.567,-0.655 -2.495,-0.655 -0.975,0 -1.661,0.21 -2.043,0.647 -0.374,0.429 -0.476,0.904 -0.296,1.443 0.124,0.366 0.389,0.717 0.787,1.06 0.398,0.327 1.014,0.639 1.848,0.92" /><path
       inkscape:connector-curvature="0"
       id="path72"
       style="fill:#000000;fill-opacity:1;fill-rule:nonzero;stroke:none"
       d="m 101.8646,7.7608 c 0,0.455 -0.009,0.846 -0.032,1.205 h 0.614 l 0.024,-0.758 h 0.032 c 0.175,0.519 0.598,0.846 1.069,0.846 0.08,0 0.136,-0.008 0.2,-0.023 v -0.664 c -0.072,0.017 -0.143,0.025 -0.24,0.025 -0.494,0 -0.846,-0.375 -0.941,-0.902 -0.016,-0.096 -0.032,-0.208 -0.032,-0.328 v -2.058 h -0.694 z" /><path
       d="m 104.484,8.966 h 0.702 V 5.104 h -0.702 z m 0.781,1.086 c 0.009,-0.24 -0.167,-0.432 -0.446,-0.432 -0.248,0 -0.423,0.192 -0.423,0.432 0,0.247 0.183,0.438 0.438,0.438 0.264,0 0.431,-0.191 0.431,-0.438"
       style="fill:#000000;fill-opacity:1;fill-rule:nonzero;stroke:none"
       id="path74"
       inkscape:connector-curvature="0" /><path
       inkscape:connector-curvature="0"
       id="path78"
       style="fill:#000000;fill-opacity:1;fill-rule:nonzero;stroke:none"
       d="m 108.8978,7.4415 c 0,0.12 -0.009,0.224 -0.04,0.319 -0.128,0.408 -0.471,0.743 -0.981,0.743 -0.671,0 -1.15,-0.567 -1.15,-1.46 0,-0.759 0.383,-1.389 1.141,-1.389 0.431,0 0.822,0.271 0.973,0.718 0.04,0.12 0.057,0.256 0.057,0.375 z m 0.726,1.524 c -0.016,-0.279 -0.032,-0.59 -0.032,-1.061 v -2.242 c 0,-0.886 -0.175,-1.429 -0.55,-1.764 -0.375,-0.352 -0.918,-0.463 -1.406,-0.463 -0.463,0 -0.973,0.111 -1.284,0.319 l 0.176,0.535 c 0.255,-0.16 0.654,-0.303 1.133,-0.303 0.717,0 1.245,0.375 1.245,1.349 v 0.43 h -0.017 c -0.215,-0.358 -0.63,-0.646 -1.228,-0.646 -0.958,0 -1.644,0.814 -1.644,1.884 0,1.308 0.854,2.05 1.739,2.05 0.67,0 1.038,-0.35 1.205,-0.67 h 0.016 l 0.032,0.582 z" /><path
       inkscape:connector-curvature="0"
       id="path82"
       style="fill:#000000;fill-opacity:1;fill-rule:nonzero;stroke:none"
       d="m 110.7279,10.7696 h 0.702 v -2.41 h 0.016 c 0.111,0.199 0.287,0.375 0.503,0.495 0.207,0.119 0.455,0.199 0.717,0.199 0.519,0 1.349,-0.319 1.349,-1.652 v -2.298 h -0.702 v 2.219 c 0,0.622 -0.231,1.149 -0.894,1.149 -0.455,0 -0.814,-0.319 -0.941,-0.703 -0.04,-0.096 -0.048,-0.199 -0.048,-0.335 v -2.33 h -0.702 z" /><path
       inkscape:connector-curvature="0"
       id="path86"
       style="fill:#000000;fill-opacity:1;fill-rule:nonzero;stroke:none"
       d="m 116.0853,10.0753 v -1.109 h 1.005 v -0.535 h -1.005 v -2.083 c 0,-0.478 0.136,-0.75 0.526,-0.75 0.184,0 0.32,0.024 0.408,0.048 l 0.032,-0.527 c -0.136,-0.056 -0.352,-0.096 -0.623,-0.096 -0.327,0 -0.591,0.105 -0.758,0.296 -0.199,0.207 -0.272,0.551 -0.272,1.005 v 2.107 h -0.598 v 0.535 h 0.598 v 0.925 z" /><g
       id="g88"
       transform="translate(225.0799,177.2935)"><path
         d="M 0,0 H -0.024 L -1.382,-0.733 -1.587,0.072 0.121,0.986 H 1.022 V -6.83 H 0 Z"
         style="fill:#000000;fill-opacity:1;fill-rule:nonzero;stroke:none"
         id="path90"
         inkscape:connector-curvature="0" /></g><path
       d="m 223.041,25.751 h 141 v 141 h -141 z M 364.762,25.03 h -142.44 v 142.44 h 142.44 z"
       style="fill:#000000;fill-opacity:1;fill-rule:nonzero;stroke:none"
       id="path92"
       inkscape:connector-curvature="0" /><g
       id="g94"><g
         id="g96"
         clip-path="url(#clipPath100)"><g
           id="g102"
           transform="translate(222.6424,25.9024)"><path
             d="m 0,0 c -0.092,0 -0.185,0.036 -0.255,0.106 -0.141,0.141 -0.14,0.37 0.001,0.509 l 141.36,140.641 c 0.142,0.14 0.37,0.14 0.509,-0.002 0.141,-0.141 0.14,-0.368 -0.001,-0.509 L 0.254,0.105 C 0.184,0.035 0.092,0 0,0"
             style="fill:#000000;fill-opacity:1;fill-rule:nonzero;stroke:none"
             id="path104"
             inkscape:connector-curvature="0" /></g><g
           id="g106"
           transform="translate(227.3234,14.7137)"><path
             d="m 0,0 c 0,-2.032 0.625,-3.187 1.587,-3.187 1.082,0 1.6,1.263 1.6,3.259 C 3.187,1.996 2.693,3.258 1.6,3.258 0.674,3.258 0,2.128 0,0 m 4.245,0.12 c 0,-2.657 -0.986,-4.124 -2.718,-4.124 -1.527,0 -2.561,1.431 -2.585,4.016 0,2.621 1.13,4.064 2.718,4.064 1.647,0 2.585,-1.468 2.585,-3.956"
             style="fill:#000000;fill-opacity:1;fill-rule:nonzero;stroke:none"
             id="path108"
             inkscape:connector-curvature="0" /></g><g
           id="g110"
           transform="translate(366.6795,18.8936)"><path
             d="M 0,0 H -0.024 L -1.383,-0.734 -1.588,0.071 0.12,0.985 H 1.021 V -6.83 H 0 Z"
             style="fill:#000000;fill-opacity:1;fill-rule:nonzero;stroke:none"
             id="path112"
             inkscape:connector-curvature="0" /></g></g></g><g
       id="g114"><g
         id="g116"
         clip-path="url(#clipPath120)"><g
           id="g122"
           transform="translate(192.8936,100.6267)"><path
             d="m 0,0 c -0.538,0.226 -0.865,0.468 -0.982,0.733 -0.125,0.249 -0.125,0.561 0,0.928 0.163,0.483 0.506,0.881 1.013,1.208 0.71,0.437 1.505,0.655 2.402,0.663 C 2.971,3.524 3.431,3.462 3.813,3.337 4.195,3.212 4.429,3.049 4.507,2.854 4.6,2.651 4.608,2.464 4.546,2.292 4.499,2.129 4.374,1.973 4.195,1.848 4.016,1.715 3.844,1.645 3.665,1.653 3.376,1.645 3.205,1.832 3.142,2.207 3.088,2.573 3.002,2.799 2.901,2.893 2.745,3.018 2.526,3.088 2.222,3.096 1.762,3.088 1.341,2.947 0.975,2.682 0.6,2.402 0.343,2.035 0.179,1.575 0.023,1.115 0.016,0.764 0.164,0.522 0.312,0.273 0.585,0.156 0.982,0.164 1.115,0.156 1.271,0.164 1.435,0.195 1.708,0.218 1.91,0.234 2.051,0.242 2.277,0.234 2.417,0.203 2.48,0.156 2.542,0.094 2.557,0.023 2.534,-0.039 2.511,-0.133 2.456,-0.195 2.37,-0.218 2.253,-0.296 2.082,-0.335 1.848,-0.327 c -0.055,-0.008 -0.133,0 -0.257,0.023 -0.25,0.031 -0.46,0.054 -0.64,0.062 -0.436,-0.008 -0.842,-0.156 -1.216,-0.436 -0.374,-0.297 -0.639,-0.671 -0.803,-1.123 -0.18,-0.554 -0.18,-0.983 0,-1.287 0.187,-0.304 0.507,-0.452 0.967,-0.444 0.374,-0.008 0.709,0.101 1.021,0.335 0.179,0.117 0.413,0.39 0.694,0.811 0.195,0.257 0.335,0.421 0.413,0.491 0.226,0.164 0.437,0.25 0.616,0.258 C 2.869,-1.645 3.025,-1.723 3.127,-1.871 3.228,-2.027 3.236,-2.214 3.15,-2.425 3.033,-2.791 2.721,-3.127 2.199,-3.415 1.466,-3.852 0.632,-4.07 -0.296,-4.07 c -0.975,0 -1.661,0.21 -2.043,0.647 -0.374,0.429 -0.476,0.905 -0.296,1.443 0.124,0.366 0.389,0.717 0.787,1.06 C -1.45,-0.593 -0.834,-0.281 0,0"
             style="fill:#000000;fill-opacity:1;fill-rule:nonzero;stroke:none"
             id="path124"
             inkscape:connector-curvature="0" /></g></g></g><g
       id="g126"><g
         id="g128"
         clip-path="url(#clipPath132)"><path
           d="m 202.072,100.193 h 0.702 v -5.666 h -0.702 z"
           style="fill:#000000;fill-opacity:1;fill-rule:nonzero;stroke:none"
           id="path134"
           inkscape:connector-curvature="0" /><g
           id="g136"
           transform="translate(206.4629,96.8332)"><path
             d="M 0,0 C 0.008,0.447 -0.184,1.141 -0.974,1.141 -1.684,1.141 -1.995,0.487 -2.051,0 Z m -2.059,-0.502 c 0.016,-0.95 0.622,-1.341 1.325,-1.341 0.503,0 0.806,0.088 1.069,0.199 l 0.12,-0.502 c -0.247,-0.112 -0.671,-0.24 -1.285,-0.24 -1.189,0 -1.899,0.782 -1.899,1.947 0,1.166 0.686,2.083 1.811,2.083 1.261,0 1.596,-1.109 1.596,-1.819 0,-0.144 -0.016,-0.256 -0.024,-0.327 z"
             style="fill:#000000;fill-opacity:1;fill-rule:nonzero;stroke:none"
             id="path138"
             inkscape:connector-curvature="0" /></g><g
           id="g140"
           transform="translate(208.0372,94.527)"><path
             d="M 0,0 V 3.328 H -0.542 V 3.862 H 0 V 4.046 C 0,4.589 0.12,5.083 0.447,5.395 0.71,5.65 1.062,5.754 1.389,5.754 1.636,5.754 1.852,5.698 1.987,5.642 L 1.892,5.1 C 1.788,5.147 1.644,5.187 1.444,5.187 0.846,5.187 0.694,4.661 0.694,4.07 V 3.862 H 1.628 V 3.328 H 0.694 L 0.694,0 Z"
             style="fill:#000000;fill-opacity:1;fill-rule:nonzero;stroke:none"
             id="path142"
             inkscape:connector-curvature="0" /></g><g
           id="g144"
           transform="translate(211.0796,99.4987)"><path
             d="M 0,0 V -1.109 H 1.005 V -1.644 H 0 v -2.083 c 0,-0.479 0.135,-0.75 0.526,-0.75 0.184,0 0.32,0.024 0.408,0.048 L 0.965,-4.956 C 0.83,-5.012 0.614,-5.051 0.343,-5.051 c -0.327,0 -0.591,0.103 -0.758,0.295 -0.2,0.207 -0.272,0.55 -0.272,1.006 v 2.106 h -0.598 v 0.535 h 0.598 v 0.925 z"
             style="fill:#000000;fill-opacity:1;fill-rule:nonzero;stroke:none"
             id="path146"
             inkscape:connector-curvature="0" /></g><g
           id="g148"
           transform="translate(283.5508,13.004)"><path
             d="m 0,0 c -0.538,0.226 -0.865,0.468 -0.982,0.733 -0.125,0.249 -0.125,0.561 0,0.928 0.163,0.483 0.506,0.881 1.013,1.208 0.71,0.437 1.505,0.655 2.402,0.663 C 2.971,3.524 3.431,3.462 3.813,3.337 4.195,3.212 4.429,3.049 4.507,2.854 4.6,2.651 4.608,2.464 4.546,2.292 4.499,2.129 4.374,1.973 4.195,1.848 4.016,1.715 3.844,1.645 3.665,1.653 3.376,1.645 3.205,1.832 3.142,2.207 3.088,2.573 3.002,2.799 2.901,2.893 2.745,3.018 2.526,3.088 2.222,3.096 1.762,3.088 1.341,2.947 0.975,2.682 0.6,2.402 0.343,2.035 0.179,1.575 0.023,1.115 0.016,0.764 0.164,0.522 0.312,0.273 0.585,0.156 0.982,0.164 1.115,0.156 1.271,0.164 1.435,0.195 1.708,0.218 1.91,0.234 2.051,0.242 2.277,0.234 2.417,0.203 2.48,0.156 2.542,0.094 2.557,0.023 2.534,-0.039 2.511,-0.133 2.456,-0.195 2.37,-0.218 2.253,-0.296 2.082,-0.335 1.848,-0.327 c -0.055,-0.008 -0.133,0 -0.257,0.023 -0.25,0.031 -0.46,0.054 -0.64,0.062 -0.436,-0.008 -0.842,-0.156 -1.216,-0.436 -0.374,-0.297 -0.639,-0.671 -0.803,-1.123 -0.18,-0.554 -0.18,-0.983 0,-1.287 0.187,-0.304 0.507,-0.452 0.967,-0.444 0.374,-0.008 0.709,0.101 1.021,0.335 0.179,0.117 0.413,0.39 0.694,0.811 0.195,0.257 0.335,0.421 0.413,0.491 0.226,0.164 0.437,0.25 0.616,0.258 C 2.869,-1.645 3.025,-1.723 3.127,-1.871 3.228,-2.027 3.236,-2.214 3.15,-2.425 3.033,-2.791 2.721,-3.127 2.199,-3.415 1.466,-3.852 0.632,-4.07 -0.296,-4.07 c -0.975,0 -1.661,0.21 -2.043,0.647 -0.374,0.429 -0.476,0.905 -0.296,1.443 0.124,0.366 0.389,0.717 0.787,1.06 C -1.45,-0.593 -0.834,-0.281 0,0"
             style="fill:#000000;fill-opacity:1;fill-rule:nonzero;stroke:none"
             id="path150"
             inkscape:connector-curvature="0" /></g><g
           id="g152"
           transform="translate(289.0653,7.7608)"><path
             d="M 0,0 C 0,0.455 -0.009,0.846 -0.032,1.205 H 0.582 L 0.606,0.447 h 0.032 c 0.175,0.519 0.598,0.846 1.069,0.846 0.08,0 0.136,-0.008 0.2,-0.023 V 0.606 C 1.835,0.623 1.764,0.631 1.667,0.631 1.173,0.631 0.821,0.256 0.726,-0.271 0.71,-0.367 0.694,-0.479 0.694,-0.599 V -2.657 H 0 Z"
             style="fill:#000000;fill-opacity:1;fill-rule:nonzero;stroke:none"
             id="path154"
             inkscape:connector-curvature="0" /></g><path
           d="m 291.684,8.966 h 0.702 V 5.104 h -0.702 z m 0.782,1.086 c 0.008,-0.24 -0.167,-0.432 -0.447,-0.432 -0.248,0 -0.422,0.192 -0.422,0.432 0,0.247 0.183,0.438 0.438,0.438 0.264,0 0.431,-0.191 0.431,-0.438"
           style="fill:#000000;fill-opacity:1;fill-rule:nonzero;stroke:none"
           id="path156"
           inkscape:connector-curvature="0" /><g
           id="g158"
           transform="translate(296.0985,7.4415)"><path
             d="m 0,0 c 0,0.12 -0.009,0.224 -0.04,0.319 -0.128,0.408 -0.471,0.743 -0.981,0.743 -0.671,0 -1.15,-0.567 -1.15,-1.46 0,-0.759 0.383,-1.389 1.141,-1.389 0.431,0 0.822,0.271 0.973,0.718 C -0.017,-0.949 0,-0.813 0,-0.694 Z M 0.726,1.524 C 0.71,1.245 0.694,0.934 0.694,0.463 v -2.242 c 0,-0.886 -0.175,-1.429 -0.55,-1.764 -0.375,-0.352 -0.918,-0.463 -1.406,-0.463 -0.463,0 -0.973,0.111 -1.284,0.319 l 0.176,0.535 c 0.255,-0.16 0.654,-0.303 1.133,-0.303 0.717,0 1.245,0.375 1.245,1.349 v 0.43 h -0.017 c -0.215,-0.358 -0.63,-0.646 -1.228,-0.646 -0.958,0 -1.644,0.814 -1.644,1.884 0,1.308 0.854,2.05 1.739,2.05 0.67,0 1.038,-0.35 1.205,-0.67 h 0.016 l 0.032,0.582 z"
             style="fill:#000000;fill-opacity:1;fill-rule:nonzero;stroke:none"
             id="path160"
             inkscape:connector-curvature="0" /></g><g
           id="g162"
           transform="translate(297.9286,10.7696)"><path
             d="m 0,0 h 0.702 v -2.41 h 0.016 c 0.111,0.199 0.287,0.375 0.503,0.495 0.207,0.119 0.455,0.199 0.717,0.199 0.519,0 1.349,-0.319 1.349,-1.652 V -5.666 H 2.585 v 2.219 c 0,0.622 -0.231,1.149 -0.894,1.149 -0.455,0 -0.814,-0.319 -0.941,-0.703 C 0.71,-3.097 0.702,-3.2 0.702,-3.336 v -2.33 H 0 Z"
             style="fill:#000000;fill-opacity:1;fill-rule:nonzero;stroke:none"
             id="path164"
             inkscape:connector-curvature="0" /></g><g
           id="g166"
           transform="translate(303.286,10.0753)"><path
             d="M 0,0 V -1.109 H 1.005 V -1.644 H 0 v -2.083 c 0,-0.478 0.136,-0.75 0.526,-0.75 0.184,0 0.32,0.024 0.408,0.048 L 0.966,-4.956 C 0.83,-5.012 0.614,-5.052 0.343,-5.052 c -0.327,0 -0.591,0.105 -0.758,0.296 -0.199,0.207 -0.272,0.551 -0.272,1.005 v 2.107 h -0.598 v 0.535 h 0.598 v 0.925 z"
             style="fill:#000000;fill-opacity:1;fill-rule:nonzero;stroke:none"
             id="path168"
             inkscape:connector-curvature="0" /></g></g></g><g
       id="g170"><g
         id="g172"
         clip-path="url(#clipPath176)"><g
           id="g178"
           transform="translate(221.9738,25.3137)"><path
             d="m 0,0 c -0.093,0 -0.185,0.036 -0.255,0.106 -0.141,0.142 -0.14,0.37 0.001,0.51 l 141.84,140.88 c 0.142,0.141 0.368,0.139 0.51,-0.001 0.139,-0.141 0.138,-0.37 -0.002,-0.51 L 0.254,0.104 C 0.184,0.035 0.092,0 0,0"
             style="fill:#000000;fill-opacity:1;fill-rule:nonzero;stroke:none"
             id="path180"
             inkscape:connector-curvature="0" /></g><g
           id="g182"
           transform="translate(222.3342,25.1936)"><path
             d="m 0,0 c -0.101,0 -0.201,0.043 -0.272,0.125 -0.13,0.15 -0.114,0.378 0.037,0.508 l 135.36,117.12 c 0.147,0.128 0.377,0.114 0.508,-0.037 0.13,-0.151 0.113,-0.378 -0.037,-0.508 L 0.235,0.088 C 0.167,0.029 0.083,0 0,0"
             style="fill:#0000ff;fill-opacity:1;fill-rule:nonzero;stroke:none"
             id="path184"
             inkscape:connector-curvature="0" /></g><g
           id="g186"
           transform="translate(360.0941,139.4343)"><path
             d="M 0,0 3.36,8.04 -5.16,5.88"
             style="fill:#0000ff;fill-opacity:1;fill-rule:evenodd;stroke:none"
             id="path188"
             inkscape:connector-curvature="0" /></g><g
           id="g190"
           transform="translate(221.9743,25.3137)"><path
             d="m 0,0 c -0.112,0 -0.222,0.052 -0.292,0.149 -0.117,0.163 -0.08,0.387 0.081,0.503 l 136.32,98.281 c 0.162,0.116 0.386,0.08 0.503,-0.082 0.116,-0.161 0.08,-0.386 -0.081,-0.502 L 0.21,0.068 C 0.146,0.022 0.073,0 0,0"
             style="fill:#0000ff;fill-opacity:1;fill-rule:nonzero;stroke:none"
             id="path192"
             inkscape:connector-curvature="0" /></g><g
           id="g194"
           transform="translate(360.334,120.4743)"><path
             d="M 0,0 4.08,7.8 -4.56,6.36"
             style="fill:#0000ff;fill-opacity:1;fill-rule:evenodd;stroke:none"
             id="path196"
             inkscape:connector-curvature="0" /></g><g
           id="g198"
           transform="translate(221.9743,25.3137)"><path
             d="m 0,0 c -0.128,0 -0.252,0.068 -0.317,0.188 -0.095,0.175 -0.03,0.394 0.145,0.489 l 135.839,73.56 c 0.175,0.093 0.394,0.03 0.489,-0.145 0.094,-0.175 0.03,-0.393 -0.145,-0.488 L 0.171,0.044 C 0.117,0.015 0.058,0 0,0"
             style="fill:#0000ff;fill-opacity:1;fill-rule:nonzero;stroke:none"
             id="path200"
             inkscape:connector-curvature="0" /></g><g
           id="g202"
           transform="translate(359.494,95.3943)"><path
             d="M 0,0 4.92,7.2 -3.84,6.96"
             style="fill:#0000ff;fill-opacity:1;fill-rule:evenodd;stroke:none"
             id="path204"
             inkscape:connector-curvature="0" /></g><g
           id="g206"
           transform="translate(221.9738,25.3137)"><path
             d="m 0,0 c -0.145,0 -0.282,0.089 -0.336,0.232 -0.071,0.186 0.022,0.394 0.208,0.465 l 135.36,51.481 c 0.185,0.068 0.395,-0.024 0.465,-0.209 0.071,-0.186 -0.023,-0.394 -0.209,-0.465 L 0.128,0.023 C 0.086,0.008 0.042,0 0,0"
             style="fill:#0000ff;fill-opacity:1;fill-rule:nonzero;stroke:none"
             id="path208"
             inkscape:connector-curvature="0" /></g><g
           id="g210"
           transform="translate(358.5341,73.4343)"><path
             d="M 0,0 5.88,6.36 -2.76,7.32"
             style="fill:#0000ff;fill-opacity:1;fill-rule:evenodd;stroke:none"
             id="path212"
             inkscape:connector-curvature="0" /></g><g
           id="g214"
           transform="translate(221.9733,25.3137)"><path
             d="m 0,0 c -0.163,0 -0.31,0.111 -0.35,0.276 -0.046,0.194 0.073,0.388 0.267,0.434 l 135.12,32.4 c 0.196,0.049 0.387,-0.073 0.433,-0.265 0.047,-0.194 -0.072,-0.388 -0.265,-0.434 L 0.084,0.011 C 0.056,0.004 0.028,0 0,0"
             style="fill:#0000ff;fill-opacity:1;fill-rule:nonzero;stroke:none"
             id="path216"
             inkscape:connector-curvature="0" /></g><g
           id="g218"
           transform="translate(357.6941,54.1143)"><path
             d="M 0,0 6.72,5.76 -1.8,7.68"
             style="fill:#0000ff;fill-opacity:1;fill-rule:evenodd;stroke:none"
             id="path220"
             inkscape:connector-curvature="0" /></g><g
           id="g222"
           transform="translate(221.8537,25.1936)"><path
             d="m 0,0 c -0.183,0 -0.339,0.139 -0.358,0.324 -0.019,0.198 0.125,0.374 0.322,0.395 l 135,13.56 c 0.207,0.023 0.375,-0.124 0.394,-0.322 0.02,-0.198 -0.125,-0.374 -0.322,-0.394 L 0.037,0.002 C 0.024,0.001 0.012,0 0,0"
             style="fill:#0000ff;fill-opacity:1;fill-rule:nonzero;stroke:none"
             id="path224"
             inkscape:connector-curvature="0" /></g><g
           id="g226"
           transform="translate(357.0941,35.1543)"><path
             d="m 0,0 7.32,4.8 -8.16,3"
             style="fill:#0000ff;fill-opacity:1;fill-rule:evenodd;stroke:none"
             id="path228"
             inkscape:connector-curvature="0" /></g></g></g><text
       xml:space="preserve"
       style="font-style:normal;font-weight:normal;font-size:30px;line-height:1.25;font-family:sans-serif;letter-spacing:0px;word-spacing:0px;fill:#000000;fill-opacity:1;stroke:none;stroke-width:0.75"
       x="-163.92677"
       y="-47.795506"
       id="text923"
       transform="scale(1,-1)"><tspan
         sodipodi:role="line"
         id="tspan921"
         x="-163.92677"
         y="-20.772873"
         style="stroke-width:0.75"></tspan></text>
<text
       xml:space="preserve"
       style="font-style:normal;font-weight:normal;font-size:30px;line-height:1.25;font-family:sans-serif;letter-spacing:0px;word-spacing:0px;fill:#000000;fill-opacity:1;stroke:none;stroke-width:0.75"
       x="-156.8167"
       y="-53.720581"
       id="text951"
       transform="scale(1,-1)"><tspan
         sodipodi:role="line"
         id="tspan949"
         x="-156.8167"
         y="-26.697948"
         style="stroke-width:0.75"></tspan></text>
<path
       inkscape:connector-curvature="0"
       id="path48-3"
       style="fill:#000000;fill-opacity:1;fill-rule:nonzero;stroke:none;stroke-width:0.99999994"
       d="m 68.670329,154.49346 c -0.538,0.226 -0.865,0.468 -0.982,0.733 -0.125,0.249 -0.125,0.561 0,0.928 0.163,0.483 0.506,0.881 1.013,1.208 0.71,0.437 1.505,0.655 2.402,0.663 0.538,-0.008 0.998,-0.07 1.38,-0.195 0.382,-0.125 0.616,-0.288 0.694,-0.483 0.093,-0.203 0.101,-0.39 0.039,-0.562 -0.047,-0.163 -0.172,-0.319 -0.351,-0.444 -0.179,-0.133 -0.351,-0.203 -0.53,-0.195 -0.289,-0.008 -0.46,0.179 -0.523,0.554 -0.054,0.366 -0.14,0.592 -0.241,0.686 -0.156,0.125 -0.375,0.195 -0.679,0.203 -0.46,-0.008 -0.881,-0.149 -1.247,-0.414 -0.375,-0.28 -0.632,-0.647 -0.796,-1.107 -0.156,-0.46 -0.163,-0.811 -0.015,-1.053 0.148,-0.249 0.421,-0.366 0.818,-0.358 0.133,-0.008 0.289,0 0.453,0.031 0.273,0.023 0.475,0.039 0.616,0.047 0.226,-0.008 0.366,-0.039 0.429,-0.086 0.062,-0.062 0.077,-0.133 0.054,-0.195 -0.023,-0.094 -0.078,-0.156 -0.164,-0.179 -0.117,-0.078 -0.288,-0.117 -0.522,-0.109 -0.055,-0.008 -0.133,0 -0.257,0.023 -0.25,0.031 -0.46,0.054 -0.64,0.062 -0.436,-0.008 -0.842,-0.156 -1.216,-0.436 -0.374,-0.297 -0.639,-0.671 -0.803,-1.123 -0.18,-0.554 -0.18,-0.983 0,-1.287 0.187,-0.304 0.507,-0.452 0.967,-0.444 0.374,-0.008 0.709,0.101 1.021,0.335 0.179,0.117 0.413,0.39 0.694,0.811 0.195,0.257 0.335,0.421 0.413,0.491 0.226,0.164 0.437,0.25 0.616,0.258 0.226,-0.008 0.382,-0.086 0.484,-0.234 0.101,-0.156 0.109,-0.343 0.023,-0.554 -0.117,-0.366 -0.429,-0.702 -0.951,-0.99 -0.733001,-0.437 -1.567001,-0.655 -2.495001,-0.655 -0.975,0 -1.661,0.21 -2.043,0.647 -0.374,0.429 -0.476,0.905 -0.296,1.443 0.124,0.366 0.389,0.717 0.787,1.06 0.398,0.327 1.014,0.639 1.848,0.92" /><path
       d="m 78.021429,154.05906 h 0.702 v -5.666 h -0.702 z"
       style="fill:#000000;fill-opacity:1;fill-rule:nonzero;stroke:none;stroke-width:0.99999994"
       id="path50-6"
       inkscape:connector-curvature="0" /><path
       inkscape:connector-curvature="0"
       id="path54-7"
       style="fill:#000000;fill-opacity:1;fill-rule:nonzero;stroke:none;stroke-width:0.99999994"
       d="m 82.412529,150.69896 c 0.008,0.447 -0.184,1.141 -0.974,1.141 -0.71,0 -1.021,-0.654 -1.077,-1.141 z m -2.059,-0.502 c 0.016,-0.95 0.622,-1.341 1.325,-1.341 0.503,0 0.806,0.088 1.069,0.199 l 0.12,-0.502 c -0.247,-0.112 -0.671,-0.24 -1.285,-0.24 -1.189,0 -1.899,0.782 -1.899,1.947 0,1.166 0.686,2.083 1.811,2.083 1.261,0 1.596,-1.109 1.596,-1.819 0,-0.144 -0.016,-0.256 -0.024,-0.327 z" /><path
       inkscape:connector-curvature="0"
       id="path58-5"
       style="fill:#000000;fill-opacity:1;fill-rule:nonzero;stroke:none;stroke-width:0.99999994"
       d="m 83.986729,148.39276 v 3.328 h -0.542 v 0.534 h 0.542 v 0.184 c 0,0.543 0.12,1.037 0.447,1.349 0.263,0.255 0.615,0.359 0.942,0.359 0.247,0 0.463,-0.056 0.598,-0.112 l -0.095,-0.542 c -0.104,0.047 -0.248,0.087 -0.448,0.087 -0.598,0 -0.75,-0.526 -0.75,-1.117 v -0.208 h 0.934 v -0.534 h -0.934 v -3.328 z" /><path
       inkscape:connector-curvature="0"
       id="path62-3"
       style="fill:#000000;fill-opacity:1;fill-rule:nonzero;stroke:none;stroke-width:0.99999994"
       d="m 87.029229,153.36446 v -1.109 h 1.005 v -0.535 h -1.005 v -2.083 c 0,-0.479 0.135,-0.75 0.526,-0.75 0.184,0 0.32,0.024 0.408,0.048 l 0.031,-0.527 c -0.135,-0.056 -0.351,-0.095 -0.622,-0.095 -0.327,0 -0.591,0.103 -0.758,0.295 -0.2,0.207 -0.272,0.55 -0.272,1.006 v 2.106 h -0.597998 v 0.535 h 0.598 v 0.925 z" /><path
       inkscape:connector-curvature="0"
       id="path68-6"
       style="fill:#000000;fill-opacity:1;fill-rule:nonzero;stroke:none;stroke-width:0.99999994"
       d="m 111.80453,154.74193 c -0.538,0.226 -0.865,0.468 -0.982,0.733 -0.125,0.249 -0.125,0.561 0,0.928 0.163,0.483 0.506,0.881 1.013,1.208 0.71,0.437 1.505,0.655 2.402,0.663 0.538,-0.008 0.998,-0.07 1.38,-0.195 0.382,-0.125 0.616,-0.288 0.694,-0.483 0.093,-0.203 0.101,-0.39 0.039,-0.562 -0.047,-0.163 -0.172,-0.319 -0.351,-0.444 -0.179,-0.133 -0.351,-0.203 -0.53,-0.195 -0.289,-0.008 -0.46,0.179 -0.523,0.554 -0.054,0.366 -0.14,0.592 -0.241,0.686 -0.156,0.125 -0.375,0.195 -0.679,0.202 -0.46,-0.007 -0.881,-0.148 -1.247,-0.413 -0.375,-0.28 -0.632,-0.647 -0.796,-1.107 -0.156,-0.46 -0.163,-0.811 -0.015,-1.053 0.148,-0.249 0.421,-0.366 0.818,-0.358 0.133,-0.008 0.289,0 0.453,0.031 0.273,0.023 0.475,0.039 0.616,0.047 0.226,-0.008 0.366,-0.039 0.429,-0.086 0.062,-0.062 0.077,-0.133 0.054,-0.195 -0.023,-0.094 -0.078,-0.156 -0.164,-0.179 -0.117,-0.078 -0.288,-0.117 -0.522,-0.109 -0.055,-0.008 -0.133,0 -0.257,0.023 -0.25,0.031 -0.46,0.054 -0.64,0.062 -0.436,-0.008 -0.842,-0.156 -1.216,-0.436 -0.374,-0.297 -0.639,-0.671 -0.803,-1.123 -0.18,-0.554 -0.18,-0.983 0,-1.287 0.187,-0.304 0.507,-0.452 0.967,-0.444 0.374,-0.008 0.709,0.101 1.021,0.335 0.179,0.117 0.413,0.39 0.694,0.811 0.195,0.257 0.335,0.421 0.413,0.491 0.226,0.164 0.437,0.25 0.616,0.258 0.226,-0.008 0.382,-0.086 0.484,-0.234 0.101,-0.156 0.109,-0.343 0.023,-0.554 -0.117,-0.366 -0.429,-0.702 -0.951,-0.99 -0.733,-0.437 -1.567,-0.655 -2.495,-0.655 -0.975,0 -1.661,0.21 -2.043,0.647 -0.374,0.429 -0.476,0.904 -0.296,1.443 0.124,0.366 0.389,0.717 0.787,1.06 0.398,0.327 1.014,0.639 1.848,0.92" /><path
       inkscape:connector-curvature="0"
       id="path72-2"
       style="fill:#000000;fill-opacity:1;fill-rule:nonzero;stroke:none;stroke-width:0.99999994"
       d="m 117.31943,149.49883 c 0,0.455 -0.009,0.846 -0.032,1.205 h 0.614 l 0.024,-0.758 h 0.032 c 0.175,0.519 0.598,0.846 1.069,0.846 0.08,0 0.136,-0.008 0.2,-0.023 v -0.664 c -0.072,0.017 -0.143,0.025 -0.24,0.025 -0.494,0 -0.846,-0.375 -0.941,-0.902 -0.016,-0.096 -0.032,-0.208 -0.032,-0.328 v -2.058 h -0.694 z" /><path
       d="m 119.93883,150.70403 h 0.702 v -3.862 h -0.702 z m 0.781,1.086 c 0.009,-0.24 -0.167,-0.432 -0.446,-0.432 -0.248,0 -0.423,0.192 -0.423,0.432 0,0.247 0.183,0.438 0.438,0.438 0.264,0 0.431,-0.191 0.431,-0.438"
       style="fill:#000000;fill-opacity:1;fill-rule:nonzero;stroke:none;stroke-width:0.99999994"
       id="path74-9"
       inkscape:connector-curvature="0" /><path
       inkscape:connector-curvature="0"
       id="path78-1"
       style="fill:#000000;fill-opacity:1;fill-rule:nonzero;stroke:none;stroke-width:0.99999994"
       d="m 124.35263,149.17953 c 0,0.12 -0.009,0.224 -0.04,0.319 -0.128,0.408 -0.471,0.743 -0.981,0.743 -0.671,0 -1.15,-0.567 -1.15,-1.46 0,-0.759 0.383,-1.389 1.141,-1.389 0.431,0 0.822,0.271 0.973,0.718 0.04,0.12 0.057,0.256 0.057,0.375 z m 0.726,1.524 c -0.016,-0.279 -0.032,-0.59 -0.032,-1.061 v -2.242 c 0,-0.886 -0.175,-1.429 -0.55,-1.764 -0.375,-0.352 -0.918,-0.463 -1.406,-0.463 -0.463,0 -0.973,0.111 -1.284,0.319 l 0.176,0.535 c 0.255,-0.16 0.654,-0.303 1.133,-0.303 0.717,0 1.245,0.375 1.245,1.349 v 0.43 h -0.017 c -0.215,-0.358 -0.63,-0.646 -1.228,-0.646 -0.958,0 -1.644,0.814 -1.644,1.884 0,1.308 0.854,2.05 1.739,2.05 0.67,0 1.038,-0.35 1.205,-0.67 h 0.016 l 0.032,0.582 z" /><path
       inkscape:connector-curvature="0"
       id="path82-2"
       style="fill:#000000;fill-opacity:1;fill-rule:nonzero;stroke:none;stroke-width:0.99999994"
       d="m 126.18273,152.50763 h 0.702 v -2.41 h 0.016 c 0.111,0.199 0.287,0.375 0.503,0.495 0.207,0.119 0.455,0.199 0.717,0.199 0.519,0 1.349,-0.319 1.349,-1.652 v -2.298 h -0.702 v 2.219 c 0,0.622 -0.231,1.149 -0.894,1.149 -0.455,0 -0.814,-0.319 -0.941,-0.703 -0.04,-0.096 -0.048,-0.199 -0.048,-0.335 v -2.33 h -0.702 z" /><path
       inkscape:connector-curvature="0"
       id="path86-7"
       style="fill:#000000;fill-opacity:1;fill-rule:nonzero;stroke:none;stroke-width:0.99999994"
       d="m 131.54013,151.81333 v -1.109 h 1.005 v -0.535 h -1.005 v -2.083 c 0,-0.478 0.136,-0.75 0.526,-0.75 0.184,0 0.32,0.024 0.408,0.048 l 0.032,-0.527 c -0.136,-0.056 -0.352,-0.096 -0.623,-0.096 -0.327,0 -0.591,0.105 -0.758,0.296 -0.199,0.207 -0.272,0.551 -0.272,1.005 v 2.107 h -0.598 v 0.535 h 0.598 v 0.925 z" /><text
       xml:space="preserve"
       style="font-style:normal;font-weight:normal;font-size:45.90437317px;line-height:1.25;font-family:sans-serif;letter-spacing:0px;word-spacing:0px;fill:#000000;fill-opacity:1;stroke:none;stroke-width:1.14760935"
       x="93.019905"
       y="-148.45448"
       id="text1121"
       transform="scale(1,-1)"><tspan
         sodipodi:role="line"
         id="tspan1119"
         x="93.019905"
         y="-148.45448"
         style="font-style:normal;font-variant:normal;font-weight:normal;font-stretch:normal;font-size:16.831604px;font-family:'Times New Roman';-inkscape-font-specification:'Times New Roman, ';stroke-width:1.14760935">=</tspan></text>
<rect
       style="fill:none;fill-opacity:1;stroke:#000000;stroke-width:0.25604212;stroke-miterlimit:4;stroke-dasharray:none;stroke-dashoffset:0;stroke-opacity:1"
       id="rect1144"
       width="73.59697"
       height="18.493872"
       x="62.989471"
       y="-161.07669"
       transform="scale(1,-1)" /><path
       inkscape:connector-curvature="0"
       id="path48-3-5"
       style="fill:#000000;fill-opacity:1;fill-rule:nonzero;stroke:none;stroke-width:0.99999994"
       d="m 259.94897,155.63638 c -0.538,0.226 -0.865,0.468 -0.982,0.733 -0.125,0.249 -0.125,0.561 0,0.928 0.163,0.483 0.506,0.881 1.013,1.208 0.71,0.437 1.505,0.655 2.402,0.663 0.538,-0.008 0.998,-0.07 1.38,-0.195 0.382,-0.125 0.616,-0.288 0.694,-0.483 0.093,-0.203 0.101,-0.39 0.039,-0.562 -0.047,-0.163 -0.172,-0.319 -0.351,-0.444 -0.179,-0.133 -0.351,-0.203 -0.53,-0.195 -0.289,-0.008 -0.46,0.179 -0.523,0.554 -0.054,0.366 -0.14,0.592 -0.241,0.686 -0.156,0.125 -0.375,0.195 -0.679,0.203 -0.46,-0.008 -0.881,-0.149 -1.247,-0.414 -0.375,-0.28 -0.632,-0.647 -0.796,-1.107 -0.156,-0.46 -0.163,-0.811 -0.015,-1.053 0.148,-0.249 0.421,-0.366 0.818,-0.358 0.133,-0.008 0.289,0 0.453,0.031 0.273,0.023 0.475,0.039 0.616,0.047 0.226,-0.008 0.366,-0.039 0.429,-0.086 0.062,-0.062 0.077,-0.133 0.054,-0.195 -0.023,-0.094 -0.078,-0.156 -0.164,-0.179 -0.117,-0.078 -0.288,-0.117 -0.522,-0.109 -0.055,-0.008 -0.133,0 -0.257,0.023 -0.25,0.031 -0.46,0.054 -0.64,0.062 -0.436,-0.008 -0.842,-0.156 -1.216,-0.436 -0.374,-0.297 -0.639,-0.671 -0.803,-1.123 -0.18,-0.554 -0.18,-0.983 0,-1.287 0.187,-0.304 0.507,-0.452 0.967,-0.444 0.374,-0.008 0.709,0.101 1.021,0.335 0.179,0.117 0.413,0.39 0.694,0.811 0.195,0.257 0.335,0.421 0.413,0.491 0.226,0.164 0.437,0.25 0.616,0.258 0.226,-0.008 0.382,-0.086 0.484,-0.234 0.101,-0.156 0.109,-0.343 0.023,-0.554 -0.117,-0.366 -0.429,-0.702 -0.951,-0.99 -0.733,-0.437 -1.567,-0.655 -2.495,-0.655 -0.975,0 -1.661,0.21 -2.043,0.647 -0.374,0.429 -0.476,0.905 -0.296,1.443 0.124,0.366 0.389,0.717 0.787,1.06 0.398,0.327 1.014,0.639 1.848,0.92" /><path
       d="m 269.30007,155.20198 h 0.702 v -5.666 h -0.702 z"
       style="fill:#000000;fill-opacity:1;fill-rule:nonzero;stroke:none;stroke-width:0.99999994"
       id="path50-6-7"
       inkscape:connector-curvature="0" /><path
       inkscape:connector-curvature="0"
       id="path54-7-4"
       style="fill:#000000;fill-opacity:1;fill-rule:nonzero;stroke:none;stroke-width:0.99999994"
       d="m 273.69117,151.84188 c 0.008,0.447 -0.184,1.141 -0.974,1.141 -0.71,0 -1.021,-0.654 -1.077,-1.141 z m -2.059,-0.502 c 0.016,-0.95 0.622,-1.341 1.325,-1.341 0.503,0 0.806,0.088 1.069,0.199 l 0.12,-0.502 c -0.247,-0.112 -0.671,-0.24 -1.285,-0.24 -1.189,0 -1.899,0.782 -1.899,1.947 0,1.166 0.686,2.083 1.811,2.083 1.261,0 1.596,-1.109 1.596,-1.819 0,-0.144 -0.016,-0.256 -0.024,-0.327 z" /><path
       inkscape:connector-curvature="0"
       id="path58-5-9"
       style="fill:#000000;fill-opacity:1;fill-rule:nonzero;stroke:none;stroke-width:0.99999994"
       d="m 275.26537,149.53568 v 3.328 h -0.542 v 0.534 h 0.542 v 0.184 c 0,0.543 0.12,1.037 0.447,1.349 0.263,0.255 0.615,0.359 0.942,0.359 0.247,0 0.463,-0.056 0.598,-0.112 l -0.095,-0.542 c -0.104,0.047 -0.248,0.087 -0.448,0.087 -0.598,0 -0.75,-0.526 -0.75,-1.117 v -0.208 h 0.934 v -0.534 h -0.934 v -3.328 z" /><path
       inkscape:connector-curvature="0"
       id="path62-3-9"
       style="fill:#000000;fill-opacity:1;fill-rule:nonzero;stroke:none;stroke-width:0.99999994"
       d="m 278.30787,154.50738 v -1.109 h 1.005 v -0.535 h -1.005 v -2.083 c 0,-0.479 0.135,-0.75 0.526,-0.75 0.184,0 0.32,0.024 0.408,0.048 l 0.031,-0.527 c -0.135,-0.056 -0.351,-0.095 -0.622,-0.095 -0.327,0 -0.591,0.103 -0.758,0.295 -0.2,0.207 -0.272,0.55 -0.272,1.006 v 2.106 h -0.59799 v 0.535 h 0.598 v 0.925 z" /><path
       inkscape:connector-curvature="0"
       id="path68-6-4"
       style="fill:#000000;fill-opacity:1;fill-rule:nonzero;stroke:none;stroke-width:0.99999994"
       d="m 303.08317,155.88484 c -0.538,0.226 -0.865,0.468 -0.982,0.733 -0.125,0.249 -0.125,0.561 0,0.928 0.163,0.483 0.506,0.881 1.013,1.208 0.71,0.437 1.505,0.655 2.402,0.663 0.538,-0.008 0.998,-0.07 1.38,-0.195 0.382,-0.125 0.616,-0.288 0.694,-0.483 0.093,-0.203 0.101,-0.39 0.039,-0.562 -0.047,-0.163 -0.172,-0.319 -0.351,-0.444 -0.179,-0.133 -0.351,-0.203 -0.53,-0.195 -0.289,-0.008 -0.46,0.179 -0.523,0.554 -0.054,0.366 -0.14,0.592 -0.241,0.686 -0.156,0.125 -0.375,0.195 -0.679,0.202 -0.46,-0.007 -0.881,-0.148 -1.247,-0.413 -0.375,-0.28 -0.632,-0.647 -0.796,-1.107 -0.156,-0.46 -0.163,-0.811 -0.015,-1.053 0.148,-0.249 0.421,-0.366 0.818,-0.358 0.133,-0.008 0.289,0 0.453,0.031 0.273,0.023 0.475,0.039 0.616,0.047 0.226,-0.008 0.366,-0.039 0.429,-0.086 0.062,-0.062 0.077,-0.133 0.054,-0.195 -0.023,-0.094 -0.078,-0.156 -0.164,-0.179 -0.117,-0.078 -0.288,-0.117 -0.522,-0.109 -0.055,-0.008 -0.133,0 -0.257,0.023 -0.25,0.031 -0.46,0.054 -0.64,0.062 -0.436,-0.008 -0.842,-0.156 -1.216,-0.436 -0.374,-0.297 -0.639,-0.671 -0.803,-1.123 -0.18,-0.554 -0.18,-0.983 0,-1.287 0.187,-0.304 0.507,-0.452 0.967,-0.444 0.374,-0.008 0.709,0.101 1.021,0.335 0.179,0.117 0.413,0.39 0.694,0.811 0.195,0.257 0.335,0.421 0.413,0.491 0.226,0.164 0.437,0.25 0.616,0.258 0.226,-0.008 0.382,-0.086 0.484,-0.234 0.101,-0.156 0.109,-0.343 0.023,-0.554 -0.117,-0.366 -0.429,-0.702 -0.951,-0.99 -0.733,-0.437 -1.567,-0.655 -2.495,-0.655 -0.975,0 -1.661,0.21 -2.043,0.647 -0.374,0.429 -0.476,0.904 -0.296,1.443 0.124,0.366 0.389,0.717 0.787,1.06 0.398,0.327 1.014,0.639 1.848,0.92" /><path
       inkscape:connector-curvature="0"
       id="path72-2-5"
       style="fill:#000000;fill-opacity:1;fill-rule:nonzero;stroke:none;stroke-width:0.99999994"
       d="m 308.59807,150.64174 c 0,0.455 -0.009,0.846 -0.032,1.205 h 0.614 l 0.024,-0.758 h 0.032 c 0.175,0.519 0.598,0.846 1.069,0.846 0.08,0 0.13601,-0.008 0.2,-0.023 v -0.664 c -0.072,0.017 -0.143,0.025 -0.24,0.025 -0.494,0 -0.846,-0.375 -0.941,-0.902 -0.016,-0.096 -0.032,-0.208 -0.032,-0.328 v -2.058 h -0.69399 z" /><path
       d="m 311.21747,151.84694 h 0.702 v -3.862 h -0.702 z m 0.781,1.086 c 0.009,-0.24 -0.167,-0.432 -0.446,-0.432 -0.248,0 -0.423,0.192 -0.423,0.432 0,0.247 0.183,0.438 0.438,0.438 0.264,0 0.431,-0.191 0.431,-0.438"
       style="fill:#000000;fill-opacity:1;fill-rule:nonzero;stroke:none;stroke-width:0.99999994"
       id="path74-9-9"
       inkscape:connector-curvature="0" /><path
       inkscape:connector-curvature="0"
       id="path78-1-3"
       style="fill:#000000;fill-opacity:1;fill-rule:nonzero;stroke:none;stroke-width:0.99999994"
       d="m 315.63127,150.32244 c 0,0.12 -0.009,0.224 -0.04,0.319 -0.128,0.408 -0.471,0.743 -0.981,0.743 -0.671,0 -1.15,-0.567 -1.15,-1.46 0,-0.759 0.383,-1.389 1.141,-1.389 0.431,0 0.822,0.271 0.973,0.718 0.04,0.12 0.057,0.256 0.057,0.375 z m 0.726,1.524 c -0.016,-0.279 -0.032,-0.59 -0.032,-1.061 v -2.242 c 0,-0.886 -0.17499,-1.429 -0.54999,-1.764 -0.375,-0.352 -0.918,-0.463 -1.40601,-0.463 -0.46299,0 -0.97299,0.111 -1.284,0.319 l 0.17601,0.535 c 0.255,-0.16 0.654,-0.303 1.13299,-0.303 0.717,0 1.245,0.375 1.245,1.349 v 0.43 h -0.017 c -0.215,-0.358 -0.63,-0.646 -1.228,-0.646 -0.958,0 -1.644,0.814 -1.644,1.884 0,1.308 0.854,2.05 1.739,2.05 0.67,0 1.038,-0.35 1.205,-0.67 h 0.016 l 0.032,0.582 z" /><path
       inkscape:connector-curvature="0"
       id="path82-2-5"
       style="fill:#000000;fill-opacity:1;fill-rule:nonzero;stroke:none;stroke-width:0.99999994"
       d="m 317.46137,153.65054 h 0.702 v -2.41 h 0.016 c 0.111,0.199 0.28701,0.375 0.50301,0.495 0.207,0.119 0.45499,0.199 0.717,0.199 0.519,0 1.34899,-0.319 1.34899,-1.652 v -2.298 h -0.702 v 2.219 c 0,0.622 -0.231,1.149 -0.894,1.149 -0.45499,0 -0.814,-0.319 -0.94099,-0.703 -0.04,-0.096 -0.048,-0.199 -0.048,-0.335 v -2.33 h -0.702 z" /><path
       inkscape:connector-curvature="0"
       id="path86-7-7"
       style="fill:#000000;fill-opacity:1;fill-rule:nonzero;stroke:none;stroke-width:0.99999994"
       d="m 322.81877,152.95624 v -1.109 h 1.005 v -0.535 h -1.005 v -2.083 c 0,-0.478 0.136,-0.75 0.526,-0.75 0.184,0 0.32,0.024 0.408,0.048 l 0.032,-0.527 c -0.136,-0.056 -0.352,-0.096 -0.62299,-0.096 -0.327,0 -0.591,0.105 -0.758,0.296 -0.199,0.207 -0.27201,0.551 -0.27201,1.005 v 2.107 h -0.598 v 0.535 h 0.598 v 0.925 z" /><text
       xml:space="preserve"
       style="font-style:normal;font-weight:normal;font-size:45.90437317px;line-height:1.25;font-family:sans-serif;letter-spacing:0px;word-spacing:0px;fill:#000000;fill-opacity:1;stroke:none;stroke-width:1.14760935"
       x="284.29855"
       y="-149.5974"
       id="text1121-0"
       transform="scale(1,-1)"><tspan
         sodipodi:role="line"
         id="tspan1119-8"
         x="284.29855"
         y="-149.5974"
         style="font-style:normal;font-variant:normal;font-weight:normal;font-stretch:normal;font-size:16.831604px;font-family:'Times New Roman';-inkscape-font-specification:'Times New Roman, ';stroke-width:1.14760935">=</tspan></text>
<path
       style="fill:none;fill-rule:evenodd;stroke:#000000;stroke-width:0.75px;stroke-linecap:butt;stroke-linejoin:miter;stroke-opacity:1"
       d="m 285.38518,150.44345 7.33189,9.95042"
       id="path1176"
       inkscape:connector-type="polyline"
       inkscape:connector-curvature="0" /><rect
       style="fill:none;fill-opacity:1;stroke:#000000;stroke-width:0.25604212;stroke-miterlimit:4;stroke-dasharray:none;stroke-dashoffset:0;stroke-opacity:1"
       id="rect1144-1"
       width="73.59697"
       height="18.493872"
       x="254.71465"
       y="-163.2986"
       transform="scale(1,-1)" /></g></svg>